<svg width="43" height="44" viewBox="0 0 43 44" fill="none" xmlns="http://www.w3.org/2000/svg">
<path d="M16.0982 24.3691C15.9302 24.1987 15.7969 23.9959 15.706 23.7725C15.615 23.5491 15.5682 23.3094 15.5682 23.0674C15.5682 22.8254 15.615 22.5858 15.706 22.3624C15.7969 22.139 15.9302 21.9362 16.0982 21.7657L24.3219 13.3691C24.4898 13.1987 24.6232 12.9959 24.7141 12.7725C24.8051 12.5491 24.8519 12.3094 24.8519 12.0674C24.8519 11.8254 24.8051 11.5858 24.7141 11.3624C24.6232 11.139 24.4898 10.9362 24.3219 10.7657C23.9863 10.4243 23.5321 10.2327 23.0588 10.2327C22.5855 10.2327 22.1314 10.4243 21.7957 10.7657L13.5719 19.1807C12.5654 20.2121 12 21.6099 12 23.0674C12 24.5249 12.5654 25.9229 13.5719 26.9541L21.7957 35.3691C22.1294 35.7078 22.5798 35.8988 23.0498 35.9007C23.2857 35.9022 23.5194 35.856 23.7377 35.7647C23.9559 35.6734 24.1546 35.539 24.3219 35.3691C24.4898 35.1987 24.6232 34.9959 24.7141 34.7725C24.8051 34.5491 24.8519 34.3094 24.8519 34.0674C24.8519 33.8254 24.8051 33.5858 24.7141 33.3624C24.6232 33.139 24.4898 32.9362 24.3219 32.7658L16.0982 24.3691Z" fill="white"/>
</svg>
