<svg width="204" height="58" viewBox="0 0 204 58" fill="none" xmlns="http://www.w3.org/2000/svg">
<path d="M10.6245 35.6304C12.5947 35.6304 14.0749 35.2421 15.429 33.9739L27.6111 22.207C28.6777 21.2576 30.1006 20.7149 31.6645 20.7149H56.843C53.2136 9.27105 42.1904 0.951809 29.1588 0.951809C13.1654 0.951809 0.201324 13.4739 0.201324 28.918C0.201324 31.2319 0.496197 33.4793 1.04633 35.6304H10.6245Z" fill="#2C55A1"/>
<path d="M47.5755 22.9147C45.6081 22.9147 44.1249 23.3029 42.7708 24.571L30.5913 36.3384C29.5204 37.2877 28.0973 37.8304 26.5349 37.8304H1.35727C4.98384 49.2718 16.0088 57.5933 29.0421 57.5933C45.0331 57.5933 57.9989 45.0707 57.9989 29.6266C57.9989 27.3128 57.7055 25.0655 57.1554 22.9147H47.5755Z" fill="#2C55A1"/>
<path d="M70.6749 49.0241V50.9953C70.9137 51.0106 71.1525 51.0259 71.414 51.0259C72.2976 51.0259 72.7281 50.6293 72.7281 49.9818C72.7281 49.3883 72.3212 48.9773 71.4585 48.9773C71.2524 48.9773 70.96 48.9926 70.6749 49.0241ZM70.0219 46.2759H73.0659V46.8847H70.6749V48.4144C70.9446 48.3847 71.2914 48.3694 71.4976 48.3694C72.7054 48.3694 73.3819 48.9773 73.3819 49.9369C73.3819 51.0412 72.6046 51.6338 71.3132 51.6338C70.7684 51.6338 70.3379 51.6041 70.0219 51.6041V46.2759Z" fill="#303132"/>
<path d="M78.9167 46.8878H76.9643L76.8726 47.8923C76.5574 51.2799 75.8355 51.7133 74.9891 51.6072L74.9973 50.9597C75.3814 50.9984 76.0271 50.8078 76.2723 47.3447L76.3495 46.279H79.5705V51.6072H78.9167V46.8878Z" fill="#303132"/>
<path d="M82.9768 49.3825H84.9138L83.9439 47.1064L82.9768 49.3825ZM83.6833 46.2467H84.2454L86.5575 51.6055H85.8591L85.1671 49.9913H82.7162L82.0314 51.6055H81.3703L83.6833 46.2467Z" fill="#303132"/>
<path d="M88.3594 46.2782H91.3571V46.887H89.0133V51.6055H88.3594V46.2782Z" fill="#303132"/>
<path d="M95.2308 51.0733C96.4613 51.0733 97.2832 50.1444 97.2832 48.9421C97.2832 47.7011 96.3841 46.8108 95.2308 46.8108C94.0621 46.8108 93.1785 47.7011 93.1785 48.9421C93.1785 50.1525 94.0785 51.0733 95.2308 51.0733ZM95.2308 46.202C96.7919 46.202 97.9752 47.3216 97.9752 48.9421C97.9752 50.5257 96.7919 51.6821 95.2308 51.6821C93.6707 51.6821 92.4875 50.5635 92.4875 48.9421C92.4875 47.3971 93.6317 46.202 95.2308 46.202Z" fill="#303132"/>
<path d="M99.0602 46.2782H103.481V46.887H101.597V51.6055H100.945V46.887H99.0602V46.2782Z" fill="#303132"/>
<path d="M105.895 49.1769V50.988C106.072 51.0033 106.419 51.0177 106.725 51.0177C107.517 51.0177 107.986 50.6994 107.986 50.0447C107.986 49.4809 107.54 49.1769 106.763 49.1769H105.895ZM105.895 46.8856V48.605H106.756C107.325 48.605 107.794 48.2938 107.794 47.7156C107.794 47.159 107.417 46.8631 106.703 46.8631C106.419 46.8631 106.088 46.8775 105.895 46.8856ZM105.242 46.284C105.543 46.2768 106.218 46.2543 106.718 46.2543C108.001 46.2543 108.448 46.8325 108.448 47.5708C108.448 48.2408 108.04 48.6365 107.525 48.8037V48.819C108.193 48.9251 108.639 49.3514 108.639 50.0825C108.639 51.1634 107.801 51.6274 106.686 51.6274C106.211 51.6274 105.557 51.6121 105.242 51.5968V46.284Z" fill="#303132"/>
<path d="M113.183 51.0733C114.413 51.0733 115.235 50.1444 115.235 48.9421C115.235 47.7011 114.336 46.8108 113.183 46.8108C112.014 46.8108 111.131 47.7011 111.131 48.9421C111.131 50.1525 112.031 51.0733 113.183 51.0733ZM113.183 46.202C114.744 46.202 115.927 47.3216 115.927 48.9421C115.927 50.5257 114.744 51.6821 113.183 51.6821C111.623 51.6821 110.439 50.5635 110.439 48.9421C110.439 47.3971 111.584 46.202 113.183 46.202Z" fill="#303132"/>
<path d="M118.65 46.8861V48.9409C118.911 48.9643 119.165 48.9787 119.435 48.9787C120.227 48.9787 120.702 48.5758 120.702 47.9059C120.702 47.2746 120.318 46.8708 119.465 46.8708C119.248 46.8708 118.904 46.878 118.65 46.8861ZM117.996 51.6055V46.2773C118.297 46.2773 119.064 46.262 119.403 46.262C120.941 46.262 121.394 47.083 121.394 47.9139C121.394 48.7817 120.771 49.5884 119.457 49.5884C119.242 49.5884 118.919 49.5803 118.65 49.5569V51.6055H117.996Z" fill="#303132"/>
<path d="M123.463 51.6055V46.2773H124.116V50.5398L127.382 46.2773H127.959V51.6055H127.306V47.3429L124.039 51.6055H123.463Z" fill="#303132"/>
<path d="M129.722 46.2782H134.142V46.887H132.258V51.6055H131.604V46.887H129.722V46.2782Z" fill="#303132"/>
<path d="M135.903 46.2782H138.938V46.887H136.556V48.6064H138.708V49.217H136.556V50.9976H139.015V51.6055H135.903V46.2782Z" fill="#303132"/>
<path d="M144.512 46.8878H142.56L142.468 47.8923C142.153 51.2799 141.43 51.7133 140.584 51.6072L140.592 50.9597C140.976 50.9984 141.622 50.8078 141.869 47.3447L141.946 46.279H145.166V51.6072H144.512V46.8878Z" fill="#303132"/>
<path d="M148.311 48.8738V50.9898C148.519 50.9979 148.749 51.0132 148.995 51.0132C149.879 51.0132 150.402 50.6481 150.402 49.8783C150.402 49.1859 149.887 48.8289 149.018 48.8289C148.841 48.8289 148.58 48.8433 148.311 48.8738ZM148.311 48.257C148.602 48.2345 148.886 48.2201 149.063 48.2201C150.455 48.2201 151.093 48.8586 151.093 49.863C151.093 50.9817 150.294 51.6211 148.917 51.6211C148.457 51.6211 147.973 51.6058 147.658 51.6058V46.2786H148.311V48.257Z" fill="#303132"/>
<path d="M156.775 49.1936H153.817V51.6055H153.163V46.2782H153.817V48.5839H156.775V46.2782H157.428V51.6055H156.775V49.1936Z" fill="#303132"/>
<path d="M164.148 46.2767H164.801V51.6049H164.148V46.2767ZM160.574 48.8729V50.9889C160.782 50.997 160.974 51.0114 161.22 51.0114C162.104 51.0114 162.587 50.6319 162.587 49.8774C162.587 49.2002 162.111 48.828 161.243 48.828C161.065 48.828 160.842 48.8432 160.574 48.8729ZM160.574 48.256C160.866 48.2336 161.113 48.2191 161.289 48.2191C162.643 48.2191 163.28 48.8576 163.28 49.8621C163.28 50.9808 162.48 51.6211 161.143 51.6211C160.682 51.6211 160.235 51.6058 159.92 51.6058V46.2767H160.574V48.256Z" fill="#303132"/>
<path d="M168.77 45.0588C168.885 45.3717 169.154 45.5543 169.591 45.5543C169.991 45.5543 170.307 45.3942 170.383 45.0588H170.998C170.93 45.6298 170.329 46.0111 169.591 46.0111C168.784 46.0111 168.247 45.6145 168.154 45.0588H168.77ZM167.293 51.6055V46.2764H167.947V50.5389L171.213 46.2764H171.789V51.6055H171.137V47.3429L167.869 51.6055H167.293Z" fill="#303132"/>
<path d="M179.753 47.3657V50.372H179.769C180.923 50.372 181.644 49.8621 181.644 48.8648C181.644 47.9287 180.96 47.3657 179.761 47.3657H179.753ZM179.093 50.372H179.1V47.3657C177.933 47.3657 177.232 47.9287 177.232 48.8648C177.232 49.8549 177.963 50.372 179.093 50.372ZM179.1 50.9664H179.093C177.578 50.9664 176.541 50.2128 176.541 48.8648C176.541 47.5258 177.563 46.7722 179.1 46.7641V46.2164H179.753V46.7641C181.306 46.7722 182.336 47.5411 182.336 48.8648C182.336 50.2047 181.283 50.9664 179.777 50.9664H179.753V51.666H179.1V50.9664Z" fill="#303132"/>
<path d="M186.651 51.0733C187.88 51.0733 188.702 50.1444 188.702 48.9421C188.702 47.7011 187.803 46.8108 186.651 46.8108C185.482 46.8108 184.597 47.7011 184.597 48.9421C184.597 50.1525 185.498 51.0733 186.651 51.0733ZM186.651 46.202C188.211 46.202 189.394 47.3216 189.394 48.9421C189.394 50.5257 188.211 51.6821 186.651 51.6821C185.09 51.6821 183.907 50.5635 183.907 48.9421C183.907 47.3971 185.051 46.202 186.651 46.202Z" fill="#303132"/>
<path d="M195.076 49.1936H192.117V51.6055H191.463V46.2782H192.117V48.5839H195.076V46.2782H195.729V51.6055H195.076V49.1936Z" fill="#303132"/>
<path d="M198.829 50.9957H201.557V46.8852H199.673L199.605 47.8366C199.475 49.6711 199.028 50.752 198.829 50.9957ZM197.529 50.9957H198.106C198.329 50.7215 198.874 49.5722 198.99 47.342L199.045 46.2764H202.211V50.9957H202.942V52.5938H202.326V51.6036H198.144V52.5938H197.529V50.9957Z" fill="#303132"/>
<path d="M85.3444 33.7031C84.192 34.9244 81.8563 35.7544 79.4671 35.7544C76.6601 35.7544 74.3798 34.9001 72.6217 33.1833C70.8636 31.4702 70 29.2095 70 26.3767C70 23.6492 70.8373 21.4155 72.491 19.6502C74.1428 17.8831 76.4522 17 79.3908 17C81.7492 17 83.6145 17.6232 84.9775 18.8435L83.5336 21.2077C82.3013 20.4029 80.9119 19.9883 79.3908 19.9883C77.659 19.9883 76.216 20.5594 75.0882 21.7275C73.9585 22.8975 73.4091 24.4298 73.4091 26.3767C73.4091 28.2733 73.9884 29.8084 75.1663 30.9999C76.3468 32.1708 77.8942 32.7661 79.7559 32.7661C81.3841 32.7661 82.8271 32.2742 84.1094 31.3138L85.3444 33.7031Z" fill="#3C3C3B"/>
<path d="M92.4265 35.4683H89.5932V17.284H92.8188V30.2201L102.447 17.284H105.28V35.4683H102.053V22.5574L92.4265 35.4683Z" fill="#3C3C3B"/>
<path d="M125.399 33.7031C124.245 34.9244 121.912 35.7544 119.523 35.7544C116.716 35.7544 114.433 34.9001 112.675 33.1833C110.919 31.4702 110.056 29.2095 110.056 26.3767C110.056 23.6492 110.892 21.4155 112.546 19.6502C114.199 17.8831 116.506 17 119.445 17C121.805 17 123.669 17.6232 125.033 18.8435L123.59 21.2077C122.357 20.4029 120.966 19.9883 119.445 19.9883C117.712 19.9883 116.272 20.5594 115.143 21.7275C114.014 22.8975 113.463 24.4298 113.463 26.3767C113.463 28.2733 114.04 29.8084 115.22 30.9999C116.401 32.1708 117.951 32.7661 119.813 32.7661C121.436 32.7661 122.881 32.2742 124.166 31.3138L125.399 33.7031Z" fill="#3C3C3B"/>
<path d="M127.366 20.2731V17.2849H142.501V20.2731H136.548V35.4673H133.321V20.2731H127.366Z" fill="#3C3C3B"/>
<path d="M146.356 35.4683V17.284H156.979V20.2714H149.582V24.7912H156.193V27.7768H149.582V32.4791H157.242V35.4683H146.356Z" fill="#3C3C3B"/>
<path d="M162.489 35.4683V17.284H165.744L172.013 25.7777L177.992 17.284H181.037V35.4683H177.835V22.3227L172.039 30.4008H171.566L165.716 22.4018V35.4683H162.489Z" fill="#3C3C3B"/>
<path d="M184.812 35.4683L192.577 17.2319H195.409L203.173 35.4683H199.738L197.824 30.8181H189.98L188.066 35.4683H184.812ZM193.915 21.3613L191.212 27.8298H196.589L193.915 21.3613Z" fill="#3C3C3B"/>
</svg>
