<svg width="66" height="66" viewBox="0 0 66 66" fill="none" xmlns="http://www.w3.org/2000/svg">
<g clip-path="url(#clip0_265_1594)">
<path d="M56.713 39.0466L60.5392 33.7757C60.9599 33.1938 60.9643 32.4075 60.5398 31.8227L56.7177 26.5553L57.3947 20.0761C57.4696 19.3603 57.0741 18.6801 56.4168 18.3871L50.4671 15.7338L47.8206 9.78764C47.5295 9.12853 46.8304 8.73487 46.1322 8.81256L39.6503 9.49309L34.3794 5.66685C33.7952 5.2421 33.0136 5.24587 32.4297 5.66709L27.1614 9.49247L20.6822 8.81547C19.9696 8.74145 19.2862 9.13601 18.994 9.79015L16.3407 15.7398L10.3937 18.3896C9.7378 18.6815 9.34523 19.3637 9.41862 20.078L10.0968 26.5558L6.27057 31.8267C5.84667 32.4077 5.84872 33.1957 6.2708 33.7764L10.097 39.0415L9.42004 45.5207C9.34516 46.2365 9.73652 46.919 10.3939 47.2121L16.3435 49.8654L18.9941 55.8092C19.2875 56.4723 19.9706 56.8617 20.6858 56.7851L27.1595 56.1093L32.4304 59.9355C32.5975 60.056 32.7806 60.1428 32.9763 60.1952C33.4479 60.3216 33.969 60.2377 34.3842 59.9329L39.6484 56.1099L46.1276 56.7869C46.8434 56.8618 47.5268 56.4672 47.8198 55.8099L50.4731 49.8602L56.4161 47.2128C57.0761 46.9186 57.4646 46.2387 57.3912 45.5244L56.713 39.0466Z" fill="#207BFF"/>
</g>
<defs>
<clipPath id="clip0_265_1594">
<rect width="53.1468" height="53.1468" fill="white" transform="translate(14.439 0.0776367) rotate(15)"/>
</clipPath>
</defs>
</svg>
