<svg width="92" height="91" viewBox="0 0 92 91" fill="none" xmlns="http://www.w3.org/2000/svg">
<g clip-path="url(#clip0_89_663)">
<path d="M64.853 11.8741C64.4573 10.0587 63.224 8.68705 61.6979 8.38715C49.3917 5.96673 37.0093 5.96673 24.7031 8.38715C23.177 8.68705 21.9455 10.0587 21.548 11.8741C20.3591 17.3094 19.7646 22.7589 19.7646 28.2083H27.6204C27.6204 24.2867 28.0143 20.365 28.804 16.4523C29.0684 15.1445 29.8882 14.1578 30.9032 13.9431C39.0854 12.2006 47.3174 12.2006 55.4978 13.9431C56.5128 14.1578 57.3326 15.1445 57.597 16.4523C58.3867 20.365 58.7824 24.2867 58.7824 28.2083H66.6364C66.6364 22.7589 66.0419 17.3094 64.853 11.8741Z" fill="url(#paint0_linear_89_663)"/>
<path d="M61.6995 8.38716C56.1843 7.3024 50.6541 6.70546 45.1221 6.59296V12.6692C48.5854 12.7838 52.0469 13.2076 55.4994 13.9431C56.5144 14.1578 57.3342 15.1445 57.5986 16.4523C58.3883 20.365 58.784 24.2867 58.784 28.2083H66.6379C66.6379 22.7589 66.0435 17.3094 64.8545 11.8741C64.4588 10.0587 63.2255 8.68705 61.6995 8.38716Z" fill="url(#paint1_linear_89_663)"/>
<path d="M61.6995 8.38716C56.1843 7.3024 50.6541 6.70546 45.1221 6.59296V12.6692C48.5854 12.7838 52.0469 13.2076 55.4994 13.9431C56.5144 14.1578 57.3342 15.1445 57.5986 16.4523C58.3883 20.365 58.784 24.2867 58.784 28.2083H66.6379C66.6379 22.7589 66.0435 17.3094 64.8545 11.8741C64.4588 10.0587 63.2255 8.68705 61.6995 8.38716Z" fill="url(#paint2_linear_89_663)"/>
<path d="M57.599 16.4522C58.3886 20.365 58.7843 24.2867 58.7843 28.2083H66.6383C66.6383 23.7378 66.2374 19.2671 65.4373 14.8044H56.8438C57.202 15.2394 57.4684 15.8063 57.599 16.4522Z" fill="url(#paint3_linear_89_663)"/>
<path d="M28.8054 16.4522C28.936 15.8063 29.2024 15.2394 29.5607 14.8044H20.9671C20.167 19.2671 19.7661 23.7378 19.7661 28.2083H27.6218C27.6218 24.2867 28.0158 20.365 28.8054 16.4522Z" fill="url(#paint4_linear_89_663)"/>
<path d="M29.1032 28.9257C25.1698 29.499 21.2123 29.499 17.2789 28.9257C16.7911 28.8545 16.397 28.5298 16.2701 28.0998C15.5103 25.5247 15.5101 22.9355 16.2701 20.3602C16.397 19.9302 16.7911 19.6053 17.2789 19.5343C21.2123 18.961 25.1698 18.961 29.1032 19.5343C29.591 19.6055 29.9851 19.9302 30.112 20.3602C30.872 22.9355 30.8718 25.5247 30.112 28.0998C29.9851 28.5298 29.591 28.8545 29.1032 28.9257Z" fill="url(#paint5_linear_89_663)"/>
<path d="M29.1032 28.9257C25.1698 29.499 21.2123 29.499 17.2789 28.9257C16.7911 28.8545 16.397 28.5298 16.2701 28.0998C15.5103 25.5247 15.5101 22.9355 16.2701 20.3602C16.397 19.9302 16.7911 19.6053 17.2789 19.5343C21.2123 18.961 25.1698 18.961 29.1032 19.5343C29.591 19.6055 29.9851 19.9302 30.112 20.3602C30.872 22.9355 30.8718 25.5247 30.112 28.0998C29.9851 28.5298 29.591 28.8545 29.1032 28.9257Z" fill="url(#paint6_linear_89_663)"/>
<path d="M30.1129 20.3599C29.986 19.9299 29.5919 19.605 29.1041 19.5341C26.7667 19.1933 24.4206 19.0551 22.0762 19.1194C23.6768 19.1632 25.2767 19.3014 26.8727 19.5341C27.3605 19.6052 27.7546 19.9299 27.8815 20.3599C28.6415 22.9352 28.6413 25.5244 27.8815 28.0996C27.7546 28.5295 27.3605 28.8544 26.8727 28.9254C25.2768 29.1581 23.677 29.2963 22.0762 29.3401C24.4205 29.4044 26.7665 29.2661 29.1039 28.9254C29.5917 28.8543 29.9858 28.5295 30.1127 28.0996C30.8729 25.5244 30.8729 22.9352 30.1129 20.3599Z" fill="url(#paint7_linear_89_663)"/>
<path d="M29.1038 19.5341C28.2759 19.4134 27.4473 19.3186 26.6177 19.2489V19.498C26.7025 19.5099 26.7875 19.5218 26.8723 19.5342C27.3601 19.6054 27.7542 19.9301 27.8811 20.3601C28.6411 22.9354 28.641 25.5246 27.8811 28.0998C27.7542 28.5297 27.3601 28.8546 26.8723 28.9256C26.7875 28.938 26.7025 28.9499 26.6177 28.9618V29.211C27.4471 29.141 28.2759 29.0465 29.1038 28.9258C29.5916 28.8546 29.9857 28.5299 30.1126 28.0999C30.8724 25.5248 30.8726 22.9356 30.1126 20.3603C29.9857 19.93 29.5916 19.6052 29.1038 19.5341Z" fill="url(#paint8_linear_89_663)"/>
<path d="M16.27 28.0998C16.3969 28.5297 16.791 28.8546 17.2788 28.9256C21.2122 29.499 25.1697 29.499 29.103 28.9256C29.5908 28.8545 29.9849 28.5297 30.1118 28.0998C30.4917 26.8122 30.6818 25.521 30.6818 24.2299H15.7002C15.7002 25.5209 15.8901 26.812 16.27 28.0998Z" fill="url(#paint9_linear_89_663)"/>
<path d="M69.1237 28.9257C65.1903 29.499 61.2328 29.499 57.2995 28.9257C56.8116 28.8545 56.4175 28.5298 56.2907 28.0998C55.5308 25.5247 55.5306 22.9355 56.2907 20.3602C56.4175 19.9302 56.8116 19.6053 57.2995 19.5343C61.2328 18.961 65.1903 18.961 69.1237 19.5343C69.6115 19.6055 70.0056 19.9302 70.1325 20.3602C70.8925 22.9355 70.8923 25.5247 70.1325 28.0998C70.0054 28.5298 69.6113 28.8545 69.1237 28.9257Z" fill="url(#paint10_linear_89_663)"/>
<path d="M69.1237 28.9257C65.1903 29.499 61.2328 29.499 57.2995 28.9257C56.8116 28.8545 56.4175 28.5298 56.2907 28.0998C55.5308 25.5247 55.5306 22.9355 56.2907 20.3602C56.4175 19.9302 56.8116 19.6053 57.2995 19.5343C61.2328 18.961 65.1903 18.961 69.1237 19.5343C69.6115 19.6055 70.0056 19.9302 70.1325 20.3602C70.8925 22.9355 70.8923 25.5247 70.1325 28.0998C70.0054 28.5298 69.6113 28.8545 69.1237 28.9257Z" fill="url(#paint11_linear_89_663)"/>
<path d="M70.1334 20.3599C70.0065 19.9299 69.6124 19.605 69.1246 19.5341C66.7872 19.1933 64.4412 19.0551 62.0967 19.1194C63.6973 19.1632 65.2972 19.3014 66.8932 19.5341C67.381 19.6052 67.7751 19.9299 67.902 20.3599C68.662 22.9352 68.6618 25.5244 67.902 28.0996C67.7751 28.5295 67.381 28.8544 66.8932 28.9254C65.2973 29.1581 63.6975 29.2963 62.0967 29.3401C64.441 29.4044 66.787 29.2661 69.1244 28.9254C69.6122 28.8543 70.0063 28.5295 70.1332 28.0996C70.8932 25.5244 70.8932 22.9352 70.1334 20.3599Z" fill="url(#paint12_linear_89_663)"/>
<path d="M69.1243 19.5341C68.2965 19.4134 67.4678 19.3186 66.6382 19.2489V19.498C66.723 19.5099 66.808 19.5218 66.8928 19.5342C67.3806 19.6054 67.7748 19.9301 67.9016 20.3601C68.6616 22.9354 68.6615 25.5246 67.9016 28.0998C67.7748 28.5297 67.3806 28.8546 66.8928 28.9256C66.808 28.938 66.723 28.9499 66.6382 28.9618V29.211C67.4676 29.141 68.2965 29.0465 69.1243 28.9258C69.6121 28.8546 70.0062 28.5299 70.1331 28.0999C70.8929 25.5248 70.8931 22.9356 70.1331 20.3603C70.006 19.93 69.6119 19.6052 69.1243 19.5341Z" fill="url(#paint13_linear_89_663)"/>
<path d="M56.2907 28.0998C56.4176 28.5297 56.8117 28.8546 57.2995 28.9256C61.2328 29.499 65.1903 29.499 69.1237 28.9256C69.6115 28.8545 70.0056 28.5297 70.1325 28.0998C70.5124 26.8122 70.7025 25.521 70.7025 24.2299H55.7207C55.7207 25.5209 55.9106 26.812 56.2907 28.0998Z" fill="url(#paint14_linear_89_663)"/>
<path d="M83.5644 85.9362H74.0454V23.6881H83.5644C87.713 23.6881 91.0762 27.0513 91.0762 31.1999V78.4242C91.0762 82.573 87.713 85.9362 83.5644 85.9362Z" fill="url(#paint15_linear_89_663)"/>
<path d="M74.0454 48.9831V85.9362H83.5644C87.713 85.9362 91.0762 82.573 91.0762 78.4244V48.9831H74.0454Z" fill="url(#paint16_linear_89_663)"/>
<path d="M83.5644 23.6881H74.0454V85.9361H83.5644C87.713 85.9361 91.0762 82.5728 91.0762 78.4242V31.2001C91.0762 27.0513 87.713 23.6881 83.5644 23.6881Z" fill="url(#paint17_linear_89_663)"/>
<path d="M83.5644 23.6881H74.0454V85.9361H83.5644C87.713 85.9361 91.0762 82.5728 91.0762 78.4242V31.2001C91.0762 27.0513 87.713 23.6881 83.5644 23.6881Z" fill="url(#paint18_linear_89_663)"/>
<path d="M77.0755 85.9364H9.33116C5.18255 85.9364 1.81934 82.5732 1.81934 78.4246V31.2003C1.81934 27.0517 5.18255 23.6885 9.33116 23.6885H77.0756C81.2243 23.6885 84.5875 27.0517 84.5875 31.2003V78.4246C84.5875 82.5732 81.2243 85.9364 77.0755 85.9364Z" fill="url(#paint19_linear_89_663)"/>
<path d="M1.81934 48.9831V78.4242C1.81934 82.5728 5.18255 85.936 9.33116 85.936H77.0756C81.2243 85.936 84.5875 82.5728 84.5875 78.4242V48.9831H1.81934Z" fill="url(#paint20_linear_89_663)"/>
<path d="M1.81934 48.9831V78.4242C1.81934 82.5728 5.18255 85.936 9.33116 85.936H77.0756C81.2243 85.936 84.5875 82.5728 84.5875 78.4242V48.9831H1.81934Z" fill="url(#paint21_linear_89_663)"/>
<path d="M80.2188 61.4509H5.99653C2.80669 61.4509 0.220703 58.8651 0.220703 55.6753V29.3853C0.220703 25.0955 3.69837 21.6178 7.98823 21.6178H83.3079C87.5977 21.6178 91.0754 25.0955 91.0754 29.3853V33.2058C91.0754 32.6055 90.8628 32.0245 90.4753 31.566C88.9473 29.7582 85.9948 30.8386 85.9948 33.2058V55.6751C85.9947 58.8651 83.4087 61.4509 80.2188 61.4509Z" fill="url(#paint22_linear_89_663)"/>
<path d="M83.3078 21.618H68.6733V61.451H80.219C83.4088 61.451 85.9948 58.865 85.9948 55.6751V33.2058C85.9948 30.8387 88.9472 29.7582 90.4752 31.566C90.8628 32.0246 91.0754 32.6055 91.0754 33.2058V29.3853C91.0754 25.0955 87.5977 21.618 83.3078 21.618Z" fill="url(#paint23_linear_89_663)"/>
<path d="M25.8035 56.9421L11.3057 65.5788L31.6631 85.9363H54.7977L25.8035 56.9421Z" fill="url(#paint24_linear_89_663)"/>
<path d="M84.5869 78.4243V72.1235L69.4055 56.9421L54.9263 65.5813L75.2812 85.9361H77.0753C81.2237 85.9363 84.5869 82.5731 84.5869 78.4243Z" fill="url(#paint25_linear_89_663)"/>
<path d="M24.9316 65.8955C20.6464 66.4689 16.3349 66.4689 12.0496 65.8955C11.5182 65.8244 11.0889 65.4996 10.9505 65.0697C10.1227 62.4945 10.1225 59.9053 10.9505 57.3298C11.0887 56.8999 11.5182 56.575 12.0496 56.504C16.3349 55.9306 20.6464 55.9306 24.9316 56.504C25.4631 56.5751 25.8924 56.8999 26.0308 57.3298C26.8588 59.9052 26.8586 62.4943 26.0308 65.0695C25.8924 65.4996 25.4629 65.8244 24.9316 65.8955Z" fill="url(#paint26_linear_89_663)"/>
<path d="M19.7015 58.7294L19.3683 58.7979C17.6603 59.1494 15.8986 59.1494 14.1905 58.7979L13.8572 58.7294C13.1302 58.5798 12.6308 59.4417 13.1224 59.998L16.2003 63.4815C16.5078 63.8297 17.0508 63.8297 17.3585 63.4815L20.4364 59.998C20.9277 59.4415 20.4285 58.5797 19.7015 58.7294Z" fill="url(#paint27_linear_89_663)"/>
<path d="M26.0311 57.3298C25.8929 56.8999 25.4635 56.5749 24.932 56.504C22.3854 56.1633 19.8296 56.025 17.2754 56.0893C19.0192 56.1331 20.7623 56.2713 22.5009 56.504C23.0324 56.5751 23.4617 56.8999 23.6001 57.3298C24.4281 59.9051 24.4279 62.4943 23.6001 65.0695C23.4618 65.4994 23.0324 65.8244 22.5009 65.8953C20.7623 66.128 19.0194 66.2662 17.2756 66.31C19.8296 66.3743 22.3856 66.236 24.932 65.8953C25.4635 65.8242 25.8927 65.4994 26.0311 65.0695C26.8591 62.4943 26.8591 59.9051 26.0311 57.3298Z" fill="url(#paint28_linear_89_663)"/>
<path d="M24.9325 56.504C24.0307 56.3833 23.1277 56.2885 22.2241 56.2188V56.4679C22.3166 56.4798 22.409 56.4917 22.5015 56.5042C23.0329 56.5753 23.4622 56.9 23.6006 57.33C24.4286 59.9053 24.4284 62.4945 23.6006 65.0697C23.4624 65.4996 23.0329 65.8246 22.5015 65.8955C22.409 65.908 22.3166 65.9198 22.2241 65.9317V66.1809C23.1277 66.111 24.0307 66.0164 24.9325 65.8957C25.464 65.8245 25.8933 65.4998 26.0317 65.0699C26.8595 62.4947 26.8597 59.9055 26.0317 57.3302C25.8933 56.8999 25.4638 56.5751 24.9325 56.504Z" fill="url(#paint29_linear_89_663)"/>
<path d="M10.951 65.0697C11.0892 65.4996 11.5186 65.8245 12.0501 65.8955C16.3353 66.4689 20.6469 66.4689 24.9321 65.8955C25.4636 65.8244 25.8928 65.4996 26.0312 65.0697C26.4452 63.7821 26.6521 62.491 26.6521 61.1998H10.3301C10.3301 62.4908 10.5372 63.7819 10.951 65.0697Z" fill="url(#paint30_linear_89_663)"/>
<path d="M68.5327 65.8955C64.2475 66.4689 59.936 66.4689 55.6507 65.8955C55.1192 65.8244 54.69 65.4996 54.5516 65.0697C53.7238 62.4945 53.7236 59.9053 54.5516 57.3298C54.6898 56.8999 55.1192 56.575 55.6507 56.504C59.9358 55.9306 64.2475 55.9306 68.5327 56.504C69.0642 56.5751 69.4934 56.8999 69.6318 57.3298C70.4598 59.9052 70.4596 62.4943 69.6318 65.0695C69.4934 65.4996 69.064 65.8244 68.5327 65.8955Z" fill="url(#paint31_linear_89_663)"/>
<path d="M63.3021 58.7294L62.9689 58.7979C61.2609 59.1494 59.4992 59.1494 57.791 58.7979L57.4578 58.7294C56.7308 58.5798 56.2314 59.4417 56.723 59.998L59.8008 63.4815C60.1084 63.8297 60.6514 63.8297 60.9591 63.4815L64.0369 59.998C64.5283 59.4415 64.0291 58.5797 63.3021 58.7294Z" fill="url(#paint32_linear_89_663)"/>
<path d="M69.6317 57.3298C69.4935 56.8999 69.0641 56.5749 68.5326 56.504C65.986 56.1633 63.4302 56.025 60.876 56.0893C62.6198 56.1331 64.3629 56.2713 66.1015 56.504C66.633 56.5751 67.0622 56.8999 67.2007 57.3298C68.0286 59.9051 68.0285 62.4943 67.2007 65.0695C67.0624 65.4994 66.633 65.8244 66.1015 65.8953C64.3629 66.128 62.62 66.2662 60.876 66.31C63.43 66.3743 65.986 66.236 68.5324 65.8953C69.0639 65.8242 69.4931 65.4994 69.6315 65.0695C70.4597 62.4943 70.4597 59.9051 69.6317 57.3298Z" fill="url(#paint33_linear_89_663)"/>
<path d="M68.5331 56.504C67.6313 56.3833 66.7283 56.2885 65.8247 56.2188V56.4679C65.9172 56.4798 66.0096 56.4917 66.1021 56.5042C66.6335 56.5753 67.0628 56.9 67.2012 57.33C68.0292 59.9053 68.029 62.4945 67.2012 65.0697C67.063 65.4996 66.6335 65.8246 66.1021 65.8955C66.0096 65.908 65.9172 65.9198 65.8247 65.9317V66.1809C66.7283 66.111 67.6313 66.0164 68.5331 65.8957C69.0646 65.8245 69.4938 65.4998 69.6323 65.0699C70.4601 62.4947 70.4602 59.9055 69.6323 57.3302C69.4938 56.8999 69.0644 56.5751 68.5331 56.504Z" fill="url(#paint34_linear_89_663)"/>
<path d="M54.5514 65.0697C54.6896 65.4996 55.1191 65.8245 55.6505 65.8955C59.9358 66.4689 64.2473 66.4689 68.5325 65.8955C69.064 65.8244 69.4932 65.4996 69.6316 65.0697C70.0456 63.7821 70.2525 62.491 70.2525 61.1998H53.9307C53.9305 62.4908 54.1376 63.7819 54.5514 65.0697Z" fill="url(#paint35_linear_89_663)"/>
<path d="M31.0021 14.9137C39.1285 13.862 47.2768 13.862 55.4031 14.9137C56.2728 15.0262 57.0429 14.3496 57.0429 13.4728V7.25588C57.0429 6.52425 56.4991 5.90921 55.7738 5.8125C47.401 4.6958 39.0042 4.6958 30.6314 5.8125C29.9062 5.90921 29.3623 6.52407 29.3623 7.25588V13.4728C29.3621 14.3496 30.1324 15.0262 31.0021 14.9137Z" fill="url(#paint36_linear_89_663)"/>
<path d="M31.0021 14.9137C39.1285 13.862 47.2768 13.862 55.4031 14.9137C56.2728 15.0262 57.0429 14.3496 57.0429 13.4728V7.25588C57.0429 6.52425 56.4991 5.90921 55.7738 5.8125C47.401 4.6958 39.0042 4.6958 30.6314 5.8125C29.9062 5.90921 29.3623 6.52407 29.3623 7.25588V13.4728C29.3621 14.3496 30.1324 15.0262 31.0021 14.9137Z" fill="url(#paint37_linear_89_663)"/>
<path d="M55.7743 5.81249C52.5287 5.37969 49.2798 5.11671 46.0298 5.01929V14.1686C49.1559 14.2621 52.2814 14.5095 55.4036 14.9136C56.2733 15.0261 57.0434 14.3494 57.0434 13.4727V7.25587C57.0434 6.52424 56.4995 5.9092 55.7743 5.81249Z" fill="url(#paint38_linear_89_663)"/>
</g>
<defs>
<linearGradient id="paint0_linear_89_663" x1="40.7031" y1="7.58969" x2="43.6125" y2="28.5886" gradientUnits="userSpaceOnUse">
<stop stop-color="#EAF9FA"/>
<stop offset="1" stop-color="#B3DAFE"/>
</linearGradient>
<linearGradient id="paint1_linear_89_663" x1="60.153" y1="16.8528" x2="65.0865" y2="16.2203" gradientUnits="userSpaceOnUse">
<stop stop-color="#7BACDF" stop-opacity="0"/>
<stop offset="1" stop-color="#7BACDF"/>
</linearGradient>
<linearGradient id="paint2_linear_89_663" x1="60.5718" y1="18.3936" x2="53.3613" y2="15.9902" gradientUnits="userSpaceOnUse">
<stop stop-color="#7BACDF" stop-opacity="0"/>
<stop offset="1" stop-color="#7BACDF"/>
</linearGradient>
<linearGradient id="paint3_linear_89_663" x1="61.741" y1="16.2466" x2="61.741" y2="19.726" gradientUnits="userSpaceOnUse">
<stop stop-color="#7BACDF" stop-opacity="0"/>
<stop offset="1" stop-color="#7BACDF"/>
</linearGradient>
<linearGradient id="paint4_linear_89_663" x1="24.6634" y1="16.2466" x2="24.6634" y2="19.726" gradientUnits="userSpaceOnUse">
<stop stop-color="#7BACDF" stop-opacity="0"/>
<stop offset="1" stop-color="#7BACDF"/>
</linearGradient>
<linearGradient id="paint5_linear_89_663" x1="20.5866" y1="19.8945" x2="25.7838" y2="28.5456" gradientUnits="userSpaceOnUse">
<stop stop-color="#FEF0AE"/>
<stop offset="1" stop-color="#FBC56D"/>
</linearGradient>
<linearGradient id="paint6_linear_89_663" x1="23.1911" y1="19.6623" x2="23.1911" y2="21.9427" gradientUnits="userSpaceOnUse">
<stop stop-color="#DC8758" stop-opacity="0"/>
<stop offset="0.2153" stop-color="#DD8654" stop-opacity="0.215"/>
<stop offset="0.4291" stop-color="#E28448" stop-opacity="0.429"/>
<stop offset="0.6424" stop-color="#EA8034" stop-opacity="0.642"/>
<stop offset="0.8543" stop-color="#F47B18" stop-opacity="0.854"/>
<stop offset="1" stop-color="#FE7701"/>
</linearGradient>
<linearGradient id="paint7_linear_89_663" x1="17.2256" y1="16.3417" x2="33.2442" y2="31.5265" gradientUnits="userSpaceOnUse">
<stop stop-color="#DC8758" stop-opacity="0"/>
<stop offset="0.2153" stop-color="#DD8654" stop-opacity="0.215"/>
<stop offset="0.4291" stop-color="#E28448" stop-opacity="0.429"/>
<stop offset="0.6424" stop-color="#EA8034" stop-opacity="0.642"/>
<stop offset="0.8543" stop-color="#F47B18" stop-opacity="0.854"/>
<stop offset="1" stop-color="#FE7701"/>
</linearGradient>
<linearGradient id="paint8_linear_89_663" x1="28.6864" y1="24.2298" x2="30.4071" y2="24.2298" gradientUnits="userSpaceOnUse">
<stop stop-color="#DC8758" stop-opacity="0"/>
<stop offset="0.2153" stop-color="#DD8654" stop-opacity="0.215"/>
<stop offset="0.4291" stop-color="#E28448" stop-opacity="0.429"/>
<stop offset="0.6424" stop-color="#EA8034" stop-opacity="0.642"/>
<stop offset="0.8543" stop-color="#F47B18" stop-opacity="0.854"/>
<stop offset="1" stop-color="#FE7701"/>
</linearGradient>
<linearGradient id="paint9_linear_89_663" x1="23.1909" y1="26.4294" x2="23.1909" y2="29.4225" gradientUnits="userSpaceOnUse">
<stop stop-color="#DC8758" stop-opacity="0"/>
<stop offset="0.2153" stop-color="#DD8654" stop-opacity="0.215"/>
<stop offset="0.4291" stop-color="#E28448" stop-opacity="0.429"/>
<stop offset="0.6424" stop-color="#EA8034" stop-opacity="0.642"/>
<stop offset="0.8543" stop-color="#F47B18" stop-opacity="0.854"/>
<stop offset="1" stop-color="#FE7701"/>
</linearGradient>
<linearGradient id="paint10_linear_89_663" x1="60.607" y1="19.8945" x2="65.8043" y2="28.5456" gradientUnits="userSpaceOnUse">
<stop stop-color="#FEF0AE"/>
<stop offset="1" stop-color="#FBC56D"/>
</linearGradient>
<linearGradient id="paint11_linear_89_663" x1="63.2116" y1="19.6623" x2="63.2116" y2="21.9427" gradientUnits="userSpaceOnUse">
<stop stop-color="#DC8758" stop-opacity="0"/>
<stop offset="0.2153" stop-color="#DD8654" stop-opacity="0.215"/>
<stop offset="0.4291" stop-color="#E28448" stop-opacity="0.429"/>
<stop offset="0.6424" stop-color="#EA8034" stop-opacity="0.642"/>
<stop offset="0.8543" stop-color="#F47B18" stop-opacity="0.854"/>
<stop offset="1" stop-color="#FE7701"/>
</linearGradient>
<linearGradient id="paint12_linear_89_663" x1="57.2459" y1="16.3417" x2="73.2645" y2="31.5265" gradientUnits="userSpaceOnUse">
<stop stop-color="#DC8758" stop-opacity="0"/>
<stop offset="0.2153" stop-color="#DD8654" stop-opacity="0.215"/>
<stop offset="0.4291" stop-color="#E28448" stop-opacity="0.429"/>
<stop offset="0.6424" stop-color="#EA8034" stop-opacity="0.642"/>
<stop offset="0.8543" stop-color="#F47B18" stop-opacity="0.854"/>
<stop offset="1" stop-color="#FE7701"/>
</linearGradient>
<linearGradient id="paint13_linear_89_663" x1="68.7067" y1="24.2298" x2="70.4275" y2="24.2298" gradientUnits="userSpaceOnUse">
<stop stop-color="#DC8758" stop-opacity="0"/>
<stop offset="0.2153" stop-color="#DD8654" stop-opacity="0.215"/>
<stop offset="0.4291" stop-color="#E28448" stop-opacity="0.429"/>
<stop offset="0.6424" stop-color="#EA8034" stop-opacity="0.642"/>
<stop offset="0.8543" stop-color="#F47B18" stop-opacity="0.854"/>
<stop offset="1" stop-color="#FE7701"/>
</linearGradient>
<linearGradient id="paint14_linear_89_663" x1="63.2116" y1="26.4294" x2="63.2116" y2="29.4225" gradientUnits="userSpaceOnUse">
<stop stop-color="#DC8758" stop-opacity="0"/>
<stop offset="0.2153" stop-color="#DD8654" stop-opacity="0.215"/>
<stop offset="0.4291" stop-color="#E28448" stop-opacity="0.429"/>
<stop offset="0.6424" stop-color="#EA8034" stop-opacity="0.642"/>
<stop offset="0.8543" stop-color="#F47B18" stop-opacity="0.854"/>
<stop offset="1" stop-color="#FE7701"/>
</linearGradient>
<linearGradient id="paint15_linear_89_663" x1="74.8186" y1="28.0379" x2="88.8455" y2="82.4818" gradientUnits="userSpaceOnUse">
<stop stop-color="#C86D36"/>
<stop offset="0.201" stop-color="#C46B35"/>
<stop offset="0.4143" stop-color="#B76233"/>
<stop offset="0.6334" stop-color="#A2552F"/>
<stop offset="0.8549" stop-color="#85422A"/>
<stop offset="1" stop-color="#6D3326"/>
</linearGradient>
<linearGradient id="paint16_linear_89_663" x1="82.5609" y1="79.9883" x2="82.5609" y2="85.4395" gradientUnits="userSpaceOnUse">
<stop stop-color="#3A0F13" stop-opacity="0"/>
<stop offset="0.2722" stop-color="#3E1215" stop-opacity="0.272"/>
<stop offset="0.5611" stop-color="#4B1B19" stop-opacity="0.561"/>
<stop offset="0.8568" stop-color="#602A21" stop-opacity="0.857"/>
<stop offset="1" stop-color="#6D3326"/>
</linearGradient>
<linearGradient id="paint17_linear_89_663" x1="32.6777" y1="14.1981" x2="115.033" y2="84.5937" gradientUnits="userSpaceOnUse">
<stop stop-color="#3A0F13" stop-opacity="0"/>
<stop offset="0.2722" stop-color="#3E1215" stop-opacity="0.272"/>
<stop offset="0.5611" stop-color="#4B1B19" stop-opacity="0.561"/>
<stop offset="0.8568" stop-color="#602A21" stop-opacity="0.857"/>
<stop offset="1" stop-color="#6D3326"/>
</linearGradient>
<linearGradient id="paint18_linear_89_663" x1="72.5657" y1="53.6185" x2="91.597" y2="57.0706" gradientUnits="userSpaceOnUse">
<stop stop-color="#3A0F13" stop-opacity="0"/>
<stop offset="0.2722" stop-color="#3E1215" stop-opacity="0.272"/>
<stop offset="0.5611" stop-color="#4B1B19" stop-opacity="0.561"/>
<stop offset="0.8568" stop-color="#602A21" stop-opacity="0.857"/>
<stop offset="1" stop-color="#6D3326"/>
</linearGradient>
<linearGradient id="paint19_linear_89_663" x1="34.8725" y1="22.4777" x2="52.1929" y2="89.7039" gradientUnits="userSpaceOnUse">
<stop stop-color="#C86D36"/>
<stop offset="0.201" stop-color="#C46B35"/>
<stop offset="0.4143" stop-color="#B76233"/>
<stop offset="0.6334" stop-color="#A2552F"/>
<stop offset="0.8549" stop-color="#85422A"/>
<stop offset="1" stop-color="#6D3326"/>
</linearGradient>
<linearGradient id="paint20_linear_89_663" x1="43.2034" y1="79.9883" x2="43.2034" y2="85.4395" gradientUnits="userSpaceOnUse">
<stop stop-color="#3A0F13" stop-opacity="0"/>
<stop offset="0.2722" stop-color="#3E1215" stop-opacity="0.272"/>
<stop offset="0.5611" stop-color="#4B1B19" stop-opacity="0.561"/>
<stop offset="0.8568" stop-color="#602A21" stop-opacity="0.857"/>
<stop offset="1" stop-color="#6D3326"/>
</linearGradient>
<linearGradient id="paint21_linear_89_663" x1="43.2034" y1="73.2682" x2="43.2034" y2="58.3095" gradientUnits="userSpaceOnUse">
<stop stop-color="#3A0F13" stop-opacity="0"/>
<stop offset="0.2722" stop-color="#3E1215" stop-opacity="0.272"/>
<stop offset="0.5611" stop-color="#4B1B19" stop-opacity="0.561"/>
<stop offset="0.8568" stop-color="#602A21" stop-opacity="0.857"/>
<stop offset="1" stop-color="#6D3326"/>
</linearGradient>
<linearGradient id="paint22_linear_89_663" x1="42.0558" y1="14.4273" x2="49.2257" y2="70.3928" gradientUnits="userSpaceOnUse">
<stop stop-color="#C86D36"/>
<stop offset="0.201" stop-color="#C46B35"/>
<stop offset="0.4143" stop-color="#B76233"/>
<stop offset="0.6334" stop-color="#A2552F"/>
<stop offset="0.8549" stop-color="#85422A"/>
<stop offset="1" stop-color="#6D3326"/>
</linearGradient>
<linearGradient id="paint23_linear_89_663" x1="81.7459" y1="41.5345" x2="91.851" y2="41.5345" gradientUnits="userSpaceOnUse">
<stop stop-color="#3A0F13" stop-opacity="0"/>
<stop offset="0.2722" stop-color="#3E1215" stop-opacity="0.272"/>
<stop offset="0.5611" stop-color="#4B1B19" stop-opacity="0.561"/>
<stop offset="0.8568" stop-color="#602A21" stop-opacity="0.857"/>
<stop offset="1" stop-color="#6D3326"/>
</linearGradient>
<linearGradient id="paint24_linear_89_663" x1="27.9617" y1="67.9128" x2="20.7934" y2="56.8653" gradientUnits="userSpaceOnUse">
<stop stop-color="#3A0F13" stop-opacity="0"/>
<stop offset="0.2722" stop-color="#3E1215" stop-opacity="0.272"/>
<stop offset="0.5611" stop-color="#4B1B19" stop-opacity="0.561"/>
<stop offset="0.8568" stop-color="#602A21" stop-opacity="0.857"/>
<stop offset="1" stop-color="#6D3326"/>
</linearGradient>
<linearGradient id="paint25_linear_89_663" x1="71.3486" y1="71.4366" x2="62.6202" y2="57.2688" gradientUnits="userSpaceOnUse">
<stop stop-color="#3A0F13" stop-opacity="0"/>
<stop offset="0.2722" stop-color="#3E1215" stop-opacity="0.272"/>
<stop offset="0.5611" stop-color="#4B1B19" stop-opacity="0.561"/>
<stop offset="0.8568" stop-color="#602A21" stop-opacity="0.857"/>
<stop offset="1" stop-color="#6D3326"/>
</linearGradient>
<linearGradient id="paint26_linear_89_663" x1="15.7788" y1="56.6855" x2="21.1903" y2="65.6936" gradientUnits="userSpaceOnUse">
<stop stop-color="#FEF0AE"/>
<stop offset="1" stop-color="#FBC56D"/>
</linearGradient>
<linearGradient id="paint27_linear_89_663" x1="16.7795" y1="62.4516" x2="16.7795" y2="58.3396" gradientUnits="userSpaceOnUse">
<stop stop-color="#FEF0AE"/>
<stop offset="1" stop-color="#FBC56D"/>
</linearGradient>
<linearGradient id="paint28_linear_89_663" x1="12.4244" y1="52.9826" x2="29.1113" y2="68.8009" gradientUnits="userSpaceOnUse">
<stop stop-color="#DC8758" stop-opacity="0"/>
<stop offset="0.2153" stop-color="#DD8654" stop-opacity="0.215"/>
<stop offset="0.4291" stop-color="#E28448" stop-opacity="0.429"/>
<stop offset="0.6424" stop-color="#EA8034" stop-opacity="0.642"/>
<stop offset="0.8543" stop-color="#F47B18" stop-opacity="0.854"/>
<stop offset="1" stop-color="#FE7701"/>
</linearGradient>
<linearGradient id="paint29_linear_89_663" x1="24.4777" y1="61.1997" x2="26.3523" y2="61.1997" gradientUnits="userSpaceOnUse">
<stop stop-color="#DC8758" stop-opacity="0"/>
<stop offset="0.2153" stop-color="#DD8654" stop-opacity="0.215"/>
<stop offset="0.4291" stop-color="#E28448" stop-opacity="0.429"/>
<stop offset="0.6424" stop-color="#EA8034" stop-opacity="0.642"/>
<stop offset="0.8543" stop-color="#F47B18" stop-opacity="0.854"/>
<stop offset="1" stop-color="#FE7701"/>
</linearGradient>
<linearGradient id="paint30_linear_89_663" x1="18.491" y1="63.3993" x2="18.491" y2="66.3924" gradientUnits="userSpaceOnUse">
<stop stop-color="#DC8758" stop-opacity="0"/>
<stop offset="0.2153" stop-color="#DD8654" stop-opacity="0.215"/>
<stop offset="0.4291" stop-color="#E28448" stop-opacity="0.429"/>
<stop offset="0.6424" stop-color="#EA8034" stop-opacity="0.642"/>
<stop offset="0.8543" stop-color="#F47B18" stop-opacity="0.854"/>
<stop offset="1" stop-color="#FE7701"/>
</linearGradient>
<linearGradient id="paint31_linear_89_663" x1="59.3798" y1="56.6855" x2="64.7914" y2="65.6936" gradientUnits="userSpaceOnUse">
<stop stop-color="#FEF0AE"/>
<stop offset="1" stop-color="#FBC56D"/>
</linearGradient>
<linearGradient id="paint32_linear_89_663" x1="60.38" y1="62.4516" x2="60.38" y2="58.3396" gradientUnits="userSpaceOnUse">
<stop stop-color="#FEF0AE"/>
<stop offset="1" stop-color="#FBC56D"/>
</linearGradient>
<linearGradient id="paint33_linear_89_663" x1="56.025" y1="52.9826" x2="72.7119" y2="68.8009" gradientUnits="userSpaceOnUse">
<stop stop-color="#DC8758" stop-opacity="0"/>
<stop offset="0.2153" stop-color="#DD8654" stop-opacity="0.215"/>
<stop offset="0.4291" stop-color="#E28448" stop-opacity="0.429"/>
<stop offset="0.6424" stop-color="#EA8034" stop-opacity="0.642"/>
<stop offset="0.8543" stop-color="#F47B18" stop-opacity="0.854"/>
<stop offset="1" stop-color="#FE7701"/>
</linearGradient>
<linearGradient id="paint34_linear_89_663" x1="68.0783" y1="61.1997" x2="69.9529" y2="61.1997" gradientUnits="userSpaceOnUse">
<stop stop-color="#DC8758" stop-opacity="0"/>
<stop offset="0.2153" stop-color="#DD8654" stop-opacity="0.215"/>
<stop offset="0.4291" stop-color="#E28448" stop-opacity="0.429"/>
<stop offset="0.6424" stop-color="#EA8034" stop-opacity="0.642"/>
<stop offset="0.8543" stop-color="#F47B18" stop-opacity="0.854"/>
<stop offset="1" stop-color="#FE7701"/>
</linearGradient>
<linearGradient id="paint35_linear_89_663" x1="62.0914" y1="63.3993" x2="62.0914" y2="66.3924" gradientUnits="userSpaceOnUse">
<stop stop-color="#DC8758" stop-opacity="0"/>
<stop offset="0.2153" stop-color="#DD8654" stop-opacity="0.215"/>
<stop offset="0.4291" stop-color="#E28448" stop-opacity="0.429"/>
<stop offset="0.6424" stop-color="#EA8034" stop-opacity="0.642"/>
<stop offset="0.8543" stop-color="#F47B18" stop-opacity="0.854"/>
<stop offset="1" stop-color="#FE7701"/>
</linearGradient>
<linearGradient id="paint36_linear_89_663" x1="43.2025" y1="7.81804" x2="43.2025" y2="12.6252" gradientUnits="userSpaceOnUse">
<stop stop-color="#5A5A5A"/>
<stop offset="1" stop-color="#444444"/>
</linearGradient>
<linearGradient id="paint37_linear_89_663" x1="43.2025" y1="8.95656" x2="43.2025" y2="14.1447" gradientUnits="userSpaceOnUse">
<stop stop-color="#433F43" stop-opacity="0"/>
<stop offset="1" stop-color="#1A1A1A"/>
</linearGradient>
<linearGradient id="paint38_linear_89_663" x1="50.5042" y1="9.8793" x2="54.8052" y2="11.0178" gradientUnits="userSpaceOnUse">
<stop stop-color="#433F43" stop-opacity="0"/>
<stop offset="1" stop-color="#1A1A1A"/>
</linearGradient>
<clipPath id="clip0_89_663">
<rect width="90.8545" height="90.8545" fill="white" transform="translate(0.21875 0.0283203)"/>
</clipPath>
</defs>
</svg>
