<svg width="195" height="195" viewBox="0 0 195 195" fill="none" xmlns="http://www.w3.org/2000/svg">
<g clip-path="url(#clip0_381_1240)">
<path d="M177.573 149.804H17.2632V42.4582C17.2632 36.4104 22.1658 31.5073 28.2141 31.5073H166.622C172.67 31.5073 177.573 36.41 177.573 42.4582V149.804Z" fill="url(#paint0_linear_381_1240)"/>
<path d="M166.621 31.5073H120.473V149.804H177.572V42.4582C177.572 36.4104 172.669 31.5073 166.621 31.5073Z" fill="url(#paint1_linear_381_1240)"/>
<path d="M17.2632 97.0229H177.573V149.804H17.2632V97.0229Z" fill="url(#paint2_linear_381_1240)"/>
<path d="M169.841 45.6781V149.804H24.9951V45.6781C24.9951 42.5473 27.5354 40.0107 30.6625 40.0107H90.171C91.1599 40.0107 92.0719 40.4908 92.6844 41.2669C93.788 42.6646 95.4996 43.5619 97.4182 43.5619C99.3369 43.5619 101.048 42.6646 102.152 41.2669C102.765 40.4908 103.677 40.0107 104.665 40.0107H164.174C167.301 40.0107 169.841 42.5473 169.841 45.6781Z" fill="url(#paint3_linear_381_1240)"/>
<path d="M85.1058 40.0098H30.6635C27.5334 40.0098 24.9961 42.547 24.9961 45.6772V149.805H85.1058V40.0098Z" fill="url(#paint4_linear_381_1240)"/>
<path d="M24.9951 97.0234H169.841V149.803H24.9951V97.0234Z" fill="url(#paint5_linear_381_1240)"/>
<path d="M169.841 70.7511L152.238 53.1484L42.7852 131.938L60.6509 149.804H169.841V70.7511Z" fill="url(#paint6_linear_381_1240)"/>
<path d="M169.841 45.6781V89.5522H24.9951V45.6781C24.9951 42.5473 27.5354 40.0107 30.6625 40.0107H90.171C91.1599 40.0107 92.0719 40.4908 92.6844 41.2669C93.788 42.6646 95.4996 43.5619 97.4182 43.5619C99.3369 43.5619 101.048 42.6646 102.152 41.2669C102.765 40.4908 103.677 40.0107 104.665 40.0107H164.174C167.301 40.0107 169.841 42.5473 169.841 45.6781Z" fill="url(#paint7_linear_381_1240)"/>
<path d="M97.4194 40.1928C98.8872 40.1928 100.077 39.0029 100.077 37.5351C100.077 36.0673 98.8872 34.8774 97.4194 34.8774C95.9516 34.8774 94.7617 36.0673 94.7617 37.5351C94.7617 39.0029 95.9516 40.1928 97.4194 40.1928Z" fill="url(#paint8_linear_381_1240)"/>
<path d="M183.065 164.003H11.7667C7.07716 164.003 3.00473 160.774 1.93523 156.208L0.632524 150.648C-0.102307 147.511 2.27823 144.508 5.50036 144.508H189.331C192.553 144.508 194.934 147.511 194.199 150.648L192.896 156.208C191.827 160.774 187.755 164.003 183.065 164.003Z" fill="url(#paint9_linear_381_1240)"/>
<path d="M0.507324 149.62C0.515653 149.959 0.552754 150.302 0.633771 150.648L1.93648 156.208C3.00636 160.774 7.07841 164.003 11.7679 164.003H183.067C187.756 164.003 191.829 160.774 192.898 156.208L194.201 150.648C194.282 150.302 194.319 149.959 194.327 149.62H0.507324Z" fill="url(#paint10_linear_381_1240)"/>
<path d="M189.332 144.507H150.701V164.002H183.065C187.755 164.002 191.827 160.774 192.897 156.208L194.2 150.648C194.934 147.511 192.554 144.507 189.332 144.507Z" fill="url(#paint11_linear_381_1240)"/>
<path d="M79.7188 144.507C81.5208 144.517 82.9791 145.98 82.9791 147.785C82.9791 149.595 84.4469 151.063 86.2577 151.063H108.579C110.39 151.063 111.858 149.595 111.858 147.785C111.858 145.98 113.315 144.517 115.118 144.507H79.7188Z" fill="url(#paint12_linear_381_1240)"/>
<path d="M148.089 133.672H46.7558C43.7729 133.672 41.3545 131.254 41.3545 128.271V56.599C41.3545 53.6162 43.7725 51.1978 46.7558 51.1978H148.089C151.072 51.1978 153.491 53.6158 153.491 56.599V128.271C153.49 131.254 151.072 133.672 148.089 133.672Z" fill="url(#paint13_linear_381_1240)"/>
<path d="M133.785 129.19H61.0604C58.5098 129.19 56.252 127.525 55.4418 125.045C54.3318 121.648 51.3576 120.326 50.1303 119.916C47.744 119.119 46.1411 116.881 46.1411 114.35V70.5213C46.1411 67.9897 47.744 65.753 50.1303 64.9553C51.3576 64.5449 54.3325 63.2233 55.4422 59.8266C56.252 57.3469 58.5098 55.6812 61.0604 55.6812H133.785C136.336 55.6812 138.594 57.3469 139.404 59.8266C140.513 63.2237 143.488 64.5449 144.716 64.9553C147.102 65.7534 148.704 67.9904 148.704 70.5213V114.35C148.704 116.882 147.102 119.118 144.716 119.916C143.488 120.326 140.513 121.648 139.404 125.045C138.594 127.524 136.336 129.19 133.785 129.19ZM61.0604 58.7098C59.8235 58.7098 58.723 59.5367 58.3213 60.7674C57.2393 64.0797 54.604 66.6533 51.0907 67.828C49.9417 68.2123 49.1698 69.2947 49.1698 70.5213V114.35C49.1698 115.577 49.9417 116.66 51.0907 117.044C54.6032 118.218 57.2385 120.792 58.3209 124.104C58.723 125.335 59.8239 126.162 61.0604 126.162H133.785C135.022 126.162 136.123 125.335 136.524 124.104C137.607 120.791 140.242 118.218 143.755 117.044C144.904 116.659 145.676 115.577 145.676 114.35V70.5213C145.676 69.2947 144.904 68.2119 143.755 67.828C140.242 66.6529 137.607 64.0797 136.524 60.7674C136.122 59.5367 135.022 58.7098 133.785 58.7098H61.0604Z" fill="url(#paint14_linear_381_1240)"/>
<path d="M41.3545 96.0718V128.272C41.3545 131.255 43.7725 133.674 46.7558 133.674H148.089C151.072 133.674 153.491 131.255 153.491 128.272V96.0718H41.3545Z" fill="url(#paint15_linear_381_1240)"/>
<path d="M148.088 51.1978H97.4209V133.672H148.088C151.07 133.672 153.489 131.254 153.489 128.271V56.5986C153.489 53.6158 151.071 51.1978 148.088 51.1978Z" fill="url(#paint16_linear_381_1240)"/>
<path d="M87.9658 85.8905H71.7993C71.5261 85.8905 71.2717 85.7514 71.1242 85.5213C70.9768 85.2913 70.9567 85.002 71.0709 84.7537L79.1542 67.1834C79.285 66.8991 79.5694 66.7168 79.8824 66.7168C80.1954 66.7168 80.4799 66.8991 80.6107 67.1834L88.6939 84.7538C88.8081 85.002 88.788 85.2913 88.6406 85.5214C88.4932 85.7516 88.239 85.8905 87.9658 85.8905ZM73.0506 84.2871H86.7144L79.8825 69.4367L73.0506 84.2871Z" fill="url(#paint17_linear_381_1240)"/>
<path d="M85.2429 89.9506H74.5218C72.6937 89.9506 71.1057 88.6934 70.6863 86.9141L70.2121 84.9027C69.9581 83.8255 70.7754 82.793 71.8823 82.793H87.8826C88.9895 82.793 89.8068 83.8254 89.5528 84.9027L89.0786 86.9141C88.6591 88.6934 87.071 89.9506 85.2429 89.9506Z" fill="url(#paint18_linear_381_1240)"/>
<path d="M85.2429 89.9506H74.5218C72.6937 89.9506 71.1057 88.6934 70.6863 86.9141L70.2121 84.9027C69.9581 83.8255 70.7754 82.793 71.8823 82.793H87.8826C88.9895 82.793 89.8068 83.8254 89.5528 84.9027L89.0786 86.9141C88.6591 88.6934 87.071 89.9506 85.2429 89.9506Z" fill="url(#paint19_linear_381_1240)"/>
<path d="M87.8816 82.7935H76.9253V89.951H85.242C87.0701 89.951 88.6581 88.6938 89.0776 86.9144L89.5518 84.9031C89.8057 83.8258 88.9884 82.7935 87.8816 82.7935Z" fill="url(#paint20_linear_381_1240)"/>
<path d="M123.046 102.148H106.88C106.607 102.148 106.352 102.009 106.205 101.779C106.057 101.549 106.037 101.259 106.151 101.011L114.235 83.4407C114.366 83.1564 114.65 82.9741 114.963 82.9741C115.276 82.9741 115.56 83.1564 115.691 83.4407L123.775 101.011C123.889 101.259 123.869 101.549 123.721 101.779C123.574 102.009 123.32 102.148 123.046 102.148ZM108.131 100.545H121.795L114.963 85.694L108.131 100.545Z" fill="url(#paint21_linear_381_1240)"/>
<path d="M120.324 106.208H109.603C107.775 106.208 106.187 104.951 105.767 103.172L105.293 101.161C105.039 100.083 105.856 99.0508 106.963 99.0508H122.964C124.071 99.0508 124.888 100.083 124.634 101.161L124.16 103.172C123.74 104.951 122.152 106.208 120.324 106.208Z" fill="url(#paint22_linear_381_1240)"/>
<path d="M120.324 106.208H109.603C107.775 106.208 106.187 104.951 105.767 103.172L105.293 101.161C105.039 100.083 105.856 99.0508 106.963 99.0508H122.964C124.071 99.0508 124.888 100.083 124.634 101.161L124.16 103.172C123.74 104.951 122.152 106.208 120.324 106.208Z" fill="url(#paint23_linear_381_1240)"/>
<path d="M122.963 99.0508H112.006V106.208H120.323C122.151 106.208 123.739 104.951 124.159 103.172L124.633 101.16C124.887 100.083 124.069 99.0508 122.963 99.0508Z" fill="url(#paint24_linear_381_1240)"/>
<path d="M113.806 86.7485L78.8025 70.4261C77.4783 69.8087 76.9055 68.2346 77.5229 66.9104C78.1404 65.5862 79.7144 65.0134 81.0386 65.6308L116.042 81.9532C117.366 82.5707 117.939 84.1448 117.322 85.4689C116.704 86.7931 115.13 87.3661 113.806 86.7485Z" fill="url(#paint25_linear_381_1240)"/>
<path d="M97.0439 78.9307L109.573 84.7733V78.9353L97.0439 73.0928V78.9307Z" fill="url(#paint26_linear_381_1240)"/>
<path d="M106.487 114.349C101.14 105.097 98.7462 94.4313 99.6268 83.7811L100.424 74.1358C100.569 72.3812 99.1844 70.877 97.4238 70.877C95.6631 70.877 94.2781 72.3812 94.4232 74.1358L95.2208 83.7811C96.1014 94.4313 93.708 105.097 88.3608 114.349H106.487Z" fill="url(#paint27_linear_381_1240)"/>
<path d="M97.4231 70.877C95.6624 70.877 94.2774 72.3812 94.4226 74.1358L95.1586 83.0382H99.6875L100.424 74.1358C100.569 72.3812 99.1837 70.877 97.4231 70.877Z" fill="url(#paint28_linear_381_1240)"/>
<path d="M99.4497 87.8154C99.4571 86.4725 99.5157 85.1269 99.6269 83.7817L100.086 78.2285H94.7617L95.2209 83.7817C95.3322 85.1269 95.3908 86.4725 95.3982 87.8154H99.4497Z" fill="url(#paint29_linear_381_1240)"/>
<path d="M88.3608 114.35H106.487C101.969 106.533 99.5604 97.7079 99.4524 88.7354H95.395C95.2872 97.7079 92.8782 106.533 88.3608 114.35Z" fill="url(#paint30_linear_381_1240)"/>
<path d="M106.487 114.35V114.351H88.3618V114.35C91.3634 109.156 93.434 103.516 94.5168 97.6841H100.332C101.415 103.516 103.485 109.156 106.487 114.35Z" fill="url(#paint31_linear_381_1240)"/>
<path d="M100.635 103.165H94.211C92.0263 103.165 90.0123 104.332 88.9162 106.222C87.8463 108.067 86.6317 109.871 85.2739 111.623H109.572C108.214 109.87 107 108.067 105.93 106.222C104.834 104.333 102.82 103.165 100.635 103.165Z" fill="url(#paint32_linear_381_1240)"/>
<path d="M100.635 103.165H94.211C92.0263 103.165 90.0123 104.332 88.9162 106.222C87.8463 108.067 86.6317 109.871 85.2739 111.623H109.572C108.214 109.87 107 108.067 105.93 106.222C104.834 104.333 102.82 103.165 100.635 103.165Z" fill="url(#paint33_linear_381_1240)"/>
<path d="M105.638 107.066H89.2101C87.0254 107.066 85.0114 108.234 83.9153 110.124C82.8454 111.969 81.6307 113.772 80.2729 115.525H114.576C113.218 113.772 112.003 111.969 110.933 110.124C109.837 108.234 107.823 107.066 105.638 107.066Z" fill="url(#paint34_linear_381_1240)"/>
<path d="M105.638 107.066H89.2101C87.0254 107.066 85.0114 108.234 83.9153 110.124C82.8454 111.969 81.6307 113.772 80.2729 115.525H114.576C113.218 113.772 112.003 111.969 110.933 110.124C109.837 108.234 107.823 107.066 105.638 107.066Z" fill="url(#paint35_linear_381_1240)"/>
<path d="M97.4222 72.8443C99.7431 72.8443 101.625 70.9628 101.625 68.6419C101.625 66.321 99.7431 64.4395 97.4222 64.4395C95.1012 64.4395 93.2197 66.321 93.2197 68.6419C93.2197 70.9628 95.1012 72.8443 97.4222 72.8443Z" fill="url(#paint36_linear_381_1240)"/>
<path d="M116.414 113.954C115.571 113.393 114.827 112.7 114.201 111.903C113.442 110.936 112.262 110.314 110.936 110.314H83.9102C82.5845 110.314 81.4045 110.936 80.6448 111.903C80.0194 112.7 79.2752 113.393 78.432 113.954C77.2089 114.768 76.4028 116.159 76.4028 117.738C76.4028 118.41 76.948 118.955 77.6204 118.955H117.226C117.898 118.955 118.443 118.41 118.443 117.738C118.443 116.159 117.637 114.768 116.414 113.954Z" fill="url(#paint37_linear_381_1240)"/>
<path d="M116.414 113.954C115.571 113.393 114.827 112.7 114.202 111.903C113.442 110.936 112.262 110.314 110.936 110.314H91.1855V118.956H117.226C117.899 118.956 118.444 118.41 118.444 117.738C118.444 116.159 117.638 114.768 116.414 113.954Z" fill="url(#paint38_linear_381_1240)"/>
<path d="M114.201 111.904C113.441 110.936 112.261 110.314 110.936 110.314H83.91C82.5843 110.314 81.4043 110.936 80.6446 111.904C80.0192 112.7 79.275 113.394 78.4318 113.955C78.3915 113.982 78.3529 114.011 78.3135 114.039H116.532C116.493 114.011 116.454 113.982 116.414 113.955C115.571 113.394 114.826 112.7 114.201 111.904Z" fill="url(#paint39_linear_381_1240)"/>
<path d="M100.167 98.7171H94.6798C94.1091 98.7171 93.6465 98.2544 93.6465 97.6837C93.6465 97.113 94.1091 96.6504 94.6798 96.6504H100.167C100.738 96.6504 101.2 97.113 101.2 97.6837C101.2 98.2544 100.738 98.7171 100.167 98.7171Z" fill="url(#paint40_linear_381_1240)"/>
<path d="M100.167 79.1487H94.6798C94.1091 79.1487 93.6465 78.6861 93.6465 78.1154C93.6465 77.5447 94.1091 77.082 94.6798 77.082H100.167C100.738 77.082 101.2 77.5447 101.2 78.1154C101.2 78.6861 100.738 79.1487 100.167 79.1487Z" fill="url(#paint41_linear_381_1240)"/>
</g>
<defs>
<linearGradient id="paint0_linear_381_1240" x1="17.2632" y1="90.6558" x2="177.573" y2="90.6558" gradientUnits="userSpaceOnUse">
<stop stop-color="#5A5A5A"/>
<stop offset="1" stop-color="#444444"/>
</linearGradient>
<linearGradient id="paint1_linear_381_1240" x1="164.981" y1="90.6558" x2="176.895" y2="90.6558" gradientUnits="userSpaceOnUse">
<stop stop-color="#433F43" stop-opacity="0"/>
<stop offset="0.3444" stop-color="#403C40" stop-opacity="0.344"/>
<stop offset="0.6223" stop-color="#363336" stop-opacity="0.622"/>
<stop offset="0.8763" stop-color="#252425" stop-opacity="0.876"/>
<stop offset="1" stop-color="#1A1A1A"/>
</linearGradient>
<linearGradient id="paint2_linear_381_1240" x1="97.4181" y1="130.689" x2="97.4181" y2="139.276" gradientUnits="userSpaceOnUse">
<stop stop-color="#433F43" stop-opacity="0"/>
<stop offset="0.3444" stop-color="#403C40" stop-opacity="0.344"/>
<stop offset="0.6223" stop-color="#363336" stop-opacity="0.622"/>
<stop offset="0.8763" stop-color="#252425" stop-opacity="0.876"/>
<stop offset="1" stop-color="#1A1A1A"/>
</linearGradient>
<linearGradient id="paint3_linear_381_1240" x1="67.0948" y1="66.2443" x2="142.301" y2="141.45" gradientUnits="userSpaceOnUse">
<stop stop-color="#8AC9FE"/>
<stop offset="1" stop-color="#0172FB"/>
</linearGradient>
<linearGradient id="paint4_linear_381_1240" x1="33.0702" y1="94.9075" x2="23.8868" y2="94.9075" gradientUnits="userSpaceOnUse">
<stop stop-color="#2740B0" stop-opacity="0"/>
<stop offset="1" stop-color="#2740B0"/>
</linearGradient>
<linearGradient id="paint5_linear_381_1240" x1="97.4182" y1="124.617" x2="97.4182" y2="154.213" gradientUnits="userSpaceOnUse">
<stop stop-color="#2740B0" stop-opacity="0"/>
<stop offset="1" stop-color="#2740B0"/>
</linearGradient>
<linearGradient id="paint6_linear_381_1240" x1="128.147" y1="138.476" x2="99.8995" y2="90.4371" gradientUnits="userSpaceOnUse">
<stop stop-color="#2740B0" stop-opacity="0"/>
<stop offset="1" stop-color="#2740B0"/>
</linearGradient>
<linearGradient id="paint7_linear_381_1240" x1="97.4182" y1="47.8088" x2="97.4182" y2="38.9269" gradientUnits="userSpaceOnUse">
<stop stop-color="#2740B0" stop-opacity="0"/>
<stop offset="1" stop-color="#2740B0"/>
</linearGradient>
<linearGradient id="paint8_linear_381_1240" x1="89.2124" y1="29.3282" x2="99.5183" y2="39.634" gradientUnits="userSpaceOnUse">
<stop stop-color="#433F43" stop-opacity="0"/>
<stop offset="0.3444" stop-color="#403C40" stop-opacity="0.344"/>
<stop offset="0.6223" stop-color="#363336" stop-opacity="0.622"/>
<stop offset="0.8763" stop-color="#252425" stop-opacity="0.876"/>
<stop offset="1" stop-color="#1A1A1A"/>
</linearGradient>
<linearGradient id="paint9_linear_381_1240" x1="97.416" y1="144.951" x2="97.416" y2="161.867" gradientUnits="userSpaceOnUse">
<stop stop-color="#5A5A5A"/>
<stop offset="1" stop-color="#444444"/>
</linearGradient>
<linearGradient id="paint10_linear_381_1240" x1="97.4173" y1="153.407" x2="97.4173" y2="164.419" gradientUnits="userSpaceOnUse">
<stop stop-color="#433F43" stop-opacity="0"/>
<stop offset="0.3444" stop-color="#403C40" stop-opacity="0.344"/>
<stop offset="0.6223" stop-color="#363336" stop-opacity="0.622"/>
<stop offset="0.8763" stop-color="#252425" stop-opacity="0.876"/>
<stop offset="1" stop-color="#1A1A1A"/>
</linearGradient>
<linearGradient id="paint11_linear_381_1240" x1="175.465" y1="156.519" x2="189.858" y2="163.176" gradientUnits="userSpaceOnUse">
<stop stop-color="#433F43" stop-opacity="0"/>
<stop offset="0.3444" stop-color="#403C40" stop-opacity="0.344"/>
<stop offset="0.6223" stop-color="#363336" stop-opacity="0.622"/>
<stop offset="0.8763" stop-color="#252425" stop-opacity="0.876"/>
<stop offset="1" stop-color="#1A1A1A"/>
</linearGradient>
<linearGradient id="paint12_linear_381_1240" x1="97.4183" y1="150.885" x2="97.4183" y2="145.475" gradientUnits="userSpaceOnUse">
<stop stop-color="#5A5A5A"/>
<stop offset="1" stop-color="#444444"/>
</linearGradient>
<linearGradient id="paint13_linear_381_1240" x1="87.0996" y1="70.2008" x2="129.201" y2="160.881" gradientUnits="userSpaceOnUse">
<stop stop-color="#F5FBFF"/>
<stop offset="1" stop-color="#91DCFA"/>
</linearGradient>
<linearGradient id="paint14_linear_381_1240" x1="49.3788" y1="26.8418" x2="138.035" y2="147.884" gradientUnits="userSpaceOnUse">
<stop stop-color="#FEF0AE"/>
<stop offset="1" stop-color="#FAC600"/>
</linearGradient>
<linearGradient id="paint15_linear_381_1240" x1="97.4224" y1="127.514" x2="97.4224" y2="134.08" gradientUnits="userSpaceOnUse">
<stop stop-color="#60B7FF" stop-opacity="0"/>
<stop offset="1" stop-color="#60B7FF"/>
</linearGradient>
<linearGradient id="paint16_linear_381_1240" x1="148.043" y1="92.4346" x2="154.542" y2="92.4346" gradientUnits="userSpaceOnUse">
<stop stop-color="#60B7FF" stop-opacity="0"/>
<stop offset="1" stop-color="#60B7FF"/>
</linearGradient>
<linearGradient id="paint17_linear_381_1240" x1="72.9022" y1="73.365" x2="86.8628" y2="87.3256" gradientUnits="userSpaceOnUse">
<stop stop-color="#E1D3CE"/>
<stop offset="1" stop-color="#9E9797"/>
</linearGradient>
<linearGradient id="paint18_linear_381_1240" x1="80.1168" y1="85.5744" x2="81.094" y2="90.0263" gradientUnits="userSpaceOnUse">
<stop stop-color="#FEF48B"/>
<stop offset="0.1462" stop-color="#FDF07E"/>
<stop offset="0.4164" stop-color="#FCE55C"/>
<stop offset="0.778" stop-color="#FBD325"/>
<stop offset="1" stop-color="#FAC600"/>
</linearGradient>
<linearGradient id="paint19_linear_381_1240" x1="79.8824" y1="87.2988" x2="79.8824" y2="90.348" gradientUnits="userSpaceOnUse">
<stop stop-color="#FEA613" stop-opacity="0"/>
<stop offset="0.1837" stop-color="#FDA215" stop-opacity="0.184"/>
<stop offset="0.3944" stop-color="#FA941C" stop-opacity="0.394"/>
<stop offset="0.6184" stop-color="#F57D28" stop-opacity="0.618"/>
<stop offset="0.8502" stop-color="#EE5D38" stop-opacity="0.85"/>
<stop offset="1" stop-color="#E94444"/>
</linearGradient>
<linearGradient id="paint20_linear_381_1240" x1="84.0378" y1="86.9675" x2="88.157" y2="88.6409" gradientUnits="userSpaceOnUse">
<stop stop-color="#FEA613" stop-opacity="0"/>
<stop offset="0.1837" stop-color="#FDA215" stop-opacity="0.184"/>
<stop offset="0.3944" stop-color="#FA941C" stop-opacity="0.394"/>
<stop offset="0.6184" stop-color="#F57D28" stop-opacity="0.618"/>
<stop offset="0.8502" stop-color="#EE5D38" stop-opacity="0.85"/>
<stop offset="1" stop-color="#E94444"/>
</linearGradient>
<linearGradient id="paint21_linear_381_1240" x1="107.983" y1="89.6223" x2="121.943" y2="103.583" gradientUnits="userSpaceOnUse">
<stop stop-color="#E1D3CE"/>
<stop offset="1" stop-color="#9E9797"/>
</linearGradient>
<linearGradient id="paint22_linear_381_1240" x1="115.198" y1="101.832" x2="116.175" y2="106.284" gradientUnits="userSpaceOnUse">
<stop stop-color="#FEF48B"/>
<stop offset="0.1462" stop-color="#FDF07E"/>
<stop offset="0.4164" stop-color="#FCE55C"/>
<stop offset="0.778" stop-color="#FBD325"/>
<stop offset="1" stop-color="#FAC600"/>
</linearGradient>
<linearGradient id="paint23_linear_381_1240" x1="114.963" y1="103.557" x2="114.963" y2="106.606" gradientUnits="userSpaceOnUse">
<stop stop-color="#FEA613" stop-opacity="0"/>
<stop offset="0.1837" stop-color="#FDA215" stop-opacity="0.184"/>
<stop offset="0.3944" stop-color="#FA941C" stop-opacity="0.394"/>
<stop offset="0.6184" stop-color="#F57D28" stop-opacity="0.618"/>
<stop offset="0.8502" stop-color="#EE5D38" stop-opacity="0.85"/>
<stop offset="1" stop-color="#E94444"/>
</linearGradient>
<linearGradient id="paint24_linear_381_1240" x1="119.119" y1="103.225" x2="123.238" y2="104.898" gradientUnits="userSpaceOnUse">
<stop stop-color="#FEA613" stop-opacity="0"/>
<stop offset="0.1837" stop-color="#FDA215" stop-opacity="0.184"/>
<stop offset="0.3944" stop-color="#FA941C" stop-opacity="0.394"/>
<stop offset="0.6184" stop-color="#F57D28" stop-opacity="0.618"/>
<stop offset="0.8502" stop-color="#EE5D38" stop-opacity="0.85"/>
<stop offset="1" stop-color="#E94444"/>
</linearGradient>
<linearGradient id="paint25_linear_381_1240" x1="98.7954" y1="73.5624" x2="96.2471" y2="78.5726" gradientUnits="userSpaceOnUse">
<stop stop-color="#FEF48B"/>
<stop offset="0.1462" stop-color="#FDF07E"/>
<stop offset="0.4164" stop-color="#FCE55C"/>
<stop offset="0.778" stop-color="#FBD325"/>
<stop offset="1" stop-color="#FAC600"/>
</linearGradient>
<linearGradient id="paint26_linear_381_1240" x1="104.077" y1="79.1176" x2="98.7326" y2="77.8348" gradientUnits="userSpaceOnUse">
<stop stop-color="#FEA613" stop-opacity="0"/>
<stop offset="0.1837" stop-color="#FDA215" stop-opacity="0.184"/>
<stop offset="0.3944" stop-color="#FA941C" stop-opacity="0.394"/>
<stop offset="0.6184" stop-color="#F57D28" stop-opacity="0.618"/>
<stop offset="0.8502" stop-color="#EE5D38" stop-opacity="0.85"/>
<stop offset="1" stop-color="#E94444"/>
</linearGradient>
<linearGradient id="paint27_linear_381_1240" x1="94.3238" y1="92.6131" x2="100.752" y2="92.6131" gradientUnits="userSpaceOnUse">
<stop stop-color="#FEF48B"/>
<stop offset="0.1462" stop-color="#FDF07E"/>
<stop offset="0.4164" stop-color="#FCE55C"/>
<stop offset="0.778" stop-color="#FBD325"/>
<stop offset="1" stop-color="#FAC600"/>
</linearGradient>
<linearGradient id="paint28_linear_381_1240" x1="97.7159" y1="75.8516" x2="98.9986" y2="71.2194" gradientUnits="userSpaceOnUse">
<stop stop-color="#FEA613" stop-opacity="0"/>
<stop offset="0.1837" stop-color="#FDA215" stop-opacity="0.184"/>
<stop offset="0.3944" stop-color="#FA941C" stop-opacity="0.394"/>
<stop offset="0.6184" stop-color="#F57D28" stop-opacity="0.618"/>
<stop offset="0.8502" stop-color="#EE5D38" stop-opacity="0.85"/>
<stop offset="1" stop-color="#E94444"/>
</linearGradient>
<linearGradient id="paint29_linear_381_1240" x1="97.2053" y1="82.5422" x2="98.1315" y2="78.0796" gradientUnits="userSpaceOnUse">
<stop stop-color="#FEA613" stop-opacity="0"/>
<stop offset="0.1837" stop-color="#FDA215" stop-opacity="0.184"/>
<stop offset="0.3944" stop-color="#FA941C" stop-opacity="0.394"/>
<stop offset="0.6184" stop-color="#F57D28" stop-opacity="0.618"/>
<stop offset="0.8502" stop-color="#EE5D38" stop-opacity="0.85"/>
<stop offset="1" stop-color="#E94444"/>
</linearGradient>
<linearGradient id="paint30_linear_381_1240" x1="94.4873" y1="99.9612" x2="96.0907" y2="107.817" gradientUnits="userSpaceOnUse">
<stop stop-color="#FEA613" stop-opacity="0"/>
<stop offset="0.1837" stop-color="#FDA215" stop-opacity="0.184"/>
<stop offset="0.3944" stop-color="#FA941C" stop-opacity="0.394"/>
<stop offset="0.6184" stop-color="#F57D28" stop-opacity="0.618"/>
<stop offset="0.8502" stop-color="#EE5D38" stop-opacity="0.85"/>
<stop offset="1" stop-color="#E94444"/>
</linearGradient>
<linearGradient id="paint31_linear_381_1240" x1="99.8155" y1="104.444" x2="101.312" y2="98.2441" gradientUnits="userSpaceOnUse">
<stop stop-color="#FEA613" stop-opacity="0"/>
<stop offset="0.1837" stop-color="#FDA215" stop-opacity="0.184"/>
<stop offset="0.3944" stop-color="#FA941C" stop-opacity="0.394"/>
<stop offset="0.6184" stop-color="#F57D28" stop-opacity="0.618"/>
<stop offset="0.8502" stop-color="#EE5D38" stop-opacity="0.85"/>
<stop offset="1" stop-color="#E94444"/>
</linearGradient>
<linearGradient id="paint32_linear_381_1240" x1="93.2675" y1="107.394" x2="101.884" y2="107.394" gradientUnits="userSpaceOnUse">
<stop stop-color="#FEF48B"/>
<stop offset="0.1462" stop-color="#FDF07E"/>
<stop offset="0.4164" stop-color="#FCE55C"/>
<stop offset="0.778" stop-color="#FBD325"/>
<stop offset="1" stop-color="#FAC600"/>
</linearGradient>
<linearGradient id="paint33_linear_381_1240" x1="97.423" y1="104.928" x2="97.423" y2="111.342" gradientUnits="userSpaceOnUse">
<stop stop-color="#FEA613" stop-opacity="0"/>
<stop offset="0.1837" stop-color="#FDA215" stop-opacity="0.184"/>
<stop offset="0.3944" stop-color="#FA941C" stop-opacity="0.394"/>
<stop offset="0.6184" stop-color="#F57D28" stop-opacity="0.618"/>
<stop offset="0.8502" stop-color="#EE5D38" stop-opacity="0.85"/>
<stop offset="1" stop-color="#E94444"/>
</linearGradient>
<linearGradient id="paint34_linear_381_1240" x1="91.5577" y1="111.296" x2="103.722" y2="111.296" gradientUnits="userSpaceOnUse">
<stop stop-color="#FEF48B"/>
<stop offset="0.1462" stop-color="#FDF07E"/>
<stop offset="0.4164" stop-color="#FCE55C"/>
<stop offset="0.778" stop-color="#FBD325"/>
<stop offset="1" stop-color="#FAC600"/>
</linearGradient>
<linearGradient id="paint35_linear_381_1240" x1="97.4241" y1="107.464" x2="97.4241" y2="110.942" gradientUnits="userSpaceOnUse">
<stop stop-color="#FEA613" stop-opacity="0"/>
<stop offset="0.1837" stop-color="#FDA215" stop-opacity="0.184"/>
<stop offset="0.3944" stop-color="#FA941C" stop-opacity="0.394"/>
<stop offset="0.6184" stop-color="#F57D28" stop-opacity="0.618"/>
<stop offset="0.8502" stop-color="#EE5D38" stop-opacity="0.85"/>
<stop offset="1" stop-color="#E94444"/>
</linearGradient>
<linearGradient id="paint36_linear_381_1240" x1="95.8777" y1="67.0975" x2="100.525" y2="71.7448" gradientUnits="userSpaceOnUse">
<stop stop-color="#FEF48B"/>
<stop offset="0.1462" stop-color="#FDF07E"/>
<stop offset="0.4164" stop-color="#FCE55C"/>
<stop offset="0.778" stop-color="#FBD325"/>
<stop offset="1" stop-color="#FAC600"/>
</linearGradient>
<linearGradient id="paint37_linear_381_1240" x1="97.423" y1="112.969" x2="97.423" y2="116.61" gradientUnits="userSpaceOnUse">
<stop stop-color="#C59191"/>
<stop offset="1" stop-color="#9B5E5E"/>
</linearGradient>
<linearGradient id="paint38_linear_381_1240" x1="104.535" y1="114.593" x2="114.726" y2="113.097" gradientUnits="userSpaceOnUse">
<stop stop-color="#9B5E5E" stop-opacity="0"/>
<stop offset="0.2469" stop-color="#955857" stop-opacity="0.247"/>
<stop offset="0.6116" stop-color="#854943" stop-opacity="0.612"/>
<stop offset="1" stop-color="#6D3326"/>
</linearGradient>
<linearGradient id="paint39_linear_381_1240" x1="97.2869" y1="111.525" x2="97.5292" y2="116.009" gradientUnits="userSpaceOnUse">
<stop stop-color="#9B5E5E" stop-opacity="0"/>
<stop offset="0.2469" stop-color="#955857" stop-opacity="0.247"/>
<stop offset="0.6116" stop-color="#854943" stop-opacity="0.612"/>
<stop offset="1" stop-color="#6D3326"/>
</linearGradient>
<linearGradient id="paint40_linear_381_1240" x1="97.4234" y1="96.8642" x2="97.4234" y2="99.0734" gradientUnits="userSpaceOnUse">
<stop stop-color="#C59191"/>
<stop offset="1" stop-color="#9B5E5E"/>
</linearGradient>
<linearGradient id="paint41_linear_381_1240" x1="97.4234" y1="77.2959" x2="97.4234" y2="79.5051" gradientUnits="userSpaceOnUse">
<stop stop-color="#C59191"/>
<stop offset="1" stop-color="#9B5E5E"/>
</linearGradient>
<clipPath id="clip0_381_1240">
<rect width="193.835" height="193.835" fill="white" transform="translate(0.505859 0.837402)"/>
</clipPath>
</defs>
</svg>
