<svg width="52" height="52" viewBox="0 0 52 52" fill="none" xmlns="http://www.w3.org/2000/svg">
<mask id="mask0_265_3559" style="mask-type:luminance" maskUnits="userSpaceOnUse" x="0" y="0" width="52" height="52">
<path d="M51.7316 0.210938H0.490601V51.4519H51.7316V0.210938Z" fill="white"/>
</mask>
<g mask="url(#mask0_265_3559)">
<path d="M26.0029 51.4428H26.2071C36.3811 51.4428 42.2864 50.4185 46.4695 46.3574C50.7346 42.0496 51.7195 36.1043 51.7195 25.9702V25.6836C51.7195 15.5524 50.7346 9.64695 46.4695 5.29631C42.2895 1.23533 36.3414 0.210938 26.2102 0.210938H26.0059C15.8321 0.210938 9.92355 1.23533 5.74062 5.29631C1.47536 9.60426 0.490601 15.5524 0.490601 25.6836V25.9702C0.490601 36.1013 1.47536 42.0069 5.74062 46.3574C9.88394 50.4185 15.8321 51.4428 26.0029 51.4428Z" fill="#202022"/>
<path d="M45.6207 25.4382C45.6207 25.2431 45.4621 25.0815 45.267 25.0724C38.2648 24.8071 34.0033 23.914 31.022 20.9327C28.0345 17.9453 27.1443 13.6805 26.8791 6.66317C26.873 6.46807 26.7115 6.30957 26.5133 6.30957H25.6964C25.5013 6.30957 25.3397 6.46807 25.3306 6.66317C25.0653 13.6775 24.1752 17.9453 21.1878 20.9327C18.2034 23.917 13.9448 24.8071 6.94271 25.0724C6.74762 25.0785 6.58911 25.24 6.58911 25.4382V26.2551C6.58911 26.4502 6.74762 26.6118 6.94271 26.6209C13.9448 26.8861 18.2065 27.7793 21.1878 30.7607C24.1691 33.742 25.0592 37.9946 25.3275 44.9843C25.3336 45.1794 25.4952 45.338 25.6933 45.338H26.5133C26.7084 45.338 26.87 45.1794 26.8791 44.9843C27.1474 37.9946 28.0375 33.742 31.0189 30.7607C34.0033 27.7763 38.2617 26.8861 45.2639 26.6209C45.4591 26.6148 45.6176 26.4533 45.6176 26.2551V25.4382H45.6207Z" fill="white"/>
</g>
</svg>
