<svg width="273" height="273" viewBox="0 0 273 273" fill="none" xmlns="http://www.w3.org/2000/svg">
<path fill-rule="evenodd" clip-rule="evenodd" d="M63.0223 79.817C69.4351 74.7611 76.8525 71.8427 84.7695 71.8427C94.4719 71.8427 103.421 76.2271 110.696 83.5571C121.977 94.9248 129.236 113.298 129.236 133.98C129.236 154.66 121.977 173.033 110.696 184.401C103.421 191.733 94.4719 196.115 84.7695 196.115C75.0644 196.115 66.1154 191.733 58.84 184.401C47.5596 173.033 40.3033 154.66 40.3033 133.98C40.3033 116.475 45.5066 100.631 53.9451 89.2683C54.8432 88.0589 54.5921 86.3472 53.3827 85.449C52.1733 84.5508 50.4616 84.8047 49.5634 86.0141C40.5026 98.2063 34.8433 115.192 34.8433 133.98C34.8433 156.26 42.8121 175.998 54.9634 188.247C63.3117 196.658 73.6338 201.575 84.7695 201.575C95.9024 201.575 106.225 196.658 114.573 188.247C126.727 175.998 134.696 156.26 134.696 133.98C134.696 111.698 126.727 91.9601 114.573 79.7106C106.225 71.2994 95.9024 66.3827 84.7695 66.3827C75.6295 66.3827 67.0436 69.6942 59.6426 75.5309C58.4578 76.4619 58.2557 78.1817 59.1867 79.3638C60.1203 80.5487 61.8402 80.7507 63.0223 79.817Z" fill="#575C69"/>
<path fill-rule="evenodd" clip-rule="evenodd" d="M72.4986 109.427C88.0678 109.427 100.708 122.067 100.708 137.636C100.708 153.202 88.0678 165.842 72.4986 165.842C56.9295 165.842 44.2896 153.202 44.2896 137.636C44.2896 122.067 56.9295 109.427 72.4986 109.427ZM63.1566 118.946C68.3136 118.946 72.4986 123.134 72.4986 128.291C72.4986 133.448 68.3136 137.636 63.1566 137.636C57.9996 137.636 53.8118 133.448 53.8118 128.291C53.8118 123.134 57.9996 118.946 63.1566 118.946Z" fill="#575C69"/>
<path fill-rule="evenodd" clip-rule="evenodd" d="M166.211 80.0354C172.687 74.8457 180.202 71.8427 188.231 71.8427C197.937 71.8427 206.885 76.2271 214.161 83.5571C225.441 94.9248 232.698 113.298 232.698 133.98C232.698 154.66 225.441 173.033 214.161 184.401C206.885 191.733 197.937 196.115 188.231 196.115C178.529 196.115 169.58 191.733 162.305 184.401C151.024 173.033 143.765 154.66 143.765 133.98C143.765 115.465 149.586 98.8069 158.9 87.3518C159.85 86.1834 159.673 84.4608 158.504 83.5107C157.336 82.5607 155.613 82.7381 154.663 83.9066C144.655 96.2161 138.305 114.087 138.305 133.98C138.305 156.26 146.274 175.998 158.428 188.247C166.776 196.658 177.098 201.575 188.231 201.575C199.367 201.575 209.689 196.658 218.038 188.247C230.189 175.998 238.158 156.26 238.158 133.98C238.158 111.698 230.189 91.9601 218.038 79.7106C209.689 71.2994 199.367 66.3827 188.231 66.3827C178.966 66.3827 170.268 69.787 162.796 75.7766C161.619 76.7185 161.431 78.4384 162.373 79.615C163.315 80.7889 165.035 80.9773 166.211 80.0354Z" fill="#575C69"/>
<path fill-rule="evenodd" clip-rule="evenodd" d="M175.963 109.427C191.532 109.427 204.172 122.067 204.172 137.636C204.172 153.202 191.532 165.842 175.963 165.842C160.394 165.842 147.754 153.202 147.754 137.636C147.754 122.067 160.394 109.427 175.963 109.427ZM166.618 118.946C171.775 118.946 175.963 123.134 175.963 128.291C175.963 133.448 171.775 137.636 166.618 137.636C161.464 137.636 157.276 133.448 157.276 128.291C157.276 123.134 161.464 118.946 166.618 118.946Z" fill="#575C69"/>
</svg>
