<?xml version="1.0" encoding="UTF-8"?>
<!DOCTYPE svg PUBLIC "-//W3C//DTD SVG 1.1//EN" "http://www.w3.org/Graphics/SVG/1.1/DTD/svg11.dtd">
<svg xmlns="http://www.w3.org/2000/svg" version="1.1" width="672px" height="642px" style="shape-rendering:geometricPrecision; text-rendering:geometricPrecision; image-rendering:optimizeQuality; fill-rule:evenodd; clip-rule:evenodd" xmlns:xlink="http://www.w3.org/1999/xlink">
<g><path style="opacity:0.993" fill="#0ac0cb" d="M 401.5,67.5 C 402.79,68.0577 403.623,69.0577 404,70.5C 406.8,81.8297 404.967,92.3297 398.5,102C 419.534,124.986 425.368,151.486 416,181.5C 412.662,187.512 408.828,193.179 404.5,198.5C 409.843,195.003 414.677,190.336 419,184.5C 417.831,196.979 419.831,208.979 425,220.5C 428.727,228.955 432.727,237.288 437,245.5C 454.345,274.206 470.012,303.873 484,334.5C 488.792,345.542 492.792,356.875 496,368.5C 498.787,390.064 497.454,411.397 492,432.5C 477.125,493.895 450.792,549.562 413,599.5C 408.946,604.057 404.446,608.057 399.5,611.5C 399.945,575.18 399.445,538.847 398,502.5C 396.815,477.871 393.482,453.538 388,429.5C 381.179,462.12 372.179,494.12 361,525.5C 358.644,532.077 355.811,538.41 352.5,544.5C 349.352,533.264 346.519,521.93 344,510.5C 325.706,457.87 289.206,426.37 234.5,416C 220.95,413.344 207.617,414.011 194.5,418C 186.714,422.795 181.547,429.628 179,438.5C 178.545,445.53 178.545,452.53 179,459.5C 169.27,426.809 159.436,394.142 149.5,361.5C 151.667,360.052 154,358.885 156.5,358C 153.591,358.284 150.758,358.117 148,357.5C 145.696,351.283 143.863,344.949 142.5,338.5C 162.793,330.012 182.793,320.845 202.5,311C 203.893,309.829 204.727,308.329 205,306.5C 207.964,294.136 211.464,281.97 215.5,270C 244.436,258.637 273.103,246.804 301.5,234.5C 313.846,192.115 326.346,149.782 339,107.5C 342.546,118.148 341.712,128.481 336.5,138.5C 348.211,156.009 353.044,175.342 351,196.5C 367.846,153.479 384.68,110.479 401.5,67.5 Z M 272.5,282.5 C 270.952,293.766 265.286,302.266 255.5,308C 254.5,308.667 253.5,308.667 252.5,308C 246.293,304.397 239.96,301.064 233.5,298C 246.484,292.729 259.484,287.562 272.5,282.5 Z"/></g>
<g><path style="opacity:0.839" fill="#0bbfcb" d="M 237.5,125.5 C 239.59,125.45 240.923,126.45 241.5,128.5C 238.995,130.253 236.329,131.753 233.5,133C 237.223,140.283 240.556,147.783 243.5,155.5C 243.167,157.167 242.167,158.167 240.5,158.5C 235.899,150.961 232.065,142.961 229,134.5C 226.684,135.496 224.35,136.496 222,137.5C 220.5,137.333 219.667,136.5 219.5,135C 225.375,131.563 231.375,128.396 237.5,125.5 Z"/></g>
<g><path style="opacity:0.908" fill="#0ac0cb" d="M 300.5,127.5 C 309.5,127.5 318.5,127.5 327.5,127.5C 327.5,129.833 327.5,132.167 327.5,134.5C 301.74,133.849 276.74,137.849 252.5,146.5C 250.377,144.255 249.377,141.588 249.5,138.5C 266.321,133.425 283.321,129.758 300.5,127.5 Z"/></g>
<g><path style="opacity:0.884" fill="#0ac0cb" d="M 344.5,128.5 C 353.212,129.674 361.879,131.174 370.5,133C 371.476,135.147 371.309,137.314 370,139.5C 369.439,140.022 368.772,140.355 368,140.5C 359.638,138.245 351.138,136.912 342.5,136.5C 342.858,133.733 343.525,131.067 344.5,128.5 Z"/></g>
<g><path style="opacity:0.854" fill="#0ac0cb" d="M 211.5,138.5 C 220.227,139.559 222.894,144.059 219.5,152C 224.508,153.836 228.508,157.003 231.5,161.5C 230.653,162.845 229.487,163.845 228,164.5C 225.057,162.099 222.223,159.599 219.5,157C 216.788,156.262 214.455,156.929 212.5,159C 214.879,162.256 216.879,165.756 218.5,169.5C 217.562,170.553 216.395,171.22 215,171.5C 209.217,163.445 204.05,154.945 199.5,146C 203.093,142.711 207.093,140.211 211.5,138.5 Z M 209.5,143.5 C 213.223,143.223 215.556,144.89 216.5,148.5C 215.562,151.273 213.729,153.273 211,154.5C 209.045,152.089 207.211,149.589 205.5,147C 207.093,146.051 208.426,144.885 209.5,143.5 Z"/></g>
<g><path style="opacity:0.849" fill="#0ac0cb" d="M 187.5,153.5 C 200.919,154.649 207.086,161.982 206,175.5C 201.583,184.282 194.75,186.782 185.5,183C 177.201,176.779 175.034,168.946 179,159.5C 181.322,156.605 184.155,154.605 187.5,153.5 Z M 186.5,158.5 C 194.869,158.864 199.869,163.198 201.5,171.5C 200.489,178.666 196.489,181.166 189.5,179C 183.891,175.283 181.391,170.117 182,163.5C 183.059,161.341 184.559,159.674 186.5,158.5 Z"/></g>
<g><path style="opacity:0.908" fill="#0ac0cb" d="M 426.5,156.5 C 450.091,169.243 470.258,186.243 487,207.5C 535.34,272.885 545.34,343.885 517,420.5C 511.701,433.101 505.367,445.101 498,456.5C 497.439,457.022 496.772,457.355 496,457.5C 494.037,456.375 492.204,455.041 490.5,453.5C 528.311,393.997 535.144,330.997 511,264.5C 493.121,220.79 463.954,186.79 423.5,162.5C 424.513,160.473 425.513,158.473 426.5,156.5 Z"/></g>
<g><path style="opacity:0.887" fill="#09c0ca" d="M 165.5,172.5 C 174.506,173.009 178.006,177.676 176,186.5C 174.542,188.96 172.709,191.127 170.5,193C 173.35,195.682 176.016,198.516 178.5,201.5C 177.653,202.845 176.487,203.845 175,204.5C 167.789,197.624 160.956,190.457 154.5,183C 157.416,178.581 161.083,175.081 165.5,172.5 Z M 165.5,177.5 C 173.29,180.075 174.124,184.075 168,189.5C 165.5,187 163,184.5 160.5,182C 162.063,180.264 163.73,178.764 165.5,177.5 Z"/></g>
<g><path style="opacity:0.829" fill="#09c0cb" d="M 147.5,189.5 C 149.59,189.45 150.923,190.45 151.5,192.5C 149.171,193.998 147.337,195.998 146,198.5C 145.289,200.367 145.789,201.867 147.5,203C 152.162,202.191 156.829,201.024 161.5,199.5C 169.905,202.304 171.739,207.637 167,215.5C 165.261,217.741 163.094,219.408 160.5,220.5C 159.167,219.833 158.167,218.833 157.5,217.5C 159.817,215.684 161.984,213.684 164,211.5C 165.33,206.502 163.496,204.336 158.5,205C 153.832,208.572 148.832,209.239 143.5,207C 140.431,203.815 139.931,200.315 142,196.5C 143.666,194.004 145.5,191.671 147.5,189.5 Z"/></g>
<g><path style="opacity:0.882" fill="#0ac0cb" d="M 132.5,207.5 C 141.694,212.361 150.361,218.028 158.5,224.5C 158.167,225.167 157.833,225.833 157.5,226.5C 148.518,227.332 139.518,227.832 130.5,228C 136.935,231.536 142.935,235.536 148.5,240C 148.07,241.434 147.236,242.601 146,243.5C 137.415,238.125 128.915,232.625 120.5,227C 121.257,225.488 122.257,224.154 123.5,223C 131.886,222.429 140.22,222.429 148.5,223C 142.156,219.496 136.156,215.496 130.5,211C 131.305,209.887 131.972,208.721 132.5,207.5 Z"/></g>
<g><path style="opacity:0.855" fill="#09bfca" d="M 116.5,234.5 C 125.707,238.102 134.707,242.269 143.5,247C 144.629,250.47 143.295,251.804 139.5,251C 131.074,247.032 123.074,242.532 115.5,237.5C 116.127,236.583 116.461,235.583 116.5,234.5 Z"/></g>
<g><path style="opacity:0.84" fill="#09c0cb" d="M 111.5,244.5 C 113.429,244.231 115.095,244.731 116.5,246C 115.038,249.094 113.704,252.261 112.5,255.5C 114.35,257.572 116.683,258.905 119.5,259.5C 121.171,256.142 122.838,252.808 124.5,249.5C 126.167,249.833 127.167,250.833 127.5,252.5C 126.027,255.41 125.194,258.41 125,261.5C 128.324,263.33 131.824,264.663 135.5,265.5C 135.628,267.655 135.128,269.655 134,271.5C 125.014,267.339 115.847,263.672 106.5,260.5C 107.76,255.052 109.427,249.718 111.5,244.5 Z"/></g>
<g><path style="opacity:0.915" fill="#0ac0cb" d="M 118.5,273.5 C 121.057,274.188 123.391,275.354 125.5,277C 102.955,356.485 119.955,426.152 176.5,486C 224.552,530.741 281.552,549.907 347.5,543.5C 347.5,545.833 347.5,548.167 347.5,550.5C 259.745,558.194 190.911,526.194 141,454.5C 106.503,397.521 99.0027,337.188 118.5,273.5 Z"/></g>
<g><path style="opacity:0.891" fill="#09c0cb" d="M 390.5,531.5 C 391.75,531.577 392.583,532.244 393,533.5C 393.808,535.579 393.641,537.579 392.5,539.5C 382.428,543.268 372.094,545.935 361.5,547.5C 361.192,545.076 361.526,542.743 362.5,540.5C 372.2,538.266 381.533,535.266 390.5,531.5 Z"/></g>
</svg>
