<svg width="330" height="231" viewBox="0 0 330 231" fill="none" xmlns="http://www.w3.org/2000/svg">
<path d="M33.0653 111.481C42.6214 111.481 53.0084 111.191 63.3954 110.901L99.9577 108.871C113.668 108.002 123.64 107.132 130.288 106.842C153.139 105.682 175.159 104.812 196.349 104.523H198.011C201.335 104.523 209.229 104.523 218.785 103.943H228.341C234.988 103.653 242.883 103.363 249.531 103.363C263.241 103.073 272.797 103.073 277.367 103.073H280.275C281.105 103.073 281.936 103.073 282.352 103.363C283.598 103.653 284.014 104.232 284.429 105.102C284.844 106.262 284.429 107.132 282.767 108.002L281.521 108.291C280.275 108.581 277.366 108.581 272.796 108.871L237.481 110.611C220.445 111.191 207.566 111.77 198.841 112.35C190.115 112.64 178.482 113.22 164.771 114.09C136.934 115.25 114.083 116.989 90.8155 119.309L75.0271 120.758C84.168 120.469 89.5688 120.178 90.8155 120.178L91.2306 119.889H91.6458H92.4767C92.8919 119.889 93.3076 119.889 94.1386 119.599C95.8004 119.599 98.2932 119.599 101.202 119.309L133.194 118.15C140.257 117.86 151.475 117.86 166.016 117.57L198.839 116.7C227.507 115.831 264.484 115.541 309.357 115.541C314.343 115.541 314.343 120.76 309.357 120.76C263.239 120.76 226.676 121.049 198.839 121.919L167.262 122.788C153.137 123.078 142.748 123.078 136.102 123.368C135.686 123.368 135.686 123.368 135.271 123.658L134.44 124.238H133.609C132.778 124.528 125.715 124.528 112.42 124.818C106.187 125.107 101.202 125.107 98.2932 125.107H94.9695H94.5544H94.1386C92.0616 125.107 86.6602 125.397 77.5193 125.977L55.0835 126.846C44.6965 127.426 36.8023 127.716 31.4009 127.716H23.0916C21.8455 127.426 21.0139 127.426 20.5988 127.426C20.1836 127.136 19.3527 127.136 18.9369 127.136L16.8599 125.977C15.6132 124.527 16.029 122.497 18.9369 121.628C19.7679 121.338 20.5988 121.338 21.8455 121.338H23.9225H24.7535C31.8167 120.469 38.0484 119.889 43.4498 119.019L78.766 115.25C60.9006 116.119 45.5274 116.699 33.0634 116.699C28.0791 116.699 28.0791 111.481 33.0653 111.481Z" fill="#5FAC65"/>
</svg>
