<svg width="370" height="99" viewBox="0 0 370 99" fill="none" xmlns="http://www.w3.org/2000/svg">
<path d="M161.936 13.526C108.706 12.7178 40.3459 13.5913 8.95217 49.6391C3.23015 56.2094 0.367322 64.4765 6.21347 71.5594C13.0638 79.8589 29.0873 84.0715 41.3785 86.785C65.5752 92.1268 91.2257 92.9169 116.364 94.0918C146.923 95.5199 177.371 96.5016 208.001 95.6985C233.79 95.0223 259.822 93.6966 285.178 90.1897C307.271 87.1343 331.635 82.6518 349.702 72.7453C358.356 68.0001 365.108 61.0055 366.792 53.3116C368.593 45.0839 361.698 38.2343 353.536 32.8067C340.91 24.4104 324.853 19.4061 308.512 15.5918C282.443 9.50683 255.075 6.55147 227.775 4.34478C196.949 1.85313 166.006 3.41292 133.82 4.34494C120.669 4.34478 107.171 6.06268 91.2514 8.8591" stroke="#5FAC65" stroke-width="5.72228" stroke-linecap="round"/>
</svg>
