<?xml version="1.0" encoding="UTF-8"?>
<!DOCTYPE svg PUBLIC "-//W3C//DTD SVG 1.1//EN" "http://www.w3.org/Graphics/SVG/1.1/DTD/svg11.dtd">
<svg xmlns="http://www.w3.org/2000/svg" version="1.1" width="2000px" height="2000px" style="shape-rendering:geometricPrecision; text-rendering:geometricPrecision; image-rendering:optimizeQuality; fill-rule:evenodd; clip-rule:evenodd" xmlns:xlink="http://www.w3.org/1999/xlink">
<g><path style="opacity:0.998" fill="#40a89c" d="M 320.5,110.5 C 787.5,110.5 1254.5,110.5 1721.5,110.5C 1721.5,577.5 1721.5,1044.5 1721.5,1511.5C 1254.5,1511.5 787.5,1511.5 320.5,1511.5C 320.5,1044.5 320.5,577.5 320.5,110.5 Z"/></g>
<g><path style="opacity:1" fill="#fefefe" d="M 913.5,453.5 C 1056.83,453.5 1200.17,453.5 1343.5,453.5C 1343.5,695.5 1343.5,937.5 1343.5,1179.5C 1263.17,1179.5 1182.83,1179.5 1102.5,1179.5C 1102.5,1099.5 1102.5,1019.5 1102.5,939.5C 1072.59,939.171 1042.76,939.505 1013,940.5C 972.422,1019.99 931.589,1099.32 890.5,1178.5C 799.502,1179.67 708.502,1179.83 617.5,1179C 674.167,1090.33 730.833,1001.67 787.5,913C 687.853,875.47 638.853,803.137 640.5,696C 638.681,608.998 674.681,543.331 748.5,499C 799.924,470.563 854.924,455.396 913.5,453.5 Z"/></g>
<g><path style="opacity:1" fill="#40a89c" d="M 967.5,605.5 C 1012.5,605.5 1057.5,605.5 1102.5,605.5C 1102.5,666.5 1102.5,727.5 1102.5,788.5C 1056.5,788.667 1010.5,788.5 964.5,788C 939.281,786.705 916.281,779.038 895.5,765C 875.447,746.703 865.78,723.869 866.5,696.5C 866.441,663.765 880.441,639.265 908.5,623C 927.071,612.971 946.737,607.138 967.5,605.5 Z"/></g>
<g><path style="opacity:0.982" fill="#222322" d="M 970.5,1629.5 C 974.357,1630.64 978.19,1631.98 982,1633.5C 984.848,1632.74 987.181,1633.74 989,1636.5C 992.34,1634.63 995.507,1634.63 998.5,1636.5C 999.598,1635.38 1000.77,1635.38 1002,1636.5C 1003.52,1633.76 1005.69,1631.76 1008.5,1630.5C 1012.68,1632.75 1016.68,1635.25 1020.5,1638C 1022.04,1639.11 1022.7,1640.61 1022.5,1642.5C 1031.33,1642.57 1039.83,1642.9 1048,1643.5C 1061.24,1642.52 1074.41,1641.36 1087.5,1640C 1112.56,1640.1 1137.56,1638.93 1162.5,1636.5C 1165.9,1636.56 1169.24,1637.06 1172.5,1638C 1174.88,1641.12 1174.88,1644.12 1172.5,1647C 1174.96,1648.92 1176.96,1651.25 1178.5,1654C 1180.96,1655.31 1183.46,1656.48 1186,1657.5C 1187.42,1664.82 1189.26,1671.99 1191.5,1679C 1190.83,1680 1190.17,1681 1189.5,1682C 1192.41,1682.85 1193.41,1684.51 1192.5,1687C 1196,1690 1196.33,1693.34 1193.5,1697C 1172.72,1700.84 1151.89,1702.34 1131,1701.5C 1125.41,1702.38 1119.74,1703.05 1114,1703.5C 1101.54,1703.71 1089.04,1703.37 1076.5,1702.5C 1071.17,1703.17 1065.83,1703.83 1060.5,1704.5C 1047.66,1704.72 1035,1704.39 1022.5,1703.5C 1022.5,1714.17 1022.5,1724.83 1022.5,1735.5C 1040.91,1735.3 1059.24,1734.97 1077.5,1734.5C 1087.58,1734.94 1097.58,1736.1 1107.5,1738C 1109.81,1739.11 1111.31,1740.94 1112,1743.5C 1112.99,1746.96 1113.83,1750.46 1114.5,1754C 1113.47,1761.28 1113.47,1768.45 1114.5,1775.5C 1113.45,1780.62 1112.95,1785.62 1113,1790.5C 1111.41,1793.12 1109.91,1795.79 1108.5,1798.5C 1107.33,1799.58 1106,1800.42 1104.5,1801C 1093.12,1799.97 1081.79,1799.47 1070.5,1799.5C 1054.17,1800.67 1037.84,1801.67 1021.5,1802.5C 1020.93,1814.18 1020.27,1825.84 1019.5,1837.5C 1041.42,1837.71 1063.25,1837.37 1085,1836.5C 1097.33,1838.5 1109.83,1838.5 1122.5,1836.5C 1123.75,1837.04 1124.91,1837.71 1126,1838.5C 1128.8,1837.79 1131.63,1837.12 1134.5,1836.5C 1137.73,1837.06 1141.06,1837.06 1144.5,1836.5C 1146.71,1837.11 1148.88,1837.77 1151,1838.5C 1164.46,1837.52 1177.96,1836.69 1191.5,1836C 1194.22,1837.26 1195.55,1839.43 1195.5,1842.5C 1195.01,1849.09 1194.01,1855.59 1192.5,1862C 1193.39,1864.78 1193.72,1867.44 1193.5,1870C 1193.1,1871.47 1192.43,1872.81 1191.5,1874C 1192,1874.5 1192.5,1875 1193,1875.5C 1193.25,1878.89 1193.75,1882.22 1194.5,1885.5C 1194.02,1887.95 1193.02,1890.12 1191.5,1892C 1195.74,1895.8 1195.07,1898.64 1189.5,1900.5C 1181.63,1899.42 1173.8,1898.42 1166,1897.5C 1142.36,1897.78 1118.2,1898.28 1093.5,1899C 1091.73,1899.97 1089.89,1900.8 1088,1901.5C 1076.56,1900.08 1065.06,1899.41 1053.5,1899.5C 1040.5,1899.82 1027.5,1900.15 1014.5,1900.5C 1014.65,1901.55 1014.48,1902.55 1014,1903.5C 1012.49,1904.26 1011.15,1905.26 1010,1906.5C 1005.7,1905.23 1001.7,1903.23 998,1900.5C 995.88,1903.08 993.713,1903.08 991.5,1900.5C 989.589,1902.89 987.089,1903.89 984,1903.5C 979.245,1903.12 974.578,1902.45 970,1901.5C 969.196,1902.8 968.029,1903.47 966.5,1903.5C 964.5,1902.17 962.5,1902.17 960.5,1903.5C 958.5,1903 956.5,1902.5 954.5,1902C 953.106,1901.04 952.439,1899.71 952.5,1898C 955.758,1861.97 958.258,1825.81 960,1789.5C 961.432,1738.76 961.765,1688.09 961,1637.5C 963.747,1634.25 966.914,1631.58 970.5,1629.5 Z"/></g>
<g><path style="opacity:0.982" fill="#222322" d="M 1497.5,1629.5 C 1501.36,1630.64 1505.19,1631.98 1509,1633.5C 1511.85,1632.74 1514.18,1633.74 1516,1636.5C 1519.34,1634.63 1522.51,1634.63 1525.5,1636.5C 1526.6,1635.38 1527.77,1635.38 1529,1636.5C 1530.52,1633.76 1532.69,1631.76 1535.5,1630.5C 1539.68,1632.75 1543.68,1635.25 1547.5,1638C 1549.04,1639.11 1549.7,1640.61 1549.5,1642.5C 1558.33,1642.57 1566.83,1642.9 1575,1643.5C 1588.24,1642.52 1601.41,1641.36 1614.5,1640C 1639.56,1640.1 1664.56,1638.93 1689.5,1636.5C 1692.9,1636.56 1696.24,1637.06 1699.5,1638C 1701.88,1641.12 1701.88,1644.12 1699.5,1647C 1701.96,1648.92 1703.96,1651.25 1705.5,1654C 1707.96,1655.31 1710.46,1656.48 1713,1657.5C 1714.42,1664.82 1716.26,1671.99 1718.5,1679C 1717.83,1680 1717.17,1681 1716.5,1682C 1719.41,1682.85 1720.41,1684.51 1719.5,1687C 1723,1690 1723.33,1693.34 1720.5,1697C 1699.72,1700.84 1678.89,1702.34 1658,1701.5C 1652.41,1702.38 1646.74,1703.05 1641,1703.5C 1628.54,1703.71 1616.04,1703.37 1603.5,1702.5C 1598.17,1703.17 1592.83,1703.83 1587.5,1704.5C 1574.66,1704.72 1562,1704.39 1549.5,1703.5C 1549.5,1714.17 1549.5,1724.83 1549.5,1735.5C 1567.91,1735.3 1586.24,1734.97 1604.5,1734.5C 1614.58,1734.94 1624.58,1736.1 1634.5,1738C 1636.81,1739.11 1638.31,1740.94 1639,1743.5C 1639.99,1746.96 1640.83,1750.46 1641.5,1754C 1640.47,1761.28 1640.47,1768.45 1641.5,1775.5C 1640.45,1780.62 1639.95,1785.62 1640,1790.5C 1638.41,1793.12 1636.91,1795.79 1635.5,1798.5C 1634.33,1799.58 1633,1800.42 1631.5,1801C 1620.12,1799.97 1608.79,1799.47 1597.5,1799.5C 1581.17,1800.67 1564.84,1801.67 1548.5,1802.5C 1547.93,1814.18 1547.27,1825.84 1546.5,1837.5C 1568.42,1837.71 1590.25,1837.37 1612,1836.5C 1624.33,1838.5 1636.83,1838.5 1649.5,1836.5C 1650.75,1837.04 1651.91,1837.71 1653,1838.5C 1655.8,1837.79 1658.63,1837.12 1661.5,1836.5C 1664.73,1837.06 1668.06,1837.06 1671.5,1836.5C 1673.71,1837.11 1675.88,1837.77 1678,1838.5C 1691.46,1837.52 1704.96,1836.69 1718.5,1836C 1721.22,1837.26 1722.55,1839.43 1722.5,1842.5C 1722.01,1849.09 1721.01,1855.59 1719.5,1862C 1720.39,1864.78 1720.72,1867.44 1720.5,1870C 1720.1,1871.47 1719.43,1872.81 1718.5,1874C 1719,1874.5 1719.5,1875 1720,1875.5C 1720.25,1878.89 1720.75,1882.22 1721.5,1885.5C 1721.02,1887.95 1720.02,1890.12 1718.5,1892C 1722.74,1895.8 1722.07,1898.64 1716.5,1900.5C 1708.63,1899.42 1700.8,1898.42 1693,1897.5C 1669.36,1897.78 1645.2,1898.28 1620.5,1899C 1618.73,1899.97 1616.89,1900.8 1615,1901.5C 1603.56,1900.08 1592.06,1899.41 1580.5,1899.5C 1567.5,1899.82 1554.5,1900.15 1541.5,1900.5C 1541.65,1901.55 1541.48,1902.55 1541,1903.5C 1539.49,1904.26 1538.15,1905.26 1537,1906.5C 1532.7,1905.23 1528.7,1903.23 1525,1900.5C 1522.88,1903.08 1520.71,1903.08 1518.5,1900.5C 1516.59,1902.89 1514.09,1903.89 1511,1903.5C 1506.24,1903.12 1501.58,1902.45 1497,1901.5C 1496.2,1902.8 1495.03,1903.47 1493.5,1903.5C 1491.5,1902.17 1489.5,1902.17 1487.5,1903.5C 1485.5,1903 1483.5,1902.5 1481.5,1902C 1480.11,1901.04 1479.44,1899.71 1479.5,1898C 1482.76,1861.97 1485.26,1825.81 1487,1789.5C 1488.43,1738.76 1488.76,1688.09 1488,1637.5C 1490.75,1634.25 1493.91,1631.58 1497.5,1629.5 Z"/></g>
<g><path style="opacity:0.983" fill="#222322" d="M 833.5,1633.5 C 837.007,1632.99 840.174,1633.66 843,1635.5C 862.785,1705.75 885.452,1775.08 911,1843.5C 912.353,1844.7 914.019,1845.37 916,1845.5C 919.827,1844.76 923.66,1844.59 927.5,1845C 931.308,1847.77 934.308,1851.27 936.5,1855.5C 934.862,1856.7 934.529,1858.04 935.5,1859.5C 934.584,1864.2 932.917,1868.54 930.5,1872.5C 931.44,1876.5 931.606,1880.5 931,1884.5C 932.667,1885.83 934.333,1887.17 936,1888.5C 936.667,1889.83 936.667,1891.17 936,1892.5C 933.167,1896 930.333,1899.5 927.5,1903C 875.617,1903.95 823.783,1904.78 772,1905.5C 759.333,1904.83 746.667,1904.17 734,1903.5C 717.599,1903.72 701.266,1903.72 685,1903.5C 683.319,1901.71 681.486,1901.21 679.5,1902C 677.477,1898.82 676.977,1895.32 678,1891.5C 679.366,1889.63 680.533,1887.63 681.5,1885.5C 681.697,1880.98 681.03,1876.48 679.5,1872C 679.511,1862.8 680.011,1853.63 681,1844.5C 689.103,1843.7 697.27,1843.54 705.5,1844C 715.545,1816.87 725.045,1789.37 734,1761.5C 736.037,1749.38 739.704,1737.72 745,1726.5C 751.776,1706.39 757.776,1686.06 763,1665.5C 764.862,1661.58 766.529,1657.58 768,1653.5C 771.29,1652.13 774.456,1652.46 777.5,1654.5C 779.667,1653.21 782,1652.37 784.5,1652C 788.027,1648.47 791.527,1644.97 795,1641.5C 796.574,1642.85 798.407,1643.51 800.5,1643.5C 803.734,1642.42 806.901,1642.42 810,1643.5C 814.908,1641.38 819.908,1639.38 825,1637.5C 825.333,1637.83 825.667,1638.17 826,1638.5C 828.331,1636.48 830.831,1634.81 833.5,1633.5 Z M 809.5,1728.5 C 823.402,1767.99 837.068,1807.66 850.5,1847.5C 823.868,1846.86 796.868,1846.86 769.5,1847.5C 780.731,1813.69 792.564,1780.02 805,1746.5C 807.019,1740.61 808.519,1734.61 809.5,1728.5 Z"/></g>
<g><path style="opacity:0.981" fill="#222322" d="M 1345.5,1633.5 C 1348.34,1634.17 1350.84,1635.51 1353,1637.5C 1356.09,1633.67 1359.09,1633.67 1362,1637.5C 1368.59,1650.35 1374.92,1663.35 1381,1676.5C 1398.17,1717.43 1414.84,1758.1 1431,1798.5C 1438.08,1817.39 1445.08,1836.72 1452,1856.5C 1456.79,1864.91 1460.62,1873.74 1463.5,1883C 1463.51,1884.81 1462.84,1886.31 1461.5,1887.5C 1453.95,1890.24 1446.28,1891.74 1438.5,1892C 1435.42,1895.39 1431.76,1896.72 1427.5,1896C 1421.25,1899.75 1414.75,1902.91 1408,1905.5C 1406.53,1905.1 1405.19,1904.43 1404,1903.5C 1398.58,1886.38 1392.91,1869.38 1387,1852.5C 1378.04,1830.57 1369.04,1808.57 1360,1786.5C 1357.96,1784.79 1356.29,1782.79 1355,1780.5C 1349.38,1761.96 1342.38,1743.96 1334,1726.5C 1328,1743.83 1322,1761.17 1316,1778.5C 1313.85,1783.29 1311.52,1787.96 1309,1792.5C 1304.45,1807.73 1299.45,1822.73 1294,1837.5C 1288.92,1850.22 1283.42,1862.72 1277.5,1875C 1278.02,1875.56 1278.36,1876.23 1278.5,1877C 1275.46,1885.95 1272.13,1894.78 1268.5,1903.5C 1267.37,1904.26 1266.21,1904.93 1265,1905.5C 1257.77,1902.47 1251.27,1898.3 1245.5,1893C 1234.36,1889.78 1223.36,1885.94 1212.5,1881.5C 1211.46,1879.23 1211.29,1876.9 1212,1874.5C 1230.54,1835.55 1245.54,1795.22 1257,1753.5C 1268.96,1726.66 1278.63,1699 1286,1670.5C 1288,1665.83 1290,1661.17 1292,1656.5C 1295.66,1653.85 1299.16,1654.19 1302.5,1657.5C 1303.83,1656.5 1305.17,1655.5 1306.5,1654.5C 1307.09,1654.71 1307.59,1655.04 1308,1655.5C 1311.68,1651.82 1315.35,1648.15 1319,1644.5C 1323,1646.8 1327.17,1647.14 1331.5,1645.5C 1332.01,1637.33 1336.01,1635 1343.5,1638.5C 1343.39,1636.49 1344.06,1634.82 1345.5,1633.5 Z"/></g>
<g><path style="opacity:0.985" fill="#222322" d="M 358.5,1634.5 C 365.852,1634.98 373.185,1635.64 380.5,1636.5C 393.173,1635.83 406.173,1635.83 419.5,1636.5C 425.54,1635.98 431.54,1635.32 437.5,1634.5C 452.812,1633.31 467.812,1635.15 482.5,1640C 488.693,1643.04 495.026,1645.7 501.5,1648C 535.839,1679.03 542.839,1715.36 522.5,1757C 551.836,1785.18 559.336,1818.35 545,1856.5C 527.727,1887.82 501.061,1904.15 465,1905.5C 433.428,1904.78 401.928,1904.45 370.5,1904.5C 368.287,1907.08 366.12,1907.08 364,1904.5C 361.301,1904.3 358.468,1904.63 355.5,1905.5C 352.551,1903.23 349.718,1903.23 347,1905.5C 345.745,1903.15 344.078,1902.48 342,1903.5C 340.018,1903.01 338.351,1902.01 337,1900.5C 336.218,1903.08 334.718,1905.08 332.5,1906.5C 329.187,1904.02 326.02,1901.35 323,1898.5C 320.772,1899.3 319.439,1898.3 319,1895.5C 316.664,1813.28 317.164,1730.95 320.5,1648.5C 320.291,1647.91 319.957,1647.41 319.5,1647C 323.185,1637.02 329.018,1635.86 337,1643.5C 339.333,1640.83 341.667,1640.83 344,1643.5C 344.374,1642.58 344.874,1641.75 345.5,1641C 348.482,1640.5 351.482,1640.34 354.5,1640.5C 354.657,1637.68 355.991,1635.68 358.5,1634.5 Z M 437.5,1695.5 C 444.216,1695.63 450.882,1696.13 457.5,1697C 467.379,1700.34 471.545,1707.17 470,1717.5C 465.336,1728.92 456.836,1735.09 444.5,1736C 421.507,1736.89 398.507,1737.39 375.5,1737.5C 375.819,1724.14 376.485,1710.81 377.5,1697.5C 391.448,1696.73 405.448,1696.73 419.5,1697.5C 425.67,1697.02 431.67,1696.35 437.5,1695.5 Z M 422.5,1793.5 C 438.42,1793.61 454.42,1793.78 470.5,1794C 484.881,1798.42 493.215,1808.08 495.5,1823C 493.52,1832.98 487.854,1839.98 478.5,1844C 473.756,1845.3 468.923,1846.13 464,1846.5C 434.159,1845.83 404.326,1845.16 374.5,1844.5C 374.577,1828.57 374.911,1812.57 375.5,1796.5C 391.379,1796.44 407.046,1795.44 422.5,1793.5 Z"/></g>
</svg>
