<svg width="422" height="492" viewBox="0 0 422 492" fill="none" xmlns="http://www.w3.org/2000/svg">
<path d="M165.249 23.4261L40.348 95.2121C18.3253 107.907 10.7774 135.949 23.4753 157.908L194.099 452.103C206.851 474.026 235.021 481.54 257.076 468.901L381.977 397.115C403.999 384.421 411.55 356.377 398.854 334.421L228.231 40.2258C215.476 18.2994 187.304 10.7874 165.249 23.4261ZM381.789 344.229C389.08 356.801 384.754 372.872 372.126 380.13L247.225 451.916C234.597 459.175 218.452 454.868 211.161 442.297L40.5372 148.101C33.2461 135.53 37.5702 119.455 50.1987 112.197L175.1 40.411C187.728 33.1528 203.874 37.4624 211.166 50.0338L381.789 344.229Z" fill="#455A64" fill-opacity="0.1"/>
<path d="M148.098 78.5803L96.9095 108.001C92.198 110.709 90.5812 116.705 93.3014 121.396C96.0216 126.086 102.049 127.694 106.76 124.986L157.949 95.5652C162.66 92.8573 164.272 86.8592 161.552 82.169C158.832 77.4788 152.81 75.8724 148.098 78.5803Z" fill="#455A64" fill-opacity="0.1"/>
<path d="M307.037 372.244C312.479 381.627 309.25 393.622 299.827 399.038C290.401 404.455 278.352 401.241 272.91 391.858C267.469 382.478 270.698 370.483 280.124 365.065C289.547 359.649 301.596 362.863 307.037 372.244Z" fill="#455A64" fill-opacity="0.1"/>
</svg>
