<svg width="90" height="89" viewBox="0 0 90 89" fill="none" xmlns="http://www.w3.org/2000/svg">
<path d="M54.3465 57.3537L32.2659 35.2731C31.1619 34.1691 31.1619 32.697 32.2659 31.593C33.3699 30.489 34.842 30.489 35.946 31.593L58.0266 53.6736C59.1307 54.7776 59.1307 56.2497 58.0266 57.3537C56.9226 58.4577 55.4506 58.4577 54.3465 57.3537Z" fill="#303B6D"/>
<path d="M32.2654 57.3532C31.1613 56.2492 31.1613 54.7771 32.2654 53.6731L54.346 31.5925C55.45 30.4885 56.9221 30.4885 58.0261 31.5925C59.1301 32.6965 59.1301 34.1686 58.0261 35.2726L35.9455 57.3532C34.8414 58.4572 33.3694 58.4572 32.2654 57.3532Z" fill="#303B6D"/>
</svg>
