<svg width="516" height="516" viewBox="0 0 516 516" fill="none" xmlns="http://www.w3.org/2000/svg">
<g clip-path="url(#clip0_381_1195)">
<path d="M485.742 316.044L442.333 281.779L394.094 102.062C387.65 78.0545 362.842 63.7566 338.793 70.1893L94.5544 135.519C70.5055 141.952 56.1828 166.717 62.6266 190.724L110.866 370.442L90.4346 421.783C86.3993 431.925 88.4067 443.289 95.6747 451.441C102.942 459.593 114.017 462.903 124.575 460.079L475.356 366.25C485.914 363.426 493.848 355.032 496.058 344.345C498.27 333.657 494.317 322.814 485.742 316.044ZM86.4161 184.36C83.4871 173.448 89.9975 162.191 100.929 159.268L345.168 93.9375C356.099 91.0135 367.375 97.5126 370.304 108.425L416.412 280.204L132.524 356.139L86.4161 184.36ZM471.939 339.373C471.748 340.297 471.11 341.933 468.982 342.502L118.201 436.33C116.072 436.9 114.701 435.801 114.072 435.096C113.443 434.392 112.509 432.903 113.323 430.859L132.977 381.471L428.708 302.368L470.466 335.329C472.194 336.694 472.131 338.448 471.939 339.373Z" fill="#455A64" fill-opacity="0.1"/>
<path d="M261.933 141.654L196.908 159.047C190.339 160.804 186.441 167.545 188.201 174.103C189.961 180.661 196.714 184.553 203.283 182.796L268.308 165.402C274.877 163.645 278.775 156.904 277.015 150.347C275.255 143.789 268.502 139.897 261.933 141.654Z" fill="#455A64" fill-opacity="0.1"/>
</g>
<defs>
<clipPath id="clip0_381_1195">
<rect width="420.623" height="419.99" fill="white" transform="matrix(0.966038 -0.2584 0.259239 0.965813 0.710938 109.538)"/>
</clipPath>
</defs>
</svg>
