<svg width="29" height="29" viewBox="0 0 29 29" fill="none" xmlns="http://www.w3.org/2000/svg">
<g clip-path="url(#clip0_381_1330)">
<path d="M22.5872 0.978516H6.36954C3.26043 0.978516 0.730957 3.50799 0.730957 6.6171V22.8347C0.730957 25.9439 3.26043 28.4733 6.36954 28.4733H22.5872C25.6963 28.4733 28.2258 25.9439 28.2258 22.8347V6.6171C28.2258 3.50799 25.6963 0.978516 22.5872 0.978516ZM20.8529 8.81884L14.4761 15.1955L8.09941 8.81884H20.8529ZM6.24893 19.1312C6.189 19.0185 6.15474 18.89 6.15474 18.7535V9.62435C6.15474 9.48784 6.189 9.35933 6.24893 9.24667L11.1912 14.1889L6.24893 19.1312ZM8.09941 19.559L12.3303 15.3281L14.4762 17.4739L16.6242 15.3259L20.8573 19.559H8.09941ZM22.802 18.7535C22.802 18.89 22.7677 19.0185 22.7078 19.1312L17.7633 14.1867L22.7063 9.24366C22.7673 9.35702 22.802 9.4866 22.802 9.62435V18.7535Z" fill="#1E1E1E"/>
</g>
<defs>
<clipPath id="clip0_381_1330">
<rect width="27.4948" height="27.4948" fill="white" transform="translate(0.731445 0.978516)"/>
</clipPath>
</defs>
</svg>
