<svg width="531" height="530" viewBox="0 0 531 530" fill="none" xmlns="http://www.w3.org/2000/svg">
<path d="M179.796 460.751C167.339 460.751 169.47 456.042 165.164 444.218L128.584 323.793L410.219 156.708L179.796 460.751Z" fill="#ECEFF1" fill-opacity="0.1"/>
<path d="M179.798 460.75C189.404 460.75 193.653 456.357 198.995 451.144L250.207 401.344L186.322 362.834L179.798 460.75Z" fill="#CFD8DC" fill-opacity="0.1"/>
<path d="M186.317 362.865L341.089 477.212C358.774 486.947 371.49 481.907 375.897 460.809L438.903 163.923C445.355 138.058 429.053 126.336 412.146 133.997L42.2018 276.658C16.9417 286.782 17.1145 300.881 37.5933 307.145L132.528 336.784L352.308 198.127C362.691 191.833 372.21 195.218 364.405 202.159L186.317 362.865Z" fill="white" fill-opacity="0.1"/>
<path d="M356.631 489.195C350.841 489.195 344.491 487.294 337.621 483.507L182.042 368.641C180.3 367.359 179.234 365.357 179.119 363.197C179.018 361.037 179.882 358.949 181.495 357.494L365.776 191.662C368.728 188.997 373.279 189.228 375.943 192.194C378.607 195.147 378.363 199.698 375.41 202.362L197.697 362.304L345.369 471.409C349.272 473.498 355.868 476.147 360.562 473.973C365.344 471.784 367.706 464.799 368.858 459.327L431.864 162.412C434.312 152.605 433.131 144.713 428.768 141.084C425.441 138.319 420.487 138.117 415.129 140.537L44.7824 283.37C33.4197 287.935 29.8481 292.63 29.9057 294.185C29.9489 295.208 32.3972 298.031 39.6987 300.263L131.508 328.922L232.303 265.325C235.673 263.222 240.109 264.216 242.226 267.572C244.343 270.927 243.349 275.377 239.979 277.494L136.375 342.862C134.59 343.986 132.386 344.274 130.384 343.654L35.4503 314.016C18.6006 308.86 15.7203 299.759 15.5187 294.79C15.2307 287.978 19.1622 278.128 39.5259 269.977L409.571 127.287C419.608 122.708 430.381 123.687 437.999 130.038C446.827 137.397 449.707 150.387 445.905 165.667L382.957 462.308C380.307 474.952 374.806 483.29 366.582 487.064C363.486 488.489 360.174 489.195 356.631 489.195Z" fill="#455A64" fill-opacity="0.1"/>
<path d="M356.631 489.195C350.841 489.195 344.491 487.294 337.621 483.507L240.843 412.09C237.646 409.728 236.955 405.206 239.331 402.023C241.693 398.826 246.215 398.135 249.398 400.511L345.369 471.409C349.272 473.498 355.868 476.147 360.562 473.973C365.344 471.784 367.706 464.799 368.858 459.327L431.864 162.412C434.312 152.605 433.131 144.713 428.768 141.084C425.441 138.319 420.487 138.117 415.129 140.537L44.7824 283.37C33.4197 287.935 29.8481 292.63 29.9057 294.185C29.9489 295.208 32.3972 298.031 39.6987 300.263L134.662 329.901C136.937 330.607 138.708 332.407 139.414 334.682L172.062 442.131C172.941 444.536 173.618 446.927 174.208 449.001C174.669 450.642 175.245 452.687 175.634 453.292C175.576 453.22 176.728 453.566 179.796 453.58C186.233 453.58 188.681 451.175 193.578 446.408L217.484 423.165C220.336 420.371 224.887 420.457 227.666 423.309C230.431 426.16 230.374 430.725 227.522 433.49L204.019 456.317C198.23 461.976 192.095 467.967 179.796 467.967C165.682 467.967 162.831 461.717 160.339 452.904C159.835 451.118 159.259 449.058 158.395 446.682L126.741 342.517L35.4503 314.016C18.6006 308.86 15.7203 299.759 15.5187 294.79C15.2307 287.978 19.1622 278.128 39.5259 269.977L409.571 127.287C419.608 122.708 430.381 123.687 437.999 130.038C446.827 137.397 449.707 150.387 445.905 165.667L382.957 462.308C380.307 474.952 374.806 483.29 366.582 487.064C363.486 488.489 360.174 489.195 356.631 489.195Z" fill="#455A64" fill-opacity="0.1"/>
<path d="M267.528 256.423C267.528 260.384 264.288 263.624 260.328 263.624C256.367 263.624 253.127 260.384 253.127 256.423C253.127 252.463 256.367 249.223 260.328 249.223C264.288 249.223 267.528 252.463 267.528 256.423Z" fill="#455A64" fill-opacity="0.1"/>
</svg>
