<svg width="41" height="42" viewBox="0 0 41 42" fill="none" xmlns="http://www.w3.org/2000/svg">
<path d="M26.1346 16.9896C26.1346 19.9107 23.7662 22.2791 20.8451 22.2791C17.924 22.2791 15.5556 19.9107 15.5556 16.9896C15.5556 14.0684 17.924 11.7001 20.8451 11.7001C23.7662 11.7001 26.1346 14.0684 26.1346 16.9896ZM28.2504 33.5634C29.2245 33.5634 30.0136 32.7743 30.0136 31.8002V29.6844C30.0136 29.6844 29.6609 23.6896 24.0188 23.6896H17.6714C12.0292 23.6896 11.6766 29.6844 11.6766 29.6844V31.8002C11.6766 32.7743 12.466 33.5634 13.4398 33.5634H28.2504ZM17.5633 10.752C16.6806 9.41226 15.1644 8.52637 13.4398 8.52637C10.7133 8.52637 8.5029 10.7368 8.5029 13.4632C8.5029 16.1897 10.7133 18.4001 13.4398 18.4001C13.6063 18.4001 13.771 18.3913 13.9335 18.375C13.8433 17.9269 13.7924 17.4644 13.7924 16.9896C13.7924 14.2854 15.3239 11.9352 17.5633 10.752ZM15.9835 22.0862C15.2216 21.359 14.6287 20.4605 14.2501 19.458H9.91344C5.3292 19.458 4.97656 24.7702 4.97656 24.7702V26.5107C4.97656 27.4848 5.76599 28.2739 6.73973 28.2739H10.1066C10.6288 25.8948 12.2671 22.8105 15.9835 22.0862ZM27.8978 16.9896C27.8978 17.4644 27.847 17.9269 27.7566 18.375C27.9192 18.3913 28.0839 18.4001 28.2504 18.4001C30.9772 18.4001 33.1873 16.1897 33.1873 13.4632C33.1873 10.7368 30.9772 8.52637 28.2504 8.52637C26.5258 8.52637 25.0097 9.41226 24.1269 10.752C26.366 11.9352 27.8978 14.2854 27.8978 16.9896ZM31.7768 19.458H27.4401C27.0615 20.4605 26.4686 21.359 25.707 22.0862C29.4234 22.8105 31.0614 25.8948 31.5839 28.2739H34.9505C35.9245 28.2739 36.7136 27.4848 36.7136 26.5107V24.7702C36.7136 24.7702 36.361 19.458 31.7768 19.458Z" fill="#6D6E71"/>
</svg>
