<svg width="82" height="82" viewBox="0 0 82 82" fill="none" xmlns="http://www.w3.org/2000/svg">
<g clip-path="url(#clip0_89_840)">
<mask id="mask0_89_840" style="mask-type:luminance" maskUnits="userSpaceOnUse" x="0" y="0" width="82" height="82">
<path d="M81.1237 0.90918H0.879883V81.153H81.1237V0.90918Z" fill="white"/>
</mask>
<g mask="url(#mask0_89_840)">
<path d="M71.7306 33.509C72.8405 33.509 73.9688 33.3106 75.0659 32.8931C79.9116 31.0479 82.3531 25.6048 80.5078 20.7591C78.6626 15.9134 73.2195 13.4719 68.3738 15.3171C63.5281 17.1617 61.0872 22.6055 62.9324 27.4506C64.3596 31.1997 67.9392 33.509 71.7306 33.509ZM70.6048 21.176C70.9702 21.0364 71.3467 20.9702 71.7164 20.9702C72.9801 20.9702 74.1739 21.7405 74.6497 22.9894C75.2642 24.605 74.4506 26.4195 72.8356 27.0342C71.2206 27.6495 69.406 26.8359 68.7907 25.2203C68.1761 23.6052 68.9897 21.7907 70.6048 21.176ZM61.8372 30.2006C60.6587 26.2384 57.0895 23.5361 52.9565 23.4773C51.7026 23.4614 50.4739 23.6904 49.312 24.1599L28.0688 32.6647C25.7155 33.5831 23.866 35.3652 22.8608 37.6837C21.853 40.0077 21.8181 42.5826 22.7634 44.9329L23.9749 47.9456L0.879883 57.0743L0.892127 57.1055H0.879883V67.6061H81.1219V61.3371H71.1826L61.8372 30.2006ZM28.5794 42.5936C28.2648 41.8099 28.2757 40.9517 28.6119 40.1773C28.9479 39.4027 29.5663 38.8077 30.3536 38.5022L51.6513 29.9759C52.0436 29.8174 52.4514 29.739 52.867 29.7457C54.2451 29.7653 55.4359 30.6665 55.8314 31.9956L64.6374 61.3371H7.14954L52.6872 43.3368L50.8927 37.3053L29.8051 45.6413L28.5794 42.5936Z" fill="#5D87B5"/>
</g>
</g>
<defs>
<clipPath id="clip0_89_840">
<rect width="80.2439" height="80.2439" fill="white" transform="translate(0.881836 0.90918)"/>
</clipPath>
</defs>
</svg>
