<svg width="67" height="67" viewBox="0 0 67 67" fill="none" xmlns="http://www.w3.org/2000/svg">
<path d="M32.0514 22.8192L42.6114 33.3791L32.0514 43.9391C30.797 45.1935 30.797 47.2159 32.0514 48.4703C33.3058 49.7247 35.3282 49.7247 36.5826 48.4703L49.4082 35.6447C50.6625 34.3903 50.6625 32.3679 49.4082 31.1135L36.5826 18.288C35.3282 17.0336 33.3058 17.0336 32.0514 18.288C30.8098 19.5424 30.8098 21.5648 32.0514 22.8192Z" fill="#207BFF"/>
<path d="M22.5025 18.2872L35.3281 31.1127C36.5825 32.3671 36.5825 34.3895 35.3281 35.6439L22.5025 48.4695C21.2481 49.7239 19.2257 49.7239 17.9713 48.4695C16.7169 47.2151 16.7169 45.1927 17.9713 43.9383L28.5313 33.3783L17.9713 22.8183C16.7169 21.5639 16.7169 19.5416 17.9713 18.2872C19.2257 17.0456 21.2481 17.0456 22.5025 18.2872Z" fill="#207BFF" fill-opacity="0.67"/>
</svg>
