<svg width="67" height="68" viewBox="0 0 67 68" fill="none" xmlns="http://www.w3.org/2000/svg">
<path d="M31.9232 23.2077L42.4832 34.0076L31.9232 44.8076C30.6688 46.0905 30.6688 48.1589 31.9232 49.4418C33.1776 50.7247 35.2 50.7247 36.4544 49.4418L49.28 36.3247C50.5344 35.0418 50.5344 32.9735 49.28 31.6906L36.4544 18.5735C35.2 17.2906 33.1776 17.2906 31.9232 18.5735C30.6816 19.8564 30.6816 21.9248 31.9232 23.2077Z" fill="#1E1E1E"/>
<path d="M22.3743 18.5735L35.1999 31.6905C36.4543 32.9734 36.4543 35.0418 35.1999 36.3247L22.3743 49.4417C21.1199 50.7246 19.0975 50.7246 17.8431 49.4417C16.5887 48.1588 16.5887 46.0905 17.8431 44.8076L28.4031 34.0076L17.8431 23.2076C16.5887 21.9247 16.5887 19.8564 17.8431 18.5735C19.0975 17.3036 21.1199 17.3036 22.3743 18.5735Z" fill="#5A5A5A"/>
</svg>
