<?xml version="1.0" encoding="UTF-8"?>
<svg id="Layer_1" data-name="Layer 1" xmlns="http://www.w3.org/2000/svg" viewBox="0 0 705.49 163.95">
  <defs>
    <style>
      .cls-1 {
        fill: #00274f;
      }

      .cls-1, .cls-2 {
        stroke-width: 0px;
      }

      .cls-2 {
        fill: #e4003a;
      }
    </style>
  </defs>
  <polygon class="cls-2" points="397.28 0 308.93 11.56 308.93 37.76 397.28 29.86 397.28 0"/>
  <path class="cls-1" d="m127.32,95.4c0,15.9,4.73,21.42,19.92,21.42s19.84-5.52,19.84-21.42-4.58-21.42-19.84-21.42-19.92,5.44-19.92,21.42Zm-26.69-.24c0-29.13,16.15-42.45,46.62-42.45s46.7,13.32,46.7,42.45-16.07,42.92-46.7,42.92-46.62-13.79-46.62-42.92Z"/>
  <path class="cls-1" d="m380.55,60.03l-71.62-48.47v26.16l22.33,15.13,4.39,2.57c-7.99.1-11.86,1.73-15.72,4.06-11.03,6.66-16.75,18.38-16.75,35.69,0,29.13,16.07,42.92,46.62,42.92s46.7-13.79,46.7-42.92c0-16.85-5.46-28.38-15.94-35.13Zm-30.76,56.79c-15.19,0-19.92-5.52-19.92-21.42s4.73-21.42,19.92-21.42,19.84,5.44,19.84,21.42-4.58,21.42-19.84,21.42Z"/>
  <path class="cls-1" d="m54.65,52.57c-14.42,0-26.15,8.91-29.06,12.6v-10.72H0v109.49h25.44v-38.93c2.99,3.78,14.64,12.53,29.13,12.53,24.09,0,37.33-13.08,37.33-42.53s-13.24-42.45-37.25-42.45Zm-9.11,63.75c-15.19,0-19.92-5.52-19.92-21.42s4.73-21.42,19.92-21.42,19.84,5.44,19.84,21.42-4.58,21.42-19.84,21.42Z"/>
  <polygon class="cls-1" points="571.54 54.54 571.54 84.26 537.76 84.26 537.76 54.54 512.16 54.54 512.16 134.97 537.76 134.97 537.76 104.84 571.54 104.84 571.54 134.97 597.14 134.97 597.14 54.54 571.54 54.54"/>
  <path class="cls-1" d="m405.3,95.02c0,29.45,13.24,42.53,37.33,42.53,14.5,0,26.15-8.75,29.13-12.53v9.95s25.44,0,25.44,0V54.46s-25.6,0-25.6,0v10.72c-2.91-3.7-14.63-12.6-29.06-12.6-24.01,0-37.25,13.08-37.25,42.45Zm26.52-.12c0-15.98,4.58-21.42,19.84-21.42,15.19,0,19.92,5.44,19.92,21.42,0,15.9-4.73,21.42-19.92,21.42-15.27,0-19.84-5.52-19.84-21.42Z"/>
  <path class="cls-1" d="m268.22,105.25c-1.96,8.41-7.39,11.57-18.93,11.57-15.19,0-19.92-5.52-19.92-21.42s4.73-21.42,19.92-21.42c11.56,0,16.98,3.13,18.94,11.57l26.7-2.02c-3.99-21.04-19.59-30.82-45.64-30.82-30.47,0-46.62,13.32-46.62,42.45s16.07,42.92,46.62,42.92c26,0,41.47-9.99,45.56-30.82l-26.63-2.02Z"/>
  <polygon class="cls-1" points="705.49 134.96 664.97 92.73 703.31 54.54 671.65 54.54 637.29 89.48 637.29 54.54 612.14 54.54 612.14 134.96 637.29 134.96 637.29 106.84 637.29 99.87 637.29 97.93 672.58 134.96 705.49 134.96"/>
</svg>