<svg width="167" height="46" viewBox="0 0 167 46" fill="none" xmlns="http://www.w3.org/2000/svg">
<g clip-path="url(#clip0_381_1379)">
<path d="M131.426 14.0578L137.547 9.54541H117.056V36.6487H137.547V32.1363H122.904V25.198H135.396V20.6856H122.904V14.0578H131.426Z" fill="#21A049"/>
<path d="M101.589 20.1093H94.4722V14.0578H105.831L111.954 9.54541H88.624V36.6487H100.834C107.683 36.6487 111.61 33.5437 111.61 28.1333C111.61 22.9597 108.052 20.1093 101.589 20.1093ZM100.571 32.1341H94.4722V24.6217H100.571C104.281 24.6217 106.01 25.8793 106.01 28.379C106.01 30.9323 104.181 32.1341 100.571 32.1341Z" fill="#21A049"/>
<path d="M154.15 9.54541H142.994V36.6465H148.84V28.971H154.15C161.269 28.971 165.692 25.2271 165.692 19.2448C165.692 13.2625 161.269 9.54541 154.15 9.54541ZM154.02 24.4586H148.84V14.0578H154.02C157.769 14.0578 159.828 15.9052 159.828 19.2582C159.828 22.6112 157.767 24.4586 154.02 24.4586Z" fill="#21A049"/>
<path d="M78.5851 30.7792C77.0355 31.6187 75.299 32.0535 73.5366 32.0436C68.2648 32.0436 64.4382 28.2795 64.4382 23.0948C64.4382 17.91 68.2648 14.1571 73.5366 14.1571C75.4422 14.1294 77.3064 14.7135 78.8554 15.8236L83.0506 12.7319L82.7736 12.4884C80.3164 10.3372 77.0527 9.2002 73.311 9.2002C69.2521 9.2002 65.5685 10.5673 62.9393 13.0536C60.31 15.5399 58.8379 19.0694 58.8379 22.9563C58.8379 26.8432 60.2899 30.4307 62.9258 33.0086C65.5618 35.5864 69.2432 37.0161 73.273 37.0161C77.4883 37.0161 81.1697 35.5462 83.6672 32.8723L79.8808 30.0822L78.5851 30.7792Z" fill="#21A049"/>
<path d="M44.926 22.9627C44.9264 21.6211 44.8068 20.2822 44.5686 18.9619L39.7591 22.5048C39.7591 22.6567 39.7591 22.8108 39.7591 22.9516C39.7644 26.7955 38.4819 30.5305 36.1163 33.5604C33.7507 36.5903 30.4383 38.7405 26.7079 39.6678C22.9774 40.5951 19.0438 40.2461 15.5349 38.6765C12.026 37.1068 9.14393 34.4071 7.34874 31.008C5.55356 27.6089 4.94869 23.7065 5.63066 19.9235C6.31264 16.1405 8.24216 12.6949 11.1113 10.1367C13.9804 7.57851 17.6238 6.05508 21.4599 5.80958C25.296 5.56407 29.1039 6.61064 32.2757 8.78224L36.6205 5.5789C32.678 2.39734 27.771 0.650421 22.7049 0.624798C17.6388 0.599175 12.7145 2.29637 8.73992 5.43789C4.76538 8.5794 1.97674 12.9786 0.831594 17.9137C-0.313553 22.8487 0.252819 28.0265 2.43777 32.5973C4.62273 37.168 8.29648 40.8604 12.8562 43.0684C17.4159 45.2763 22.5907 45.8688 27.5315 44.7486C32.4722 43.6283 36.8855 40.8619 40.047 36.9033C43.2085 32.9446 44.9305 28.0289 44.9305 22.9627H44.926Z" fill="#21A049"/>
<path d="M40.2637 9.30566C41.3258 10.6775 42.2253 12.1677 42.9444 13.7466L22.5873 28.7491L14.083 23.4169V17.0035L22.5873 22.3335L40.2637 9.30566Z" fill="#21A049"/>
</g>
<defs>
<clipPath id="clip0_381_1379">
<rect width="166.126" height="44.9664" fill="white" transform="translate(0.246094 0.624512)"/>
</clipPath>
</defs>
</svg>
