<?xml version="1.0" encoding="UTF-8"?>
<svg id="SITRONICS_group" xmlns="http://www.w3.org/2000/svg" xmlns:xlink="http://www.w3.org/1999/xlink" viewBox="0 0 949.81 184.76">
  <defs>
    <style>
      .cls-1, .cls-2 {
        stroke-width: 0px;
      }

      .cls-2 {
        fill: url(#_Безымянный_градиент_203);
      }
    </style>
    <linearGradient id="_Безымянный_градиент_203" data-name="Безымянный градиент 203" x1="71.31" y1="-288.82" x2="71.79" y2="-288.11" gradientTransform="translate(-17168.16 -56450.5) scale(241.21 -196.01)" gradientUnits="userSpaceOnUse">
      <stop offset=".22" stop-color="#a954ff"/>
      <stop offset="1" stop-color="#19c2ff"/>
    </linearGradient>
  </defs>
  <g>
    <g>
      <path class="cls-1" d="m425.84,35.55l-11.23,19.41c-2.39,3.67-2.37,5.86-2.33,10.2,0,.56.01,1.15.01,1.8l-.02,53.24h20.24s.03-68.64.03-68.64l47.68.02v-20.24s-46.02-.03-46.02-.03c-2.36,0-5.79.43-8.36,4.24Z"/>
      <path class="cls-1" d="m390.48,31.3c-.42,0-.84,0-1.26,0-2.07.05-4.41.4-7.36,2.62l-7.83,5.62v-8.25s-.01.18-.01.18V6.81s-20.24,0-20.24,0l-.03,93.76c0,2.44.93,4.79,2.73,6.98l7.87,10.25.04.04c1.7,1.96,3.97,2.96,6.72,2.96h26.49s0-20.23,0-20.23h-23.61s.01-49.03.01-49.03h23.59v-20.24h-6.51s-.61,0-.61,0Z"/>
      <path class="cls-1" d="m304.81,86.68h.03s-.09-.05-.13-.07c-.42-.3-.87-.6-1.36-.89-4.58-2.75-23.98-13.96-39.96-23.21-7.75-4.52-14.72-8.57-18.7-10.87l60.85.05v-20.24h-.16s0-.03,0-.03l-51.93-.02c-1.04.03-2.08.12-3.08.41-1.6.46-3.15,1.13-4.86,2.1h-.01s-.3.18-.3.18c-.28.16-.58.35-.9.54l-13.25,7.99c-2.74,1.39-4.66,3.05-5.64,4.9-.72,1.36-.83,2.33-1.47,4.52-.28,1.06-.51,2-.67,2.7-.96,4.31.08,7.36,3.53,9.95h0s.03.02.04.03c.55.41,1.16.81,1.83,1.2h0c.31.2.6.37.82.5h0s.12.08.12.08l.45.25c2.62,1.51,14.51,8.43,26.04,15.15,12.14,7.07,25.15,14.65,31.21,18.16l-60.69-.02v20.24l51.93.02c1.04-.03,2.08-.12,3.08-.41,1.6-.46,3.15-1.13,4.86-2.1h.01s.3-.18.3-.18c.28-.16.58-.35.9-.54l13.25-7.99c2.74-1.39,4.66-3.05,5.64-4.9.72-1.36.83-2.33,1.47-4.52.28-1.06.51-2,.67-2.7,1-4.48-.15-7.55-3.93-10.27Z"/>
      <rect class="cls-1" x="319.5" y="6.31" width="20.24" height="18.54"/>
      <path class="cls-1" d="m586.39,54.11c-.07-1.8-.28-3.15-.94-4.59-.89-1.95-2.75-3.75-5.47-5.34l-13.06-8.95c-.31-.22-.61-.42-.9-.61l-.25-.17h0c-1.71-1.11-3.27-1.9-4.89-2.46-2.18-.76-4.76-.7-6.64-.65-.38.01-.72.02-1.02.02h-16.74s-16.74-.01-16.74-.01c-.3,0-.64,0-1.02-.02-1.88-.05-4.45-.11-6.64.65-1.62.57-3.18,1.35-4.89,2.46l-.25.17c-.29.19-.59.4-.89.61l-13.02,8.91c-2.77,1.62-4.64,3.43-5.53,5.37-.66,1.43-.88,2.79-.94,4.59l-.05,41.53v1.84h.03c.07,1.8.28,3.15.94,4.59.89,1.95,2.75,3.75,5.47,5.34l13.06,8.95c.31.22.61.43.89.61l.29.2h.01c1.69,1.1,3.24,1.88,4.85,2.44,2.18.76,4.76.7,6.64.65.38-.01.72-.02,1.02-.02h16.74s16.74.01,16.74.01c.3,0,.64,0,1.02.02.48.01,1.01.03,1.57.03,1.61,0,3.45-.11,5.07-.67,1.61-.56,3.16-1.34,4.85-2.43l.29-.19c.29-.19.59-.4.89-.61l13.03-8.91c2.77-1.62,4.63-3.43,5.53-5.37.66-1.43.88-2.79.94-4.59l.05-41.53v-1.84h-.03Zm-20.23,45.85l-59.43-.02.02-48.34,59.43.02-.02,48.34Z"/>
      <rect class="cls-1" x="319.48" y="31.29" width="20.24" height="88.89"/>
      <path class="cls-1" d="m906.29,86.68h.03s-.09-.05-.13-.07c-.42-.3-.87-.6-1.36-.89-4.58-2.75-23.98-13.96-39.96-23.21-7.75-4.52-14.72-8.57-18.7-10.87l60.85.05v-20.24h-.16s0-.03,0-.03l-51.93-.02c-1.04.03-2.08.12-3.08.41-1.6.46-3.15,1.13-4.86,2.1h-.01s-.3.18-.3.18c-.28.16-.58.35-.9.54l-13.25,7.99c-2.74,1.39-4.66,3.05-5.64,4.9-.72,1.36-.83,2.33-1.47,4.52-.28,1.06-.51,2-.67,2.7-.96,4.31.08,7.36,3.53,9.95h0s.03.02.04.03c.55.41,1.16.81,1.83,1.2h0c.31.2.6.37.82.5h0s.12.08.12.08l.45.25c2.62,1.51,14.51,8.43,26.04,15.15,12.14,7.07,25.15,14.65,31.21,18.16l-60.69-.02v20.24l51.93.02c1.04-.03,2.08-.12,3.08-.41,1.6-.46,3.15-1.13,4.86-2.1h.01s.3-.18.3-.18c.28-.16.58-.35.9-.54l13.25-7.99c2.74-1.39,4.66-3.05,5.64-4.9.72-1.36.83-2.33,1.47-4.52.28-1.06.51-2,.67-2.7,1-4.48-.15-7.55-3.93-10.27Z"/>
      <rect class="cls-1" x="928.48" y="31.5" width="3.92" height="18.27"/>
      <path class="cls-1" d="m761.13,31.41c-1.88-.05-4.46-.11-6.64.65-1.62.57-3.18,1.34-4.88,2.45l-.26.17c-.29.19-.59.4-.89.61l-13.03,8.91c-2.77,1.62-4.64,3.43-5.53,5.37-.66,1.43-.88,2.79-.94,4.59l-.05,41.53v1.84h.03c.07,1.8.28,3.15.94,4.59.89,1.95,2.75,3.75,5.47,5.34l13.06,8.95c.31.22.61.43.89.61l.3.2h.01c1.69,1.1,3.23,1.87,4.84,2.43,1.62.57,3.46.68,5.07.68.56,0,1.09-.01,1.57-.02.38,0,.72-.02,1.02-.02l50.99.02v-20.26s-63.95-.02-63.95-.02l.02-48.34,63.96.03v-20.26s-50.98-.02-50.98-.02c-.3,0-.64,0-1.02-.02Z"/>
      <polygon class="cls-1" points="934.7 31.51 934.7 35.03 940.31 35.03 940.3 49.78 944.19 49.78 944.2 35.03 949.81 35.04 949.81 31.51 934.7 31.51"/>
      <path class="cls-1" d="m670.72,34.42l-.04-.04c-1.7-1.96-3.97-2.96-6.72-2.96h-29.75s-.61-.01-.61-.01c-.42,0-.84,0-1.26,0-2.08.05-4.41.4-7.36,2.62l-7.83,5.62v-8.25s-20.24,0-20.24,0l-.03,88.89h20.24s.03-68.64.03-68.64l43.93.02-.03,68.64h20.24s.03-68.65.03-68.65c0-2.44-.93-4.79-2.73-6.98l-7.87-10.25Z"/>
      <rect class="cls-1" x="695.14" y="31.43" width="20.24" height="88.89"/>
      <rect class="cls-1" x="695.17" y="6.45" width="20.24" height="18.54"/>
    </g>
    <g>
      <path class="cls-1" d="m744.62,148.72c3.72,0,7.4.79,10.52,2.28v5.51c-2.63-1.69-6.16-2.58-9.73-2.58-6.8,0-13.65,3.72-13.65,12.81,0,9.93,7.2,12.86,13.5,12.86,1.94,0,3.82-.35,5.21-.99v-13.15h5.51v16.98c-3.33,1.49-7.25,2.33-11.07,2.33-9.63,0-18.96-5.06-18.96-18.02,0-12.26,9.33-18.02,18.66-18.02Z"/>
      <path class="cls-1" d="m765.02,184.12v-34.75h13.9c6.5,0,13.35,2.58,13.35,10.87,0,6.2-3.87,9.18-8.44,10.28l11.12,13.6h-6.8l-10.42-13.01h-7.05v13.01h-5.66Zm5.66-18.02h8.49c3.72,0,7.35-1.34,7.35-5.76s-3.62-5.81-7.35-5.81h-8.49v11.57Z"/>
      <path class="cls-1" d="m817.39,148.72c12.21,0,18.27,8.84,18.27,18.02s-6.06,18.02-18.27,18.02-18.27-8.84-18.27-18.02,6.01-18.02,18.27-18.02Zm0,5.31c-8.39,0-12.51,6.06-12.51,12.71s4.12,12.71,12.51,12.71,12.51-6.06,12.51-12.71-4.07-12.71-12.51-12.71Z"/>
      <path class="cls-1" d="m873.19,149.37v21.89c0,10.08-7.1,13.5-14.79,13.5s-14.89-3.42-14.89-13.5v-21.89h5.66v21.59c0,6.3,3.82,8.54,9.23,8.54s9.13-2.23,9.13-8.54v-21.59h5.66Z"/>
      <path class="cls-1" d="m895.67,149.37c8.24,0,14.84,2.58,14.84,11.42s-6.6,11.42-14.84,11.42h-6.75v11.91h-5.66v-34.75h12.41Zm.3,5.16h-7.05v12.51h7.05c4.77,0,8.79-1.19,8.79-6.26s-3.97-6.26-8.79-6.26Z"/>
    </g>
  </g>
  <path class="cls-2" d="m180.01,57.82l-80.96,23.38-16.28,55.07L0,160.16l17.09-57.82,80.96-23.38,16.28-55.06L197.1,0l-17.09,57.82ZM4.9,91.53l17.09-57.82L104.76,9.81l-17.09,57.82L4.9,91.53Zm188.11-23.7l-17.09,57.82-82.77,23.9,17.09-57.82,82.77-23.9Z"/>
</svg>