<svg width="105" height="105" viewBox="0 0 105 105" fill="none" xmlns="http://www.w3.org/2000/svg">
<g clip-path="url(#clip0_89_729)">
<path d="M90.9487 104.235H82.1937L52.1118 103.826L22.0299 104.235H13.2741C11.4258 104.235 9.92725 102.737 9.92725 100.888C9.92725 83.0319 24.4025 68.5569 42.2584 68.5569H61.9642C79.8203 68.5569 94.2953 83.0321 94.2953 100.888C94.2956 102.737 92.797 104.235 90.9487 104.235Z" fill="url(#paint0_linear_89_729)"/>
<path d="M87.715 90.0423C87.1468 90.0423 86.6012 89.7251 86.3363 89.1799C84.0315 84.438 80.5049 80.4343 76.1379 77.6016C71.6582 74.6958 66.4767 73.1601 61.154 73.1601H43.0704C37.7475 73.1601 32.5661 74.6958 28.0864 77.6016C23.7193 80.4343 20.1927 84.438 17.8881 89.1799C17.5182 89.9406 16.6015 90.2575 15.841 89.8879C15.0801 89.518 14.7632 88.6015 15.133 87.8408C17.6816 82.5971 21.5844 78.1677 26.4196 75.0315C31.397 71.8031 37.1547 70.0969 43.0706 70.0969H61.1542C67.0701 70.0969 72.8278 71.8033 77.8049 75.0315C82.6402 78.1679 86.543 82.5971 89.0916 87.8408C89.4614 88.6015 89.1445 89.518 88.3836 89.8879C88.1677 89.9926 87.9394 90.0423 87.715 90.0423Z" fill="white"/>
<path d="M65.5367 68.7542C67.1371 70.7806 68.0669 73.1924 68.0669 75.7814C68.0669 82.9617 60.9234 88.7818 52.1115 88.7818C51.4192 88.7818 50.7371 88.7451 50.0693 88.6757V103.854L52.1119 103.826L82.1938 104.235H90.9487C92.7971 104.235 94.2957 102.737 94.2957 100.888C94.2957 84.2397 81.7114 70.5325 65.5367 68.7542Z" fill="url(#paint1_linear_89_729)"/>
<path d="M9.92725 100.888C9.92725 102.736 11.4256 104.235 13.2741 104.235H22.0299L52.1118 103.827L82.1937 104.235H90.9487C92.797 104.235 94.2956 102.736 94.2956 100.888C94.2956 98.3245 93.9958 95.8312 93.4319 93.4401H10.7909C10.227 95.8312 9.92725 98.3245 9.92725 100.888Z" fill="url(#paint2_linear_89_729)"/>
<path d="M52.1113 90.3482C41.0759 90.3482 32.0981 80.6375 32.0981 68.7013H35.1614C35.1614 78.9485 42.765 87.285 52.1113 87.285C61.4577 87.285 69.0613 78.9485 69.0613 68.7013H72.1245C72.1245 80.6375 63.1466 90.3482 52.1113 90.3482Z" fill="url(#paint3_linear_89_729)"/>
<path d="M66.815 66.6591H52.1118V85.7838C58.2571 85.7838 64.1508 83.3426 68.4963 78.9973L72.5343 74.9593C73.6254 73.8682 75.0165 73.1456 76.5138 72.8724C77.3372 72.7221 77.7918 71.8205 77.4381 71.0618C76.598 69.2592 74.1202 66.6591 66.815 66.6591Z" fill="url(#paint4_linear_89_729)"/>
<path d="M37.4083 66.6591H52.1115V85.7838C45.9662 85.7838 40.0725 83.3426 35.7272 78.9973L31.6893 74.9593C30.5981 73.8682 29.207 73.1456 27.7099 72.8724C26.8865 72.7221 26.4321 71.8205 26.7856 71.0618C27.6254 69.2592 30.1031 66.6591 37.4083 66.6591Z" fill="url(#paint5_linear_89_729)"/>
<path d="M61.6083 71.6624C61.6083 76.9069 57.3567 85.7838 52.1123 85.7838C46.8678 85.7838 42.6162 76.9071 42.6162 71.6624C42.6162 66.418 46.8678 62.1664 52.1123 62.1664C57.3567 62.1664 61.6083 66.418 61.6083 71.6624Z" fill="url(#paint6_linear_89_729)"/>
<path d="M61.6078 71.6624C61.6078 76.9069 57.3563 85.7838 52.1118 85.7838C46.8673 85.7838 42.6157 76.9071 42.6157 71.6624C42.6157 66.418 46.8673 62.1664 52.1118 62.1664C57.3563 62.1664 61.6078 66.418 61.6078 71.6624Z" fill="url(#paint7_linear_89_729)"/>
<path d="M53.6423 94.8273V87.884C53.6423 87.0381 52.9566 86.3524 52.1107 86.3524C51.2649 86.3524 50.5791 87.0381 50.5791 87.884V94.8273C50.5791 95.6732 51.2649 96.359 52.1107 96.359C52.9566 96.359 53.6423 95.6732 53.6423 94.8273Z" fill="url(#paint8_linear_89_729)"/>
<path d="M55.1743 91.0836C53.4761 89.56 50.8384 89.5726 49.1536 91.1112C48.1754 92.0044 47.6865 93.2185 47.6865 94.4326V102.332C47.6865 102.969 48.2034 103.486 48.8412 103.486H50.1398C50.7773 103.486 51.2944 102.969 51.2944 102.332V100.937C51.2944 99.926 52.001 99.0325 52.9957 98.8502C53.8604 98.6915 54.6875 98.2782 55.3563 97.6094C57.1691 95.7963 57.1087 92.8189 55.1743 91.0836Z" fill="url(#paint9_linear_89_729)"/>
<path d="M52.1102 96.8832C53.4825 96.8832 54.5949 95.7707 54.5949 94.3985C54.5949 93.0262 53.4825 91.9138 52.1102 91.9138C50.7379 91.9138 49.6255 93.0262 49.6255 94.3985C49.6255 95.7707 50.7379 96.8832 52.1102 96.8832Z" fill="url(#paint10_linear_89_729)"/>
<path d="M21.7529 42.4652C21.7529 38.494 24.5096 35.1665 28.2137 34.2921C29.2038 34.0582 30.1503 34.824 30.1503 35.8415V49.089C30.1503 50.1064 29.2038 50.872 28.2137 50.6384C24.5096 49.7639 21.7529 46.4366 21.7529 42.4652Z" fill="url(#paint11_linear_89_729)"/>
<path d="M82.4682 42.4652C82.4682 38.494 79.7115 35.1665 76.0074 34.2921C75.0173 34.0582 74.0708 34.824 74.0708 35.8415V49.089C74.0708 50.1064 75.0173 50.872 76.0074 50.6384C79.7115 49.7639 82.4682 46.4366 82.4682 42.4652Z" fill="url(#paint12_linear_89_729)"/>
<path d="M52.1118 73.3993C38.6966 73.3993 27.8213 62.5241 27.8213 49.1087V36.652C27.8213 23.2368 38.6966 12.3615 52.1118 12.3615C65.527 12.3615 76.4023 23.2366 76.4023 36.652V49.1087C76.4023 62.5241 65.527 73.3993 52.1118 73.3993Z" fill="url(#paint13_linear_89_729)"/>
<path d="M53.4534 55.2181H50.7696C48.533 55.2181 46.8397 53.1969 47.2313 50.9949L48.7697 42.3463H55.4531L56.9917 50.9949C57.3833 53.1969 55.69 55.2181 53.4534 55.2181Z" fill="url(#paint14_linear_89_729)"/>
<path d="M41.3416 47.6919C39.392 47.6919 37.8115 46.1115 37.8115 44.1618V42.3514C37.8115 40.4018 39.392 38.8214 41.3416 38.8214C43.2913 38.8214 44.8717 40.4018 44.8717 42.3514V44.1618C44.8717 46.1115 43.2911 47.6919 41.3416 47.6919Z" fill="url(#paint15_linear_89_729)"/>
<path d="M62.8782 47.6919C60.9286 47.6919 59.3481 46.1115 59.3481 44.1618V42.3514C59.3481 40.4018 60.9286 38.8214 62.8782 38.8214C64.8279 38.8214 66.4083 40.4018 66.4083 42.3514V44.1618C66.4083 46.1115 64.8279 47.6919 62.8782 47.6919Z" fill="url(#paint16_linear_89_729)"/>
<path d="M74.0498 37.3869C79.7026 37.3869 84.2851 31.9645 84.2851 25.2757C84.2851 18.5868 79.7026 13.1644 74.0498 13.1644C68.397 13.1644 63.8145 18.5868 63.8145 25.2757C63.8145 31.9645 68.397 37.3869 74.0498 37.3869Z" fill="url(#paint17_linear_89_729)"/>
<path d="M55.925 5.26025C55.9105 5.26025 55.8962 5.26025 55.8817 5.26025C53.5465 5.26597 51.3009 4.39969 49.6004 2.79924C47.8121 1.11609 45.4036 0.0845947 42.7537 0.0845947C37.8369 0.0845947 33.7526 3.63673 32.9196 8.3141C25.0618 8.67169 18.8289 15.2628 19.0527 23.2595C19.2669 30.9127 25.4964 37.1533 33.1494 37.3804C37.4963 37.5095 41.4287 35.7299 44.1738 32.8182C46.2027 30.666 49.1944 29.7636 52.0821 30.4042C53.309 30.6764 54.5968 30.8214 55.9248 30.8214C64.2768 30.8214 71.0476 25.0995 71.0476 18.0409C71.0478 10.9824 64.2772 5.26025 55.925 5.26025Z" fill="url(#paint18_linear_89_729)"/>
</g>
<defs>
<linearGradient id="paint0_linear_89_729" x1="41.8708" y1="76.7057" x2="54.9408" y2="103.254" gradientUnits="userSpaceOnUse">
<stop stop-color="#8AC9FE"/>
<stop offset="1" stop-color="#0593FC"/>
</linearGradient>
<linearGradient id="paint1_linear_89_729" x1="75.2778" y1="98.0006" x2="53.7669" y2="78.532" gradientUnits="userSpaceOnUse">
<stop stop-color="#2740B0" stop-opacity="0"/>
<stop offset="0.9786" stop-color="#192A7E" stop-opacity="0.979"/>
<stop offset="1" stop-color="#192A7D"/>
</linearGradient>
<linearGradient id="paint2_linear_89_729" x1="52.1114" y1="96.3385" x2="52.1114" y2="107.918" gradientUnits="userSpaceOnUse">
<stop stop-color="#2740B0" stop-opacity="0"/>
<stop offset="0.9786" stop-color="#192A7E" stop-opacity="0.979"/>
<stop offset="1" stop-color="#192A7D"/>
</linearGradient>
<linearGradient id="paint3_linear_89_729" x1="55.1585" y1="80.0114" x2="57.6091" y2="87.6354" gradientUnits="userSpaceOnUse">
<stop stop-color="#5A5A5A"/>
<stop offset="1" stop-color="#444444"/>
</linearGradient>
<linearGradient id="paint4_linear_89_729" x1="61.1529" y1="74.5676" x2="66.9812" y2="80.3957" gradientUnits="userSpaceOnUse">
<stop stop-color="#FEE45A"/>
<stop offset="1" stop-color="#FEA613"/>
</linearGradient>
<linearGradient id="paint5_linear_89_729" x1="41.2305" y1="73.2357" x2="38.3714" y2="81.5406" gradientUnits="userSpaceOnUse">
<stop stop-color="#FEE45A"/>
<stop offset="1" stop-color="#FEA613"/>
</linearGradient>
<linearGradient id="paint6_linear_89_729" x1="52.1123" y1="67.1523" x2="52.1123" y2="84.0776" gradientUnits="userSpaceOnUse">
<stop stop-color="#FFDFCF"/>
<stop offset="1" stop-color="#FFA78F"/>
</linearGradient>
<linearGradient id="paint7_linear_89_729" x1="52.1118" y1="81.1524" x2="52.1118" y2="72.7374" gradientUnits="userSpaceOnUse">
<stop stop-color="#F89580" stop-opacity="0"/>
<stop offset="0.9972" stop-color="#C5715A"/>
</linearGradient>
<linearGradient id="paint8_linear_89_729" x1="50.5791" y1="91.3557" x2="53.6423" y2="91.3557" gradientUnits="userSpaceOnUse">
<stop stop-color="#FE93BB"/>
<stop offset="1" stop-color="#FE0364"/>
</linearGradient>
<linearGradient id="paint9_linear_89_729" x1="48.7209" y1="94.2324" x2="56.3618" y2="101.873" gradientUnits="userSpaceOnUse">
<stop stop-color="#FE93BB"/>
<stop offset="1" stop-color="#FE0364"/>
</linearGradient>
<linearGradient id="paint10_linear_89_729" x1="55.0203" y1="97.3085" x2="50.3562" y2="92.6447" gradientUnits="userSpaceOnUse">
<stop stop-color="#FE93BB"/>
<stop offset="1" stop-color="#FE0364"/>
</linearGradient>
<linearGradient id="paint11_linear_89_729" x1="24.2239" y1="38.8346" x2="30.9782" y2="45.5889" gradientUnits="userSpaceOnUse">
<stop stop-color="#FFDFCF"/>
<stop offset="1" stop-color="#FFA78F"/>
</linearGradient>
<linearGradient id="paint12_linear_89_729" x1="71.453" y1="37.5518" x2="80.9043" y2="47.0031" gradientUnits="userSpaceOnUse">
<stop stop-color="#FFDFCF"/>
<stop offset="1" stop-color="#FFA78F"/>
</linearGradient>
<linearGradient id="paint13_linear_89_729" x1="27.8213" y1="42.8806" x2="76.4023" y2="42.8806" gradientUnits="userSpaceOnUse">
<stop stop-color="#FFDFCF"/>
<stop offset="1" stop-color="#FFA78F"/>
</linearGradient>
<linearGradient id="paint14_linear_89_729" x1="52.1115" y1="47.3265" x2="52.1115" y2="56.8567" gradientUnits="userSpaceOnUse">
<stop stop-color="#F89580" stop-opacity="0"/>
<stop offset="0.9972" stop-color="#C5715A"/>
</linearGradient>
<linearGradient id="paint15_linear_89_729" x1="37.8115" y1="43.2567" x2="44.8717" y2="43.2567" gradientUnits="userSpaceOnUse">
<stop stop-color="#5A5A5A"/>
<stop offset="1" stop-color="#444444"/>
</linearGradient>
<linearGradient id="paint16_linear_89_729" x1="59.3481" y1="43.2567" x2="66.4083" y2="43.2567" gradientUnits="userSpaceOnUse">
<stop stop-color="#5A5A5A"/>
<stop offset="1" stop-color="#444444"/>
</linearGradient>
<linearGradient id="paint17_linear_89_729" x1="67.9453" y1="19.1712" x2="76.4138" y2="27.6397" gradientUnits="userSpaceOnUse">
<stop stop-color="#5A5A5A"/>
<stop offset="1" stop-color="#444444"/>
</linearGradient>
<linearGradient id="paint18_linear_89_729" x1="38.1075" y1="9.58167" x2="47.7739" y2="25.3743" gradientUnits="userSpaceOnUse">
<stop stop-color="#5A5A5A"/>
<stop offset="1" stop-color="#444444"/>
</linearGradient>
<clipPath id="clip0_89_729">
<rect width="104.15" height="104.15" fill="white" transform="translate(0.0351562 0.0847168)"/>
</clipPath>
</defs>
</svg>
