<svg width="72" height="72" viewBox="0 0 72 72" fill="none" xmlns="http://www.w3.org/2000/svg">
<g clip-path="url(#clip0_89_849)">
<mask id="mask0_89_849" style="mask-type:luminance" maskUnits="userSpaceOnUse" x="0" y="0" width="72" height="72">
<path d="M71.1489 0.613037H0.0556641V71.7063H71.1489V0.613037Z" fill="white"/>
</mask>
<g mask="url(#mask0_89_849)">
<path d="M29.9911 17.2754C34.5849 17.2754 38.3223 13.538 38.3223 8.9442C38.3223 4.3504 34.5849 0.613037 29.9911 0.613037C25.3973 0.613037 21.6599 4.3504 21.6599 8.9442C21.6599 13.538 25.3973 17.2754 29.9911 17.2754ZM29.9911 6.16714C31.5223 6.16714 32.7681 7.41293 32.7681 8.9442C32.7681 10.4755 31.5223 11.7212 29.9911 11.7212C28.4598 11.7212 27.2141 10.4755 27.2141 8.9442C27.2141 7.41293 28.4598 6.16714 29.9911 6.16714ZM57.7022 22.6906C57.7022 24.2243 56.4589 25.4677 54.9251 25.4677H35.7163L31.9145 39.2578C31.575 40.4892 30.4573 41.2974 29.2388 41.2974C28.9944 41.2974 28.7462 41.265 28.4991 41.1967C27.0206 40.7891 26.1524 39.2602 26.56 37.7815L29.955 25.4677H25.908C24.6574 25.4677 23.5552 26.3106 23.2278 27.5177L19.1613 42.6464C18.9314 43.4942 19.1042 44.3742 19.6339 45.0669C20.1636 45.7596 20.9678 46.1568 21.8398 46.1568H36.901C39.1334 46.1568 41.1723 47.1886 42.4946 48.9871C43.8169 50.7858 44.1935 53.0395 43.5276 55.1703L38.9694 69.7571C38.598 70.9453 37.502 71.7064 36.3195 71.7064C36.0451 71.7065 35.7662 71.6654 35.4904 71.5793C34.0264 71.1219 33.2106 69.5642 33.668 68.1003L38.2263 53.5135C38.4086 52.9301 38.1752 52.4882 38.0198 52.2769C37.8643 52.0656 37.5125 51.711 36.9011 51.711H21.84C19.2239 51.711 16.812 50.5192 15.2226 48.4412C13.6332 46.3632 13.1144 43.7233 13.7994 41.1985L17.8658 26.0699C18.8499 22.4424 22.1561 19.9135 25.908 19.9135H54.925C56.4587 19.9135 57.7022 21.1569 57.7022 22.6906Z" fill="#5D87B5"/>
</g>
</g>
<defs>
<clipPath id="clip0_89_849">
<rect width="71.0932" height="71.0932" fill="white" transform="translate(0.0566406 0.613037)"/>
</clipPath>
</defs>
</svg>
