<svg width="104" height="105" viewBox="0 0 104 105" fill="none" xmlns="http://www.w3.org/2000/svg">
<g clip-path="url(#clip0_89_603)">
<path d="M27.1392 37.0099C27.1392 33.7585 29.3962 31.034 32.4289 30.3182C33.2396 30.127 34.0144 30.7537 34.0144 31.5866V42.4331C34.0144 43.2661 33.2394 43.893 32.4289 43.7018C29.3962 42.9855 27.1392 40.2613 27.1392 37.0099Z" fill="url(#paint0_linear_89_603)"/>
<path d="M76.8499 37.0099C76.8499 33.7585 74.5928 31.034 71.5601 30.3182C70.7494 30.127 69.9746 30.7537 69.9746 31.5866V42.4331C69.9746 43.2661 70.7496 43.893 71.5601 43.7018C74.5928 42.9855 76.8499 40.2613 76.8499 37.0099Z" fill="url(#paint1_linear_89_603)"/>
<path d="M51.9949 10.1852C41.011 10.1852 32.1069 19.0894 32.1069 30.073V40.272C32.1069 51.2558 41.011 60.1597 51.9947 60.1597C62.9783 60.1597 71.8827 51.2556 71.8827 40.272V30.073C71.8829 19.0894 62.9787 10.1852 51.9949 10.1852Z" fill="url(#paint2_linear_89_603)"/>
<path d="M51.9949 10.1852C41.011 10.1852 32.1069 19.0894 32.1069 30.073V40.272C32.1069 51.2558 41.011 60.1597 51.9947 60.1597C62.9783 60.1597 71.8827 51.2556 71.8827 40.272V30.073C71.8829 19.0894 62.9787 10.1852 51.9949 10.1852Z" fill="url(#paint3_linear_89_603)"/>
<path d="M51.9946 10.1851V60.1598C62.9785 60.1598 71.8826 51.2556 71.8826 40.2718V30.0728C71.8826 19.0894 62.9785 10.1851 51.9946 10.1851Z" fill="url(#paint4_linear_89_603)"/>
<path d="M32.4985 44.2108C34.3262 53.3078 42.3604 60.1598 51.9957 60.1598C61.6309 60.1598 69.6649 53.3078 71.4928 44.2108H32.4985Z" fill="url(#paint5_linear_89_603)"/>
<path d="M42.7628 40.6412C41.1666 40.6412 39.8726 39.3471 39.8726 37.7509V36.2688C39.8726 34.6726 41.1666 33.3785 42.7628 33.3785C44.359 33.3785 45.6531 34.6726 45.6531 36.2688V37.7509C45.6531 39.3471 44.359 40.6412 42.7628 40.6412Z" fill="url(#paint6_linear_89_603)"/>
<path d="M61.2296 40.6412C59.6334 40.6412 58.3394 39.3471 58.3394 37.7509V36.2688C58.3394 34.6726 59.6334 33.3785 61.2296 33.3785C62.8258 33.3785 64.1199 34.6726 64.1199 36.2688V37.7509C64.1199 39.3471 62.8258 40.6412 61.2296 40.6412Z" fill="url(#paint7_linear_89_603)"/>
<path d="M53.0961 46.8047H50.8988C49.0675 46.8047 47.6811 45.1499 48.0019 43.3469L49.0342 37.5433C49.1657 36.8041 49.8083 36.2658 50.5591 36.2658H53.436C54.1868 36.2658 54.8295 36.8043 54.9609 37.5433L55.9932 43.3469C56.3138 45.1499 54.9274 46.8047 53.0961 46.8047Z" fill="url(#paint8_linear_89_603)"/>
<path d="M53.0961 46.8047H50.8988C49.0675 46.8047 47.6811 45.1499 48.0019 43.3469L49.0342 37.5433C49.1657 36.8041 49.8083 36.2658 50.5591 36.2658H53.436C54.1868 36.2658 54.8295 36.8043 54.9609 37.5433L55.9932 43.3469C56.3138 45.1499 54.9274 46.8047 53.0961 46.8047Z" fill="url(#paint9_linear_89_603)"/>
<path d="M50.898 46.8047H53.0953C54.9266 46.8047 56.313 45.1499 55.9922 43.3469L54.9599 37.5433C54.8284 36.8041 54.1857 36.2658 53.435 36.2658H50.558C49.8073 36.2658 49.1646 36.8043 49.0331 37.5433L48.0008 43.3469C47.6803 45.1499 49.0669 46.8047 50.898 46.8047Z" fill="url(#paint10_linear_89_603)"/>
<path d="M42.3555 30.2835C42.3555 30.2835 38.5747 30.2257 36.3904 32.0742C34.206 33.9225 31.6015 35.4349 29.1651 33.9225C26.7286 32.4101 27.2909 26.3007 27.2909 26.3007C27.2909 26.3007 34.8782 23.3567 42.3555 30.2835Z" fill="url(#paint11_linear_89_603)"/>
<path d="M76.6343 23.5046C76.6343 23.5046 78.3083 29.2175 76.8831 34.0485C75.458 38.8794 70.081 38.775 66.7205 35.1725C63.3601 31.5701 57.8148 30.646 53.9502 31.5701C53.95 31.5701 64.4564 20.9764 76.6343 23.5046Z" fill="url(#paint12_linear_89_603)"/>
<path d="M89.3018 104.36H14.6838C12.641 104.36 10.8671 102.954 10.4011 100.965L9.83376 98.5428C9.51363 97.1762 10.5508 95.868 11.9543 95.868H92.0315C93.435 95.868 94.4722 97.1762 94.152 98.5428L93.5845 100.965C93.1185 102.954 91.3446 104.36 89.3018 104.36Z" fill="url(#paint13_linear_89_603)"/>
<path d="M9.77832 98.095C9.78196 98.2425 9.79811 98.3921 9.83346 98.5428L10.4008 100.965C10.8668 102.954 12.6407 104.36 14.6835 104.36H89.3015C91.3443 104.36 93.1182 102.954 93.5842 100.965L94.1515 98.5428C94.1869 98.3921 94.203 98.2427 94.2067 98.095H9.77832Z" fill="url(#paint14_linear_89_603)"/>
<path d="M92.0309 95.868H75.2031V104.36H89.3012C91.344 104.36 93.118 102.954 93.5839 100.965L94.1513 98.5428C94.4714 97.1762 93.4345 95.868 92.0309 95.868Z" fill="url(#paint15_linear_89_603)"/>
<path d="M92.0309 95.868H75.2031V104.36H89.3012C91.344 104.36 93.118 102.954 93.5839 100.965L94.1513 98.5428C94.4714 97.1762 93.4345 95.868 92.0309 95.868Z" fill="url(#paint16_linear_89_603)"/>
<path d="M84.6731 104.36H19.3153C18.08 104.36 17.0786 103.359 17.0786 102.123V59.1715C17.0786 56.5369 19.2143 54.4012 21.8489 54.4012H82.1397C84.7743 54.4012 86.91 56.5369 86.91 59.1715V102.123C86.9098 103.359 85.9084 104.36 84.6731 104.36Z" fill="url(#paint17_linear_89_603)"/>
<path d="M82.1396 54.4014H62.0371V104.36H84.673C85.9082 104.36 86.9096 103.359 86.9096 102.123V59.1714C86.9096 56.5371 84.7739 54.4014 82.1396 54.4014Z" fill="url(#paint18_linear_89_603)"/>
<path d="M17.0786 83.9886V102.123C17.0786 103.359 18.08 104.36 19.3153 104.36H84.6731C85.9084 104.36 86.9098 103.359 86.9098 102.123V83.9886H17.0786Z" fill="url(#paint19_linear_89_603)"/>
<path d="M51.9939 86.214C56.0745 86.214 59.3824 82.9061 59.3824 78.8256C59.3824 74.745 56.0745 71.4371 51.9939 71.4371C47.9134 71.4371 44.6055 74.745 44.6055 78.8256C44.6055 82.9061 47.9134 86.214 51.9939 86.214Z" fill="url(#paint20_linear_89_603)"/>
<path d="M44.6055 78.8256C44.6055 82.9061 47.9134 86.214 51.9939 86.214C56.0745 86.214 59.3824 82.9061 59.3824 78.8256C59.3824 77.9419 59.2267 77.0946 58.9421 76.3091H45.0458C44.7612 77.0946 44.6055 77.9419 44.6055 78.8256Z" fill="url(#paint21_linear_89_603)"/>
<path d="M46.7692 84.0501C49.6547 86.9353 54.3326 86.9355 57.2181 84.0501C60.1035 81.1647 60.1033 76.4867 57.2181 73.6013C56.5931 72.9764 55.884 72.4874 55.1274 72.1331L45.3013 81.9592C45.6553 82.7158 46.1443 83.4252 46.7692 84.0501Z" fill="url(#paint22_linear_89_603)"/>
<path d="M75.7224 28.7539L72.5053 29.4677C58.9964 32.4652 44.9946 32.4652 31.4854 29.4677L28.2683 28.7539C26.7311 28.4128 25.6372 27.0496 25.6372 25.4748V7.72217H78.3535V25.4748C78.3535 27.0496 77.2596 28.4128 75.7224 28.7539Z" fill="url(#paint23_linear_89_603)"/>
<path d="M75.7224 28.7539L72.5053 29.4677C58.9964 32.4652 44.9946 32.4652 31.4854 29.4677L28.2683 28.7539C26.7311 28.4128 25.6372 27.0496 25.6372 25.4748V7.72217H78.3535V25.4748C78.3535 27.0496 77.2596 28.4128 75.7224 28.7539Z" fill="url(#paint24_linear_89_603)"/>
<path d="M75.7224 28.7539L72.5053 29.4677C58.9964 32.4652 44.9946 32.4652 31.4854 29.4677L28.2683 28.7539C26.7311 28.4128 25.6372 27.0496 25.6372 25.4748V7.72217H78.3535V25.4748C78.3535 27.0496 77.2596 28.4128 75.7224 28.7539Z" fill="url(#paint25_linear_89_603)"/>
<path d="M75.7224 28.7539L72.5053 29.4677C58.9964 32.4652 44.9946 32.4652 31.4854 29.4677L28.2683 28.7539C26.7311 28.4128 25.6372 27.0496 25.6372 25.4748V7.72217H78.3535V25.4748C78.3535 27.0496 77.2596 28.4128 75.7224 28.7539Z" fill="url(#paint26_linear_89_603)"/>
<path d="M53.6817 7.72217H29.7197V29.0757L31.4864 29.4677C38.7927 31.089 46.2432 31.8314 53.6817 31.6989V7.72217Z" fill="url(#paint27_linear_89_603)"/>
<path d="M51.9961 31.7159C58.8738 31.7159 65.7515 30.9666 72.5059 29.4677L75.723 28.7539C77.2602 28.4128 78.3542 27.0494 78.3542 25.4748V7.72217H51.9961V31.7159Z" fill="url(#paint28_linear_89_603)"/>
<path d="M46.9979 1.42211L16.8514 7.18973C15.1348 7.51815 15.1348 9.97559 16.8514 10.304L46.9979 16.0716C50.2988 16.7032 53.6896 16.7032 56.9907 16.0716L87.137 10.304C88.8536 9.97559 88.8536 7.51815 87.137 7.18973L56.9905 1.42211C53.6896 0.790531 50.2988 0.790531 46.9979 1.42211Z" fill="url(#paint29_linear_89_603)"/>
<path d="M46.9979 1.42211L16.8514 7.18973C15.1348 7.51815 15.1348 9.97559 16.8514 10.304L46.9979 16.0716C50.2988 16.7032 53.6896 16.7032 56.9907 16.0716L87.137 10.304C88.8536 9.97559 88.8536 7.51815 87.137 7.18973L56.9905 1.42211C53.6896 0.790531 50.2988 0.790531 46.9979 1.42211Z" fill="url(#paint30_linear_89_603)"/>
<path d="M56.9905 1.42211L87.137 7.18973C88.8536 7.51815 88.8536 9.97559 87.137 10.304L56.9905 16.0718C53.6896 16.7034 50.2988 16.7034 46.9977 16.0718L16.8514 10.304C15.1348 9.97559 15.1348 7.51815 16.8514 7.18973L46.9979 1.42211C50.2988 0.790531 53.6896 0.790531 56.9905 1.42211Z" fill="url(#paint31_linear_89_603)"/>
<path d="M51.5584 6.97058L28.9575 12.4074L28.9935 12.6271L46.9978 16.0718C50.2987 16.7034 53.6895 16.7034 56.9906 16.0718L60.0703 15.4827L51.5584 6.97058Z" fill="url(#paint32_linear_89_603)"/>
<path d="M29.3776 30.6573C28.6483 30.6573 28.0571 30.0661 28.0571 29.3368V15.3742C28.0571 12.8111 29.8775 10.6094 32.395 10.1276L50.4494 6.67345C51.1656 6.53631 51.8574 7.00591 51.9945 7.72232C52.1314 8.43852 51.6621 9.13029 50.9456 9.26743L32.8912 12.7216C31.6186 12.9652 30.6982 14.0783 30.6982 15.3742V29.3368C30.6982 30.0661 30.107 30.6573 29.3776 30.6573Z" fill="url(#paint33_linear_89_603)"/>
<path d="M29.3785 33.9093C31.1745 33.9093 32.6305 32.4533 32.6305 30.6573C32.6305 28.8612 31.1745 27.4053 29.3785 27.4053C27.5824 27.4053 26.1265 28.8612 26.1265 30.6573C26.1265 32.4533 27.5824 33.9093 29.3785 33.9093Z" fill="url(#paint34_linear_89_603)"/>
<path d="M26.1265 30.6573C26.1265 32.4532 27.5825 33.9093 29.3785 33.9093C31.1745 33.9093 32.6305 32.4532 32.6305 30.6573C32.6305 30.2683 32.562 29.8954 32.4368 29.5496H26.3202C26.1949 29.8954 26.1265 30.2683 26.1265 30.6573Z" fill="url(#paint35_linear_89_603)"/>
<path d="M27.0797 32.9568C28.3497 34.2268 30.4087 34.2268 31.6787 32.9568C32.9487 31.6868 32.9487 29.6278 31.6787 28.3578C31.4036 28.0827 31.0916 27.8676 30.7585 27.7117L26.4336 32.0366C26.5895 32.3694 26.8048 32.6817 27.0797 32.9568Z" fill="url(#paint36_linear_89_603)"/>
</g>
<defs>
<linearGradient id="paint0_linear_89_603" x1="29.1622" y1="34.0372" x2="34.6923" y2="39.5673" gradientUnits="userSpaceOnUse">
<stop stop-color="#FFDFCF"/>
<stop offset="1" stop-color="#FFA78F"/>
</linearGradient>
<linearGradient id="paint1_linear_89_603" x1="67.831" y1="32.9867" x2="75.5695" y2="40.7252" gradientUnits="userSpaceOnUse">
<stop stop-color="#FFDFCF"/>
<stop offset="1" stop-color="#FFA78F"/>
</linearGradient>
<linearGradient id="paint2_linear_89_603" x1="50.5786" y1="33.7562" x2="69.1687" y2="52.3463" gradientUnits="userSpaceOnUse">
<stop stop-color="#FFDFCF"/>
<stop offset="1" stop-color="#FFA78F"/>
</linearGradient>
<linearGradient id="paint3_linear_89_603" x1="51.9949" y1="38.006" x2="51.9949" y2="62.458" gradientUnits="userSpaceOnUse">
<stop offset="0.0043" stop-color="#EAF6FF" stop-opacity="0"/>
<stop offset="1" stop-color="#99E6FC"/>
</linearGradient>
<linearGradient id="paint4_linear_89_603" x1="60.9367" y1="35.1725" x2="72.779" y2="35.1725" gradientUnits="userSpaceOnUse">
<stop stop-color="#F89580" stop-opacity="0"/>
<stop offset="0.2699" stop-color="#F08F7A" stop-opacity="0.271"/>
<stop offset="0.6945" stop-color="#D97F69" stop-opacity="0.696"/>
<stop offset="0.9972" stop-color="#C5715A"/>
</linearGradient>
<linearGradient id="paint5_linear_89_603" x1="51.9957" y1="52.3298" x2="51.9957" y2="62.7792" gradientUnits="userSpaceOnUse">
<stop stop-color="#F89580" stop-opacity="0"/>
<stop offset="0.2699" stop-color="#F08F7A" stop-opacity="0.271"/>
<stop offset="0.6945" stop-color="#D97F69" stop-opacity="0.696"/>
<stop offset="0.9972" stop-color="#C5715A"/>
</linearGradient>
<linearGradient id="paint6_linear_89_603" x1="32.9613" y1="30.2241" x2="47.2089" y2="40.088" gradientUnits="userSpaceOnUse">
<stop stop-color="#5A5A5A"/>
<stop offset="1" stop-color="#444444"/>
</linearGradient>
<linearGradient id="paint7_linear_89_603" x1="51.4281" y1="30.2241" x2="65.6757" y2="40.088" gradientUnits="userSpaceOnUse">
<stop stop-color="#5A5A5A"/>
<stop offset="1" stop-color="#444444"/>
</linearGradient>
<linearGradient id="paint8_linear_89_603" x1="51.9974" y1="40.9791" x2="51.9974" y2="47.8909" gradientUnits="userSpaceOnUse">
<stop stop-color="#C4573A" stop-opacity="0"/>
<stop offset="0.2342" stop-color="#BE5539" stop-opacity="0.234"/>
<stop offset="0.5454" stop-color="#AD4E35" stop-opacity="0.545"/>
<stop offset="0.8984" stop-color="#914330" stop-opacity="0.898"/>
<stop offset="1" stop-color="#883F2E"/>
</linearGradient>
<linearGradient id="paint9_linear_89_603" x1="53.1902" y1="41.805" x2="57.2685" y2="42.7969" gradientUnits="userSpaceOnUse">
<stop stop-color="#C4573A" stop-opacity="0"/>
<stop offset="0.2342" stop-color="#BE5539" stop-opacity="0.234"/>
<stop offset="0.5454" stop-color="#AD4E35" stop-opacity="0.545"/>
<stop offset="0.8984" stop-color="#914330" stop-opacity="0.898"/>
<stop offset="1" stop-color="#883F2E"/>
</linearGradient>
<linearGradient id="paint10_linear_89_603" x1="50.8041" y1="41.805" x2="46.7258" y2="42.7969" gradientUnits="userSpaceOnUse">
<stop stop-color="#FFDDCD" stop-opacity="0"/>
<stop offset="0.9972" stop-color="#FFDDCD"/>
</linearGradient>
<linearGradient id="paint11_linear_89_603" x1="34.5401" y1="28.5194" x2="28.995" y2="32.9722" gradientUnits="userSpaceOnUse">
<stop stop-color="#F89580"/>
<stop offset="1" stop-color="#C4573A"/>
</linearGradient>
<linearGradient id="paint12_linear_89_603" x1="66.1707" y1="29.4091" x2="69.4823" y2="36.4642" gradientUnits="userSpaceOnUse">
<stop stop-color="#F89580"/>
<stop offset="1" stop-color="#C4573A"/>
</linearGradient>
<linearGradient id="paint13_linear_89_603" x1="51.9928" y1="96.0613" x2="51.9928" y2="103.43" gradientUnits="userSpaceOnUse">
<stop stop-color="#8AC9FE"/>
<stop offset="1" stop-color="#0172FB"/>
</linearGradient>
<linearGradient id="paint14_linear_89_603" x1="51.9925" y1="99.745" x2="51.9925" y2="104.542" gradientUnits="userSpaceOnUse">
<stop stop-color="#2740B0" stop-opacity="0"/>
<stop offset="1" stop-color="#2740B0"/>
</linearGradient>
<linearGradient id="paint15_linear_89_603" x1="85.9905" y1="101.1" x2="92.2604" y2="104" gradientUnits="userSpaceOnUse">
<stop stop-color="#2740B0" stop-opacity="0"/>
<stop offset="1" stop-color="#2740B0"/>
</linearGradient>
<linearGradient id="paint16_linear_89_603" x1="96.0598" y1="100.114" x2="85.7576" y2="100.114" gradientUnits="userSpaceOnUse">
<stop stop-color="#2740B0" stop-opacity="0"/>
<stop offset="1" stop-color="#2740B0"/>
</linearGradient>
<linearGradient id="paint17_linear_89_603" x1="34.822" y1="63.0924" x2="74.0011" y2="101.941" gradientUnits="userSpaceOnUse">
<stop stop-color="#8AC9FE"/>
<stop offset="1" stop-color="#0172FB"/>
</linearGradient>
<linearGradient id="paint18_linear_89_603" x1="81.4252" y1="79.3807" x2="86.6145" y2="79.3807" gradientUnits="userSpaceOnUse">
<stop stop-color="#2740B0" stop-opacity="0"/>
<stop offset="1" stop-color="#2740B0"/>
</linearGradient>
<linearGradient id="paint19_linear_89_603" x1="51.9942" y1="93.5772" x2="51.9942" y2="105.143" gradientUnits="userSpaceOnUse">
<stop stop-color="#2740B0" stop-opacity="0"/>
<stop offset="1" stop-color="#2740B0"/>
</linearGradient>
<linearGradient id="paint20_linear_89_603" x1="49.1493" y1="75.9809" x2="54.7461" y2="81.5777" gradientUnits="userSpaceOnUse">
<stop stop-color="#F5FBFF"/>
<stop offset="1" stop-color="#91DCFA"/>
</linearGradient>
<linearGradient id="paint21_linear_89_603" x1="51.9939" y1="78.4444" x2="51.9939" y2="86.5004" gradientUnits="userSpaceOnUse">
<stop stop-color="#60B7FF" stop-opacity="0"/>
<stop offset="1" stop-color="#60B7FF"/>
</linearGradient>
<linearGradient id="paint22_linear_89_603" x1="51.514" y1="78.4119" x2="57.9494" y2="83.963" gradientUnits="userSpaceOnUse">
<stop stop-color="#60B7FF" stop-opacity="0"/>
<stop offset="1" stop-color="#60B7FF"/>
</linearGradient>
<linearGradient id="paint23_linear_89_603" x1="38.7965" y1="8.38445" x2="64.1278" y2="25.8424" gradientUnits="userSpaceOnUse">
<stop stop-color="#5A5A5A"/>
<stop offset="1" stop-color="#444444"/>
</linearGradient>
<linearGradient id="paint24_linear_89_603" x1="51.9955" y1="18.8474" x2="51.9955" y2="31.1754" gradientUnits="userSpaceOnUse">
<stop stop-color="#433F43" stop-opacity="0"/>
<stop offset="0.3444" stop-color="#403C40" stop-opacity="0.344"/>
<stop offset="0.6223" stop-color="#363336" stop-opacity="0.622"/>
<stop offset="0.8763" stop-color="#252425" stop-opacity="0.876"/>
<stop offset="1" stop-color="#1A1A1A"/>
</linearGradient>
<linearGradient id="paint25_linear_89_603" x1="51.9955" y1="25.6938" x2="51.9955" y2="11.6589" gradientUnits="userSpaceOnUse">
<stop stop-color="#433F43" stop-opacity="0"/>
<stop offset="0.3444" stop-color="#403C40" stop-opacity="0.344"/>
<stop offset="0.6223" stop-color="#363336" stop-opacity="0.622"/>
<stop offset="0.8763" stop-color="#252425" stop-opacity="0.876"/>
<stop offset="1" stop-color="#1A1A1A"/>
</linearGradient>
<linearGradient id="paint26_linear_89_603" x1="51.9955" y1="23.4638" x2="51.9955" y2="34.7027" gradientUnits="userSpaceOnUse">
<stop offset="0.0043" stop-color="#EAF6FF" stop-opacity="0"/>
<stop offset="0.2269" stop-color="#E6F5FF" stop-opacity="0.224"/>
<stop offset="0.4485" stop-color="#DAF3FE" stop-opacity="0.446"/>
<stop offset="0.6698" stop-color="#C6EFFE" stop-opacity="0.668"/>
<stop offset="0.8896" stop-color="#AAE9FD" stop-opacity="0.889"/>
<stop offset="1" stop-color="#99E6FC"/>
</linearGradient>
<linearGradient id="paint27_linear_89_603" x1="40.2174" y1="19.7181" x2="30.7439" y2="19.7181" gradientUnits="userSpaceOnUse">
<stop stop-color="#433F43" stop-opacity="0"/>
<stop offset="0.3444" stop-color="#403C40" stop-opacity="0.344"/>
<stop offset="0.6223" stop-color="#363336" stop-opacity="0.622"/>
<stop offset="0.8763" stop-color="#252425" stop-opacity="0.876"/>
<stop offset="1" stop-color="#1A1A1A"/>
</linearGradient>
<linearGradient id="paint28_linear_89_603" x1="64.1221" y1="19.7191" x2="77.9932" y2="19.7191" gradientUnits="userSpaceOnUse">
<stop stop-color="#433F43" stop-opacity="0"/>
<stop offset="0.3444" stop-color="#403C40" stop-opacity="0.344"/>
<stop offset="0.6223" stop-color="#363336" stop-opacity="0.622"/>
<stop offset="0.8763" stop-color="#252425" stop-opacity="0.876"/>
<stop offset="1" stop-color="#1A1A1A"/>
</linearGradient>
<linearGradient id="paint29_linear_89_603" x1="51.279" y1="0.022416" x2="52.4733" y2="14.5911" gradientUnits="userSpaceOnUse">
<stop stop-color="#5A5A5A"/>
<stop offset="1" stop-color="#444444"/>
</linearGradient>
<linearGradient id="paint30_linear_89_603" x1="52.6959" y1="12.5185" x2="53.3327" y2="15.9418" gradientUnits="userSpaceOnUse">
<stop stop-color="#433F43" stop-opacity="0"/>
<stop offset="0.3444" stop-color="#403C40" stop-opacity="0.344"/>
<stop offset="0.6223" stop-color="#363336" stop-opacity="0.622"/>
<stop offset="0.8763" stop-color="#252425" stop-opacity="0.876"/>
<stop offset="1" stop-color="#1A1A1A"/>
</linearGradient>
<linearGradient id="paint31_linear_89_603" x1="51.2925" y1="12.5185" x2="50.6557" y2="15.9418" gradientUnits="userSpaceOnUse">
<stop stop-color="#433F43" stop-opacity="0"/>
<stop offset="0.3444" stop-color="#403C40" stop-opacity="0.344"/>
<stop offset="0.6223" stop-color="#363336" stop-opacity="0.622"/>
<stop offset="0.8763" stop-color="#252425" stop-opacity="0.876"/>
<stop offset="1" stop-color="#1A1A1A"/>
</linearGradient>
<linearGradient id="paint32_linear_89_603" x1="45.4699" y1="17.6759" x2="43.6299" y2="10.5728" gradientUnits="userSpaceOnUse">
<stop stop-color="#433F43" stop-opacity="0"/>
<stop offset="0.3444" stop-color="#403C40" stop-opacity="0.344"/>
<stop offset="0.6223" stop-color="#363336" stop-opacity="0.622"/>
<stop offset="0.8763" stop-color="#252425" stop-opacity="0.876"/>
<stop offset="1" stop-color="#1A1A1A"/>
</linearGradient>
<linearGradient id="paint33_linear_89_603" x1="30.6802" y1="9.85983" x2="40.151" y2="18.7599" gradientUnits="userSpaceOnUse">
<stop stop-color="#FEF0AE"/>
<stop offset="1" stop-color="#FAC600"/>
</linearGradient>
<linearGradient id="paint34_linear_89_603" x1="28.1264" y1="29.4052" x2="30.5899" y2="31.8685" gradientUnits="userSpaceOnUse">
<stop stop-color="#FEF0AE"/>
<stop offset="1" stop-color="#FAC600"/>
</linearGradient>
<linearGradient id="paint35_linear_89_603" x1="29.3783" y1="30.4894" x2="29.3783" y2="34.0353" gradientUnits="userSpaceOnUse">
<stop stop-color="#FE9738" stop-opacity="0"/>
<stop offset="1" stop-color="#FE9738"/>
</linearGradient>
<linearGradient id="paint36_linear_89_603" x1="29.1681" y1="30.4751" x2="32.0007" y2="32.9184" gradientUnits="userSpaceOnUse">
<stop stop-color="#FE9738" stop-opacity="0"/>
<stop offset="1" stop-color="#FE9738"/>
</linearGradient>
<clipPath id="clip0_89_603">
<rect width="103.412" height="103.412" fill="white" transform="translate(0.290039 0.948486)"/>
</clipPath>
</defs>
</svg>
