<svg width="29" height="28" viewBox="0 0 29 28" fill="none" xmlns="http://www.w3.org/2000/svg">
<g clip-path="url(#clip0_381_1325)">
<path d="M22.5877 0.136719H6.37003C3.26092 0.136719 0.731445 2.66619 0.731445 5.7753V21.993C0.731445 25.1021 3.26092 27.6315 6.37003 27.6315H22.5877C25.6968 27.6315 28.2263 25.1021 28.2263 21.993V5.7753C28.2263 2.66619 25.6968 0.136719 22.5877 0.136719ZM21.7453 20.0001L21.3139 20.7191C19.6362 22.3968 15.216 20.6967 11.4411 16.9219C7.66626 13.147 5.96615 8.72686 7.64387 7.04909L8.36292 6.61766C9.01437 6.22682 9.85935 6.43803 10.2502 7.08947L11.2682 8.7862C11.593 9.32745 11.5077 10.0202 11.0614 10.4666C10.4322 11.0958 10.4322 12.1158 11.0614 12.7449L15.6181 17.3016C16.2472 17.9308 17.2673 17.9308 17.8964 17.3016C18.3427 16.8552 19.0355 16.77 19.5768 17.0947L21.2735 18.1127C21.9249 18.5036 22.1362 19.3486 21.7453 20.0001Z" fill="#1E1E1E"/>
</g>
<defs>
<clipPath id="clip0_381_1325">
<rect width="27.4948" height="27.4948" fill="white" transform="translate(0.731445 0.136719)"/>
</clipPath>
</defs>
</svg>
