<svg width="34" height="34" viewBox="0 0 34 34" fill="none" xmlns="http://www.w3.org/2000/svg">
<path d="M29.127 -0.00146484H4.59982C2.05995 -0.00146484 0.000976562 2.05751 0.000976562 4.59738V29.1245C0.000976562 31.6644 2.05995 33.7234 4.59982 33.7234H29.127C31.6668 33.7234 33.7258 31.6644 33.7258 29.1245V4.59738C33.7258 2.05751 31.6668 -0.00146484 29.127 -0.00146484Z" fill="#1C8ADB"/>
<path d="M26.0499 8.7177L25.7011 8.84417L6.77305 15.6639C6.63892 15.7053 6.52234 15.7902 6.44158 15.905C6.36083 16.0199 6.32047 16.1583 6.32682 16.2985C6.33318 16.4388 6.38589 16.573 6.4767 16.6801C6.56751 16.7871 6.69129 16.8611 6.82862 16.8902L11.7283 18.2316L12.6423 20.9142L13.5563 23.5969C13.6089 23.7284 13.6927 23.8451 13.8005 23.9368C13.9084 24.0286 14.037 24.0927 14.1752 24.1234C14.3134 24.1542 14.457 24.1508 14.5936 24.1135C14.7302 24.0761 14.8556 24.006 14.959 23.9092L17.4903 21.5178L22.4609 24.8884C23.0683 25.3023 23.9344 24.9957 24.0896 24.3135L27.3816 9.76777C27.5426 9.04729 26.7838 8.45519 26.0499 8.7177ZM23.6336 11.9465L15.0816 18.9367L14.6792 19.2663C14.5908 19.3364 14.5331 19.4381 14.5183 19.5499L14.4282 20.2934L14.181 22.382C14.1831 22.4074 14.1749 22.4326 14.1584 22.452C14.1418 22.4714 14.1183 22.4835 14.0929 22.4855C14.0675 22.4875 14.0423 22.4794 14.0229 22.4628C14.0035 22.4463 13.9914 22.4228 13.9894 22.3973L13.2938 20.3106L12.5753 18.1741C12.5449 18.078 12.5489 17.9744 12.5867 17.881C12.6244 17.7876 12.6936 17.7104 12.7822 17.6625L21.681 12.5616L23.3557 11.6035C23.5991 11.4617 23.8482 11.7702 23.6336 11.9465Z" fill="white"/>
</svg>
