<svg width="116" height="118" viewBox="0 0 116 118" fill="none" xmlns="http://www.w3.org/2000/svg">
<path d="M44.9376 103.66C41.8119 103.66 42.3467 102.466 41.2662 99.4674L32.0879 68.9262L102.754 26.5513L44.9376 103.66Z" fill="#ECEFF1"/>
<path d="M44.9409 103.66C47.3511 103.66 48.4171 102.546 49.7577 101.224L62.6075 88.5936L46.5778 78.8271L44.9409 103.66Z" fill="#CFD8DC"/>
<path d="M46.5745 78.8359L85.4091 107.836C89.8465 110.305 93.0373 109.026 94.143 103.676L109.952 28.3819C111.571 21.8222 107.481 18.8492 103.238 20.7923L10.414 56.9727C4.07586 59.5404 4.11922 63.116 9.25765 64.7048L33.078 72.2214L88.224 37.0563C90.8294 35.4602 93.2179 36.3185 91.2594 38.079L46.5745 78.8359Z" fill="white"/>
<path d="M89.3104 110.874C87.8577 110.874 86.2642 110.392 84.5405 109.432L45.5036 80.3004C45.0664 79.9753 44.799 79.4677 44.77 78.9198C44.7448 78.3719 44.9616 77.8424 45.3663 77.4735L91.605 35.4163C92.3457 34.7406 93.4876 34.799 94.1561 35.5514C94.8246 36.3002 94.7632 37.4543 94.0224 38.13L49.4315 78.6934L86.4846 106.364C87.4639 106.893 89.1189 107.565 90.2969 107.014C91.4966 106.459 92.0892 104.687 92.3783 103.299L108.187 27.9983C108.802 25.511 108.505 23.5095 107.411 22.5891C106.576 21.8879 105.333 21.8367 103.989 22.4503L11.0631 58.6747C8.212 59.8325 7.31584 61.0231 7.3303 61.4176C7.34114 61.6769 7.95544 62.3928 9.78749 62.9589L32.8237 70.2271L58.1148 54.0982C58.9604 53.565 60.0733 53.817 60.6045 54.668C61.1357 55.519 60.8864 56.6476 60.0408 57.1845L34.0451 73.7626C33.597 74.0475 33.0442 74.1206 32.5419 73.9635L8.7215 66.4469C4.49368 65.1394 3.77097 62.8311 3.72038 61.571C3.64811 59.8434 4.6346 57.3452 9.74413 55.2779L102.594 19.0901C105.112 17.9287 107.815 18.177 109.727 19.7877C111.942 21.6541 112.665 24.9486 111.711 28.8237L95.9159 104.055C95.251 107.262 93.8707 109.377 91.8073 110.334C91.0304 110.696 90.1993 110.874 89.3104 110.874Z" fill="#455A64"/>
<path d="M89.3104 110.874C87.8577 110.874 86.2642 110.392 84.5405 109.432L60.2576 91.3196C59.4554 90.7206 59.282 89.5738 59.8782 88.7666C60.4708 87.9558 61.6055 87.7805 62.4041 88.3831L86.4846 106.364C87.4639 106.893 89.1189 107.565 90.2969 107.014C91.4966 106.459 92.0892 104.687 92.3783 103.299L108.187 27.9983C108.802 25.511 108.505 23.5095 107.411 22.5891C106.576 21.8879 105.333 21.8367 103.989 22.4503L11.0631 58.6747C8.212 59.8325 7.31584 61.0231 7.3303 61.4176C7.34114 61.6769 7.95544 62.3928 9.78749 62.9589L33.6151 70.4755C34.186 70.6545 34.6305 71.111 34.8076 71.6881L42.9994 98.9385C43.2198 99.5485 43.3897 100.155 43.5378 100.681C43.6535 101.097 43.798 101.616 43.8956 101.769C43.8811 101.751 44.1702 101.839 44.9399 101.842C46.5551 101.842 47.1694 101.232 48.398 100.023L54.3965 94.1283C55.112 93.4198 56.2538 93.4417 56.9512 94.1648C57.645 94.888 57.6306 96.0458 56.9151 96.7471L51.0178 102.536C49.5652 103.971 48.0258 105.491 44.9399 105.491C41.3986 105.491 40.6831 103.906 40.058 101.67C39.9315 101.218 39.787 100.695 39.5702 100.093L31.6277 73.675L8.7215 66.4469C4.49368 65.1394 3.77097 62.8311 3.72038 61.571C3.64811 59.8434 4.6346 57.3452 9.74413 55.2779L102.594 19.0901C105.112 17.9287 107.815 18.177 109.727 19.7877C111.942 21.6541 112.665 24.9486 111.711 28.8237L95.9159 104.055C95.251 107.262 93.8707 109.377 91.8073 110.334C91.0304 110.696 90.1993 110.874 89.3104 110.874Z" fill="#455A64"/>
<path d="M66.9568 51.8418C66.9568 52.8462 66.1437 53.668 65.15 53.668C64.1563 53.668 63.3433 52.8462 63.3433 51.8418C63.3433 50.8374 64.1563 50.0156 65.15 50.0156C66.1437 50.0156 66.9568 50.8374 66.9568 51.8418Z" fill="#455A64"/>
</svg>
