<svg width="34" height="34" viewBox="0 0 34 34" fill="none" xmlns="http://www.w3.org/2000/svg">
<path d="M29.126 0H4.59884C2.05897 0 0 2.05897 0 4.59884V29.126C0 31.6659 2.05897 33.7248 4.59884 33.7248H29.126C31.6659 33.7248 33.7248 31.6659 33.7248 29.126V4.59884C33.7248 2.05897 31.6659 0 29.126 0Z" fill="#4169E1"/>
<path d="M26.582 22.8881C26.0915 22.9571 23.6924 22.8881 23.5679 22.8881C22.9477 22.8961 22.3494 22.6592 21.9027 22.229C21.3969 21.7423 20.9446 21.2057 20.4503 20.696C20.304 20.5413 20.1458 20.3984 19.977 20.2687C19.5822 19.964 19.1913 20.033 19.0055 20.4987C18.8602 21.0018 18.7589 21.5167 18.7027 22.0374C18.6701 22.5087 18.3712 22.8038 17.8423 22.8364C17.5147 22.8536 17.187 22.8594 16.8632 22.8517C15.683 22.8442 14.5214 22.5572 13.4734 22.0144C12.3396 21.3825 11.3517 20.5187 10.5742 19.4792C9.29615 17.8467 8.27482 16.0531 7.36272 14.204C7.31482 14.112 6.37972 12.123 6.35672 12.0291C6.27241 11.7149 6.35672 11.414 6.61541 11.3106C6.7802 11.2473 9.86142 11.3106 9.91316 11.3106C10.1422 11.3086 10.366 11.3795 10.552 11.5132C10.738 11.6469 10.8767 11.8363 10.9479 12.054C11.5175 13.5125 12.2973 14.8798 13.2627 16.1125C13.3978 16.2774 13.5559 16.4219 13.7321 16.5417C13.9831 16.7123 14.2207 16.6529 14.3242 16.3635C14.4468 15.9621 14.5189 15.5469 14.5388 15.1276C14.5561 14.296 14.5388 13.7479 14.4928 12.9182C14.4622 12.3855 14.2744 11.918 13.4888 11.7685C13.2473 11.7264 13.2262 11.5271 13.3815 11.3278C13.7053 10.9139 14.1479 10.8488 14.6442 10.8238C15.3839 10.7817 16.1235 10.8104 16.8632 10.8238H17.0241C17.346 10.8227 17.6672 10.8554 17.9822 10.9216C18.1684 10.9592 18.3375 11.0561 18.4643 11.1976C18.591 11.3392 18.6686 11.5179 18.6855 11.7072C18.7233 11.917 18.7393 12.1302 18.7334 12.3434C18.7142 13.2517 18.6701 14.158 18.6605 15.0663C18.6517 15.4259 18.6845 15.7853 18.7583 16.1374C18.8637 16.6203 19.1952 16.741 19.5247 16.3923C19.9515 15.9414 20.3429 15.4584 20.6955 14.9475C21.319 14.0163 21.8334 13.0165 22.2285 11.9678C22.4431 11.4294 22.6117 11.3106 23.1866 11.3106H26.4556C26.65 11.3071 26.8437 11.333 27.0304 11.3872C27.0965 11.4046 27.1583 11.4354 27.2119 11.4777C27.2655 11.5201 27.3098 11.573 27.342 11.6333C27.3742 11.6936 27.3936 11.7598 27.399 11.8279C27.4044 11.896 27.3957 11.9645 27.3734 12.0291C27.2125 12.7458 26.8254 13.357 26.4153 13.9453C25.7504 14.8881 25.0491 15.8059 24.3689 16.7334C24.2828 16.8564 24.2041 16.9843 24.1332 17.1166C23.8764 17.5784 23.8956 17.8371 24.2673 18.2222C24.8613 18.8316 25.4956 19.4045 26.0685 20.033C26.4892 20.4899 26.8688 20.983 27.2029 21.5066C27.6225 22.1562 27.3638 22.777 26.582 22.8881Z" fill="white"/>
</svg>
