<svg width="76" height="77" viewBox="0 0 76 77" fill="none" xmlns="http://www.w3.org/2000/svg">
<g clip-path="url(#clip0_265_1597)">
<path d="M61.5 25.635C60.6353 25.1308 59.8563 24.4923 59.192 23.7436C58.6904 22.821 58.3397 21.8241 58.1532 20.7907C57.888 18.7414 56.921 16.8474 55.4167 15.4308C53.6347 14.3612 51.5374 13.9417 49.4811 14.2434C48.4496 14.343 47.4087 14.2781 46.3975 14.0509C45.4785 13.6049 44.6357 13.0165 43.9003 12.3074C42.465 10.7785 40.5413 9.79804 38.4607 9.53505C36.4275 9.71764 34.5193 10.5954 33.0577 12.0205C32.2579 12.7377 31.3423 13.3141 30.3499 13.7253C29.2955 13.9246 28.2158 13.9527 27.1525 13.8085C25.1452 13.4334 23.07 13.7615 21.2763 14.7375C19.6938 16.1094 18.6394 17.9903 18.2949 20.0562C18.0752 21.0562 17.6973 22.0148 17.1755 22.8958C16.4606 23.6466 15.6303 24.2784 14.7161 24.7671C12.8369 25.6552 11.324 27.1676 10.4351 29.0464C9.96902 31.0583 10.214 33.1696 11.1285 35.0214C11.547 35.985 11.8082 37.0095 11.9019 38.0559C11.7659 39.0491 11.4728 40.0143 11.0336 40.9154C10.0123 42.7682 9.67205 44.9202 10.072 46.9977C10.8909 48.9501 12.3674 50.5542 14.2454 51.5317C15.11 52.036 15.889 52.6744 16.5533 53.4232C17.055 54.3457 17.4057 55.3427 17.5922 56.3761C17.8574 58.4253 18.8244 60.3194 20.3287 61.736C22.1106 62.8055 24.2079 63.2251 26.2642 62.9234C27.2958 62.8237 28.3366 62.8887 29.3478 63.1158C30.2669 63.5618 31.1097 64.1503 31.8451 64.8593C33.2804 66.3883 35.2041 67.3687 37.2847 67.6317C39.3179 67.4491 41.226 66.5713 42.6877 65.1462C43.4838 64.4242 44.4002 63.8472 45.3955 63.4414C46.4499 63.2422 47.5296 63.2141 48.5929 63.3583C50.1316 63.5703 51.697 63.473 53.1976 63.072C53.6496 62.9201 54.0783 62.7061 54.4715 62.4363C56.0545 61.0622 57.1081 59.1786 57.4505 57.1106C57.6683 56.1118 58.0437 55.154 58.5629 54.2734C59.2777 53.5226 60.108 52.8908 61.0222 52.4021C62.9014 51.514 64.4143 50.0016 65.3032 48.1228C65.7693 46.1109 65.5243 43.9995 64.6099 42.1478C64.1913 41.1842 63.9302 40.1596 63.8364 39.1133C63.9724 38.1201 64.2655 37.1549 64.7047 36.2538C65.7269 34.3987 66.0663 32.2439 65.6639 30.1645C64.8465 28.2153 63.3736 26.6131 61.5 25.635Z" fill="#F9A825"/>
<path d="M57.3921 27.8862C56.6784 27.47 56.0354 26.9429 55.4873 26.3247C55.0722 25.5626 54.7824 24.7387 54.6291 23.8846C54.4064 22.1929 53.6051 20.6303 52.3612 19.4623C50.8897 18.5773 49.1566 18.2304 47.4577 18.4807C46.6051 18.5627 45.7449 18.5087 44.9092 18.3206C44.1468 17.9548 43.4478 17.4695 42.8384 16.8832C41.6575 15.6208 40.0742 14.8084 38.3599 14.5853C36.6799 14.7371 35.1035 15.4631 33.896 16.6409C33.2345 17.2323 32.4784 17.7084 31.6593 18.0495C30.788 18.213 29.8961 18.2356 29.0176 18.1165C27.3587 17.8057 25.6434 18.0766 24.161 18.8835C22.8513 20.0163 21.9783 21.5709 21.6927 23.2789C21.5119 24.1038 21.2013 24.8948 20.7727 25.6224C20.183 26.242 19.4984 26.7637 18.7446 27.1679C17.1918 27.9015 15.9419 29.1514 15.2083 30.7042C14.8252 32.3661 15.029 34.1094 15.7852 35.6381C16.1305 36.4346 16.3464 37.2811 16.4245 38.1457C16.3098 38.9672 16.0655 39.7653 15.7008 40.5103C14.8566 42.0425 14.5762 43.8221 14.9083 45.5397C15.5879 47.1532 16.8108 48.4781 18.3648 49.2847C19.0785 49.7009 19.7214 50.228 20.2696 50.8462C20.6846 51.6083 20.9744 52.4322 21.1278 53.2863C21.3487 54.9758 22.1467 56.5371 23.3867 57.7058C24.8583 58.5907 26.5914 58.9377 28.2902 58.6874C29.1429 58.6054 30.0031 58.6594 30.8388 58.8474C31.6012 59.2133 32.3002 59.6985 32.9096 60.2848C34.0905 61.5473 35.6738 62.3597 37.3881 62.5827C39.0681 62.4309 40.6445 61.705 41.852 60.5271C42.5104 59.9316 43.2672 59.455 44.0887 59.1185C44.96 58.9551 45.8519 58.9324 46.7304 59.0515C48.001 59.226 49.2936 59.1457 50.5328 58.8151C50.9067 58.6885 51.2609 58.5102 51.5852 58.2852C52.8949 57.1524 53.768 55.5977 54.0535 53.8898C54.2343 53.0648 54.5449 52.2738 54.9735 51.5462C55.5632 50.9267 56.2478 50.405 57.0016 50.0007C58.5536 49.2675 59.803 48.0185 60.5368 46.4668C60.9219 44.8043 60.7197 43.0597 59.9645 41.5294C59.6195 40.7335 59.4039 39.8875 59.3259 39.0235C59.4422 38.2002 59.6886 37.4007 60.056 36.6548C60.9001 35.1225 61.1806 33.3429 60.8485 31.6254C60.1677 30.014 58.9451 28.6913 57.3921 27.8862Z" fill="#E89721"/>
<path d="M47.9285 26.974C47.6174 26.8225 47.2702 26.7606 46.926 26.7954C46.5817 26.8301 46.2539 26.9601 45.9794 27.1707L40.4888 31.3802L35.6909 27.3488C35.4384 27.1616 35.1442 27.0387 34.8336 26.9907C34.5229 26.9427 34.2053 26.9712 33.9082 27.0735C33.611 27.1759 33.3432 27.3491 33.1281 27.5782C32.9129 27.8073 32.7567 28.0853 32.6732 28.3883L31.3758 34.5193L24.4575 34.5842C24.1117 34.5876 23.7736 34.6873 23.4812 34.872C23.1888 35.0568 22.9537 35.3193 22.8021 35.6302C22.6505 35.9411 22.5885 36.288 22.623 36.6322C22.6575 36.9763 22.7872 37.304 22.9975 37.5786L30.6689 47.5962C30.9064 47.9065 31.2354 48.1342 31.6094 48.2471C31.9833 48.3601 32.3834 48.3525 32.7528 48.2256L47.8449 43.0269C48.2142 42.8994 48.534 42.659 48.7591 42.3397C48.9842 42.0204 49.1032 41.6383 49.0992 41.2477L48.9738 28.6307C48.9707 28.2847 48.8712 27.9464 48.6866 27.6538C48.5019 27.3612 48.2394 27.1258 47.9285 26.974Z" fill="#FBC02D"/>
</g>
<defs>
<clipPath id="clip0_265_1597">
<rect width="59.5888" height="59.5888" fill="white" transform="translate(0 20.1177) rotate(-19.007)"/>
</clipPath>
</defs>
</svg>
